<svg xmlns="http://www.w3.org/2000/svg" xmlns:xlink="http://www.w3.org/1999/xlink" viewBox="0 0 48 60" version="1.1" x="0px" y="0px"><title>theicons.co/svg/finance-40</title><g stroke="none" stroke-width="1" fill="none" fill-rule="evenodd"><g transform="translate(-864.000000, -2016.000000)" fill="#000"><g transform="translate(96.000000, 1824.000000)"><g transform="translate(768.000000, 192.000000)"><path d="M26,22 L33.9941413,22 C35.1019465,22 36,22.8877296 36,24 C36,25.1045695 35.1029399,26 33.9941413,26 L24.0058587,26 C22.8980535,26 22,25.1122704 22,24 L22,15.999615 C22,14.8952581 22.8877296,14 24,14 C25.1045695,14 26,14.8874333 26,15.999615 L26,22 L26,22 Z M36,36 L40,36 L40,29.9940603 C40,28.8927712 40.8877296,28 42,28 C43.1045695,28 44,28.8945138 44,29.9940603 L44,42.0059397 C44,43.1072288 43.1122704,44 42,44 C40.8954305,44 40,43.1054862 40,42.0059397 L40,40 L36,40 L36,41.9914698 C36,43.1007504 35.1122704,44 34,44 C32.8954305,44 32,43.0980496 32,41.9914698 L32,40 L29.9940603,40 C28.8927712,40 28,39.1122704 28,38 C28,36.8954305 28.8945138,36 29.9940603,36 L32,36 L32,34.0085302 C32,32.8992496 32.8877296,32 34,32 C35.1045695,32 36,32.9019504 36,34.0085302 L36,36 L36,36 Z M4,5.99406028 C4,4.8927712 4.89451376,4 5.99406028,4 L18.0059397,4 C19.1072288,4 20,4.89451376 20,5.99406028 L20,18.0059397 C20,19.1072288 19.1054862,20 18.0059397,20 L5.99406028,20 C4.8927712,20 4,19.1054862 4,18.0059397 L4,5.99406028 L4,5.99406028 Z M28,5.99406028 C28,4.8927712 28.8945138,4 29.9940603,4 L42.0059397,4 C43.1072288,4 44,4.89451376 44,5.99406028 L44,18.0059397 C44,19.1072288 43.1054862,20 42.0059397,20 L29.9940603,20 C28.8927712,20 28,19.1054862 28,18.0059397 L28,5.99406028 L28,5.99406028 Z M4,29.9940603 C4,28.8927712 4.89451376,28 5.99406028,28 L18.0059397,28 C19.1072288,28 20,28.8945138 20,29.9940603 L20,42.0059397 C20,43.1072288 19.1054862,44 18.0059397,44 L5.99406028,44 C4.8927712,44 4,43.1054862 4,42.0059397 L4,29.9940603 L4,29.9940603 Z M8,8 L16,8 L16,16 L8,16 L8,8 L8,8 Z M32,8 L40,8 L40,16 L32,16 L32,8 L32,8 Z M8,32 L16,32 L16,40 L8,40 L8,32 L8,32 Z M4,24 C4,22.8954305 4.88772964,22 6,22 C7.1045695,22 8,22.8877296 8,24 C8,25.1045695 7.11227036,26 6,26 C4.8954305,26 4,25.1122704 4,24 L4,24 Z M10,12 C10,10.8954305 10.8877296,10 12,10 C13.1045695,10 14,10.8877296 14,12 C14,13.1045695 13.1122704,14 12,14 C10.8954305,14 10,13.1122704 10,12 L10,12 Z M22,30 C22,28.8954305 22.8874333,28 23.999615,28 L30.000385,28 C31.1047419,28 32,28.8877296 32,30 C32,31.1045695 31.1125667,32 30.000385,32 L23.999615,32 C22.8952581,32 22,31.1122704 22,30 L22,30 Z M40,24 C40,22.8954305 40.8877296,22 42,22 C43.1045695,22 44,22.8877296 44,24 C44,25.1045695 43.1122704,26 42,26 C40.8954305,26 40,25.1122704 40,24 L40,24 Z M22,42 C22,40.8954305 22.8877296,40 24,40 C25.1045695,40 26,40.8877296 26,42 C26,43.1045695 25.1122704,44 24,44 C22.8954305,44 22,43.1122704 22,42 L22,42 Z M10,24 C10,22.8954305 10.8874333,22 11.999615,22 L18.000385,22 C19.1047419,22 20,22.8877296 20,24 C20,25.1045695 19.1125667,26 18.000385,26 L11.999615,26 C10.8952581,26 10,25.1122704 10,24 L10,24 Z M10,36 C10,34.8954305 10.8877296,34 12,34 C13.1045695,34 14,34.8877296 14,36 C14,37.1045695 13.1122704,38 12,38 C10.8954305,38 10,37.1122704 10,36 L10,36 Z M34,12 C34,10.8954305 34.8877296,10 36,10 C37.1045695,10 38,10.8877296 38,12 C38,13.1045695 37.1122704,14 36,14 C34.8954305,14 34,13.1122704 34,12 L34,12 Z M22,5.99810135 C22,4.89458045 22.8877296,4 24,4 C25.1045695,4 26,4.88670635 26,5.99810135 L26,10.0018986 C26,11.1054196 25.1122704,12 24,12 C22.8954305,12 22,11.1132936 22,10.0018986 L22,5.99810135 L22,5.99810135 Z"/></g></g></g></g></svg>
