<?xml version="1.0" encoding="utf-8"?>
<!-- Generator: Adobe Illustrator 19.1.0, SVG Export Plug-In . SVG Version: 6.00 Build 0)  -->
<svg version="1.1" id="Camada_1" xmlns="http://www.w3.org/2000/svg" xmlns:xlink="http://www.w3.org/1999/xlink" x="0px" y="0px"
	 viewBox="190 190 420 420" style="enable-background:new 190 190 420 420;" xml:space="preserve">
<style type="text/css">
	.st0{fill:#0074FF;}
</style>
<g>
	<g>
		<path class="st0" d="M281.2,197.6c2,0,3.3,0.8,3.8,2.4c1.1,2.5,2.2,6.3,3.3,11.6l0.9,5.6l-0.2,2.1c0.1,2.6,0.2,4.4,0.2,5.4
			c0,2.3-0.5,5.2-1.5,8.9c-0.3,6.6-0.8,9.9-1.2,9.9c-1.3,3.6-3.9,6.6-7.8,8.7c-3.2,1.4-5.9,2.1-8.1,2.1h-0.2l-0.3,0.2v-0.2l-0.3,0.2
			c-1.5,0-3.1-1-5-3c-1.6-2.1-3.1-4.8-4.5-8.3c-1.3-4-2-8.7-2-14.1c0-1.6,0.3-9.4,1.1-23.4v-2.4c0-1.8,0.7-2.7,2.1-2.7
			c1.1-0.5,2.3-0.8,3.5-0.8h0.9l0.3-0.2v0.2c0.1,0,0.2,0,0.2-0.2c2,0,3.5,0.9,4.7,2.9c0.4,1.4,0.6,2.5,0.6,3.3
			c-0.2,2.3-0.3,3.8-0.3,4.5c0,0.6,0.3,2.5,0.9,5.7c-0.1,2.4-0.3,4.3-0.5,5.7l0.3,3.8l-0.2,0.3c0,0.2,0,0.4,0.2,0.6
			c-0.1,1.3-0.2,2.4-0.2,3.2v2.3c0,1.5,0.2,3.7,0.6,6.5h-0.1c0.2,1.2,0.5,2.3,0.8,3.3c0.6-0.5,1.4-3.5,2.4-8.9
			c0-0.6,0.5-3.3,1.4-7.8c0.4-2,0.6-6.4,0.8-13.2c0.1,0,0.2-0.6,0.3-1.8c-0.1-1.2-0.2-1.9-0.3-2.1h0.2c-0.2-0.5-0.3-1.7-0.3-3.5
			v-3.9c0-1.4,1.1-2.3,3.2-2.9H281.2z"/>
		<path class="st0" d="M306.1,205.1c1,2,2.1,4.9,3.3,8.9h0.2c3.3-7.8,5.3-12,6.2-12.8c1.3-1.1,3.4-1.7,6.2-1.7h0.6
			c0.8,0,1.2,0.6,1.2,2c0,0.3,0.1,1.6,0.5,3.9c0,0.6-0.1,1.7-0.3,3l1.2,14.7v2.3c0,0.4,0,1-0.1,1.7c0.3,0.6,0.5,1.3,0.6,2
			c-0.4,1.3-0.6,2.3-0.6,3v0.6c0.6,3.9,0.9,6.9,0.9,9.2c0,7.4-0.3,11.1-0.8,11.1c-1,1-1.9,1.5-2.7,1.5c-2.2,0-4.2-1.2-5.9-3.6v-5.4
			c0-0.6,0-1.3,0.1-2l-0.3-4.2c0.1-0.8,0.2-1.6,0.2-2.4l-0.6-7.7l0.3-3V226h-0.2c-0.8,4.2-1.5,6.6-2.3,7.5c-0.6,0.5-1.4,0.9-2.4,1.2
			c-3.3,0-5-0.4-5-1.2c-0.4-0.9-0.9-2.9-1.4-6h-0.2v0.3c0.1,1.7,0.2,2.7,0.2,3c0,2.7-0.3,6.5-0.8,11.4c0.3,1.2,0.5,2.1,0.5,2.6
			c0,0.4-0.2,1.6-0.5,3.6l0.2,0.3c0,1.6-2,2.6-6,2.9h-3.3c-1.9,0-2.9-3.1-2.9-9.3c-0.1,0-0.1-0.3-0.1-1.1c0.1-4.8,0.3-8.4,0.5-10.8
			c0-4.1-0.1-8.1-0.3-12c0-0.6,0.2-2.7,0.6-6.6v-2c0-0.3,0-0.6,0.2-0.8l-0.2-0.8c0-6.4,0.5-9.6,1.5-9.6c1.4-0.3,2.4-0.5,3.2-0.5
			C300.3,198.2,303.2,200.5,306.1,205.1z M304.8,226.9v0.5h0.1v-0.5H304.8z"/>
		<path class="st0" d="M369.5,205.3c0.4,1.2,0.7,3.6,0.9,7.2c0,1.1-1.5,1.7-4.5,1.7c-2-0.4-3.3-1-3.9-1.8c-0.4-0.7-0.9-2.2-1.5-4.5
			c-1.9-2.5-3.3-3.8-4.2-3.8v1.1c0,1.4,0.6,3.6,1.7,6.6c3.2,5.6,5.5,10.3,6.9,14.1c0.3,1.7,0.9,3.9,1.8,6.8c0.5,2.7,0.8,4.1,0.8,4.2
			v1.1c0,1.3,0.1,3,0.3,5.1c-0.3,1-0.5,2.5-0.6,4.7c-0.9,2.4-2.3,4.7-4.2,6.8c-0.6,1.2-2,1.8-4.2,1.8c-0.6,0-0.9,0-1.1,0.2
			c-3.8,0-6.2-1.5-7.4-4.4c-1.2-1.5-2.1-3.3-2.4-5.1c-0.7-1-1.1-2.1-1.1-3.3v-1.3c0-1.9,1-2.9,3-2.9c0-0.2,0.3-0.3,1.1-0.3
			c2.3,0,4,1.9,5.3,5.7c0.7,2.5,1.3,4,2,4.5h0.1c0.3-1.7,0.5-3.2,0.6-4.5c-0.3-3.8-0.8-6.6-1.5-8.6v-1.8c-0.6-0.3-1.1-1.8-1.7-4.4
			c-1.3-2.2-2.1-4.1-2.4-5.6c-2.8-4.5-4.4-8.2-4.8-11.1c-0.6-2.9-0.9-4.6-0.9-5v-1.7c0-0.2,0-0.4,0.1-0.6c-0.1-0.2-0.2-0.9-0.3-2.3
			c0.6-2.4,1.8-4,3.3-5c2.4-1.9,5.1-2.9,8-2.9C363,196.4,366.6,199.4,369.5,205.3z"/>
		<path class="st0" d="M387.4,198.4c0,1.6-1.1,3.4-3.2,5.3c0,0.2-1.7,0.4-5,0.7c-3.4-0.1-5.3-1.1-5.7-3.1l-0.4-2.6
			c0.2-1,0.7-2,1.5-3c2.2-0.7,4.5-1.1,6.9-1.1C385.4,194.6,387.4,195.8,387.4,198.4z M380,209.8c3.1,0,4.9,1.3,5.4,3.9
			c0.5,2.1,0.8,3.7,0.8,4.8c0,0.3-0.1,0.8-0.5,1.7c0.3,0.5,0.5,1.1,0.5,2v0.8c0,1.1-0.2,2.1-0.6,3.2l0.2,0.8v0.9
			c0,0.7-0.2,2.4-0.5,5.3c0,0.9,0.2,2.2,0.5,4.1c-0.4,2.9-0.6,4.4-0.8,4.4l1.2,12v0.8c0,0.9-1,1.5-3,1.8c-1,0.5-2.4,0.8-4.2,0.8
			h-0.8c-1.7,0-2.7-0.6-3-1.7c-0.7-0.5-1.1-1.8-1.1-4.1l-0.9-11.9c0-0.7,0.1-2.3,0.3-5l-0.3-5.7c0.2-2.7,0.6-6.2,1.1-10.4
			c0.1-1.4,0.1-2.9,0.1-4.5v-1.4c0-0.8,0.9-1.5,2.7-2.3c0.5-0.1,1.1-0.2,1.8-0.2h1.1V209.8z"/>
		<path class="st0" d="M406.3,195.6c3.2,0.5,5.8,0.9,7.8,1.1c1,1.2,1.5,2,1.5,2.6c0,2-1.2,3.4-3.5,4.2c-1.3,0.4-2.6,0.6-3.8,0.6
			h-4.2c-0.1,0.6-0.2,0.9-0.2,1.2c0.7,3,1.1,4.8,1.1,5.4c-0.1,0.8-0.3,1.4-0.5,1.8c0.4,0.7,0.7,1.5,0.9,2.3l-0.3,2.3l0.6,6.8
			c-0.2,1-0.3,1.7-0.3,2c0.3,1.7,0.5,2.7,0.5,3.2c-0.2,1.5-0.3,2.6-0.3,3.3v0.6c0.2,3.9,0.3,6,0.3,6.3l-0.2,1.4
			c0.5,1.6,0.8,3,0.8,4.4v0.3c-0.3,2.2-0.5,3.6-0.5,4.1c0.6,2.6,0.9,4.2,0.9,4.8c0,1.3-2.4,2.2-7.1,2.7c-1.8,0-3-0.4-3.5-1.2
			c-1.3-2-2-7.2-2-15.5c-0.1,0-0.2-0.4-0.2-1.2c0.1-1.2,0.2-1.8,0.3-1.8l-0.1-1.5v-2.9c0-1.9-0.2-3.6-0.5-5l0.3-2.6
			c-0.5-3.6-0.9-10.8-1.2-21.6c-0.9-0.2-3-0.5-6.2-0.9c-0.6-0.5-0.9-0.9-0.9-1.5c0.2-2.4,1.4-3.7,3.6-3.8c4-0.7,7.7-1.2,11-1.3
			c0-0.1,0.1-0.2,0.5-0.2c0.2,0,0.4,0,0.6,0.2c0.9-0.1,1.5-0.2,2.1-0.2h1.5L406.3,195.6z"/>
		<path class="st0" d="M426.1,199.5c0.4-0.2,1.1-0.3,1.9-0.3c2.6,0.3,5,0.5,7.3,0.6c1.5,0.8,2.2,1.8,2.2,3c-1.3,2.7-3.9,4-7.8,4
			h-1.8l-0.7,0.2v-0.2l-0.3,0.2c-0.2-0.1-0.4-0.2-0.6-0.2c-0.3,0.8-0.5,1.5-0.5,2.1v0.3c0,0.8,0,1.7,0.2,3l-0.7,2
			c0.2,1.4,0.3,2.1,0.6,2.1s0.9,0,2.2-0.1c3.8,0.9,5.7,1.5,5.7,1.8c0.6,0.5,0.9,1.1,0.9,1.7c-0.6,1.5-1.8,2.3-3.6,2.3
			c-0.3,0-1.8,0.5-4.4,1.4h-0.6l0,0.1c0,0.3,0,0.4-0.1,0.4c0.1,1.1,0.1,1.9,0.1,2.4v2.2c0,0.6-0.1,2.1-0.3,4.4
			c0.1,0.8,0.3,1.4,0.6,2l-0.1,1.7v1.4c0,3.5,0.2,6,0.6,7.4c-0.1,1-0.2,1.7-0.2,2.3v0.3c0,0.6,0.3,0.9,1,0.9c1.8,0,3.6-0.1,5.4-0.3
			c2.3,0,3.5,0.6,3.5,1.7c-1,2.8-4.3,4.1-9.9,4c-4.4,0.3-7.5-0.1-9.4-1.3c-1.1-5-1.7-9.9-1.7-14.8c0-1.5,0.1-3.3,0.3-5.5
			c-0.2-0.7-0.4-2.2-0.6-4.7l0.3-3.3c-0.1-0.2-0.2-1.8-0.3-4.8l0.7-9.2c-0.2-0.6-0.3-1-0.3-1.3v-0.6c0-0.5,0-0.9,0.1-1.4
			c-0.1-0.6-0.2-1.1-0.3-1.3c0.1-0.8,0.2-1.5,0.2-2v-3c0-0.8,1.1-1.6,3.2-2.4c1.1,0,1.6,0,1.6-0.2
			C423.4,198.9,425.3,199.2,426.1,199.5z"/>
		<path class="st0" d="M464.7,192.6c3.8,0,8,1.6,12.6,4.8c1,1.2,1.8,3.4,2.6,6.8c0.3,1.7,0.5,3.5,0.6,5.4c0,1-0.4,2.3-1.2,3.8
			c-0.2,2.8-0.6,4.2-1.5,4.2c-1.6,3.8-3,6.2-4.1,7.2c-0.6,0.8-0.9,1.4-0.9,1.8c2,0.4,3.6,1.4,5,2.9c2,2.9,3,5.7,3,8.6
			c0.2,1.3,0.3,2.6,0.3,3.9c0,2.4-0.5,4.2-1.4,5.4c0,2.1-1.8,4.5-5.6,7.1c-0.8,1.4-2.3,2.1-4.5,2.1h-0.8c-0.5,0-1.1-0.5-1.8-1.4
			h-1.7c-2.1,0-3.2-0.5-3.2-1.4c-0.6-0.4-1-1.7-1.4-3.9c-0.2-0.8-0.3-1.3-0.3-1.5v-1.9c-1.1-7.4-1.7-12.6-1.7-15.6l-0.3-11.4
			c0-0.2,0.2-0.7,0.5-1.5l-0.2-1.4c0-0.2,0.1-1.7,0.3-4.5c-0.1-1.7-0.3-3-0.5-4.1c0.1-1.2,0.2-1.8,0.3-2l-0.2-0.6
			c0-3,0.3-5.9,0.9-8.9V196c-0.4-0.5-0.6-1-0.6-1.4v-0.5c0.6-1.2,2.3-1.8,5.1-1.8h0.7V192.6z M468.2,199.7v4.2l1.2,9.2
			c-0.1,1.8-0.2,3-0.2,3.6l0.2,1.4h0.1c1.6-3.5,2.4-6.5,2.4-9.2v-1.5c0-3.7-1.3-6.4-3.9-8L468.2,199.7z M470.1,230.9
			c0.6,4,0.9,6.2,0.9,6.6c0.4,0,0.7,2,0.9,5.9c0.4,1.4,0.6,2.1,0.8,2.1c0.5-2.1,0.8-3.2,1.1-3.2l-0.1-1.5v-2.6
			c0-1.6-0.8-3.8-2.4-6.8c-0.6-0.5-0.9-0.8-1.1-0.8L470.1,230.9L470.1,230.9z"/>
		<path class="st0" d="M494.2,199.5c0.4-0.2,1.1-0.3,1.9-0.3c2.6,0.3,5,0.5,7.3,0.6c1.5,0.8,2.2,1.8,2.2,3c-1.3,2.7-3.9,4-7.8,4H496
			l-0.7,0.2v-0.2L495,207c-0.2-0.1-0.4-0.2-0.6-0.2c-0.3,0.8-0.5,1.5-0.5,2.1v0.3c0,0.8,0,1.7,0.2,3l-0.7,2c0.1,1.4,0.3,2.1,0.6,2.1
			s0.9,0,2.2-0.1c3.8,0.9,5.7,1.5,5.7,1.8c0.6,0.5,0.9,1.1,0.9,1.7c-0.6,1.5-1.8,2.3-3.6,2.3c-0.3,0-1.8,0.5-4.4,1.4h-0.6l0.1,0.3
			c0,0.3,0,0.4-0.1,0.4c0.1,1.1,0.1,1.9,0.1,2.4v2c0,0.6-0.1,2.1-0.3,4.4c0.1,0.8,0.3,1.4,0.6,2l-0.1,1.7v1.4c0,3.5,0.2,6,0.6,7.4
			c-0.1,1-0.2,1.7-0.2,2.3v0.3c0,0.6,0.3,0.9,1,0.9c1.8,0,3.6-0.1,5.4-0.3c2.3,0,3.5,0.6,3.5,1.7c-1,2.8-4.3,4.1-9.9,4
			c-4.4,0.3-7.5-0.1-9.4-1.3c-1.1-5-1.7-9.9-1.7-14.8c0-1.5,0.1-3.3,0.3-5.5c-0.2-0.7-0.4-2.2-0.6-4.7l0.3-3.3
			c-0.1-0.2-0.2-1.8-0.3-4.8l0.7-9.2c-0.2-0.6-0.3-1-0.3-1.3v-0.6c0-0.5,0-0.9,0.2-1.4c-0.1-0.6-0.2-1.1-0.3-1.3
			c0.1-0.8,0.1-1.5,0.1-2v-3c0-0.8,1.1-1.6,3.2-2.4c1.1,0,1.6,0,1.6-0.2C491.5,198.9,493.3,199.2,494.2,199.5z"/>
		<path class="st0" d="M522.2,205.1c1,2,2.1,4.9,3.3,8.9h0.1c3.3-7.8,5.3-12,6.2-12.8c1.3-1.1,3.4-1.7,6.2-1.7h0.6
			c0.8,0,1.2,0.6,1.2,2c0,0.3,0.2,1.6,0.5,3.9c0,0.6-0.1,1.7-0.3,3l1.2,14.7v2.3c0,0.4,0,1-0.2,1.7c0.3,0.6,0.5,1.3,0.6,2
			c-0.4,1.3-0.6,2.3-0.6,3v0.6c0.6,3.9,0.9,6.9,0.9,9.2c0,7.4-0.3,11.1-0.8,11.1c-1,1-1.9,1.5-2.7,1.5c-2.2,0-4.2-1.2-5.9-3.6v-5.4
			c0-0.6,0-1.3,0.2-2l-0.3-4.2c0.1-0.8,0.2-1.6,0.2-2.4l-0.6-7.7l0.3-3V226h-0.2c-0.8,4.2-1.5,6.6-2.3,7.5c-0.6,0.5-1.4,0.9-2.4,1.2
			c-3.3,0-5-0.4-5-1.2c-0.4-0.9-0.9-2.9-1.4-6h-0.2v0.3c0.1,1.7,0.2,2.7,0.2,3c0,2.7-0.3,6.5-0.8,11.4c0.3,1.2,0.5,2.1,0.5,2.6
			c0,0.4-0.1,1.6-0.5,3.6l0.2,0.3c0,1.6-2,2.6-6,2.9h-3.3c-1.9,0-2.9-3.1-2.9-9.3c-0.1,0-0.2-0.3-0.2-1.1c0.1-4.8,0.3-8.4,0.5-10.8
			c0-4.1-0.1-8.1-0.3-12c0-0.6,0.2-2.7,0.6-6.6v-2c0-0.3,0-0.6,0.2-0.8l-0.2-0.8c0-6.4,0.5-9.6,1.5-9.6c1.4-0.3,2.4-0.5,3.2-0.5
			C516.4,198.2,519.2,200.5,522.2,205.1z M520.8,226.9v0.5h0.2v-0.5H520.8z"/>
	</g>
	<g>
		<path class="st0" d="M277.6,264.5c0.8-0.3,1.5-0.5,1.9-0.5c8.7,0,13,1,13,2.9c0.2,0.9,0.2,1.5,0.2,1.9c0,1.7-2.5,3.2-7.5,4.3
			c-2-0.5-3.3-0.7-3.9-0.7l-3.9,1.4c-0.3-0.2-1-0.3-2.2-0.5v1c0.2,6.7,0.5,10.1,1,10.1c3.2,0.1,4.8,0.2,4.8,0.5l0.5-0.2h4.8
			c3.1,0,4.6,1.1,4.6,3.4c0,2.9-0.7,4.3-2.2,4.3c-0.2,0.5-1.4,1.1-3.4,1.9l-3.4-0.2c-1.3,0-3.1,0.2-5.3,0.5c0.5,2.2,0.7,3.4,0.7,3.9
			c0,1.6-0.1,4.5-0.2,8.7c0.8,3.8,1.2,6.3,1.2,7.5l-0.2,1c0.3,0.6,0.5,1.3,0.5,1.9v1.7c0,1.4-0.1,2.8-0.2,4.3c0,0.3,0.4,3,1.2,7.9
			c-0.2,1.7-0.2,3.4-0.2,4.8c1.1,3.3,1.7,7,1.7,11.1c1,2.3,1.4,4.5,1.4,6.5v0.7c0,2.2-4.2,3.8-12.5,4.6h-0.2c-2.3,0-3.8-0.5-4.3-1.7
			c-1.7-4.1-2.6-8.5-2.6-13.2c-0.1-0.1-0.5-3.6-1.2-10.4c-0.3,0-0.5-2.4-0.7-7.2c0-0.8,0.2-2.7,0.5-5.8c-0.7-1.6-1-3.1-1-4.3v-2.9
			c0-2.9,0.2-4.8,0.5-5.5c-0.5-5.3-0.7-10.8-0.7-16.4c0.3-2.8,0.5-4.6,0.5-5.3l-0.7-4.8c0-1.5,0.1-3.6,0.2-6.3
			c-0.2-2.1-0.2-3.9-0.2-5.3c0-3.6,2.8-5.3,8.4-5.3c0-0.1,1.2-0.4,3.6-0.7L277.6,264.5z"/>
		<path class="st0" d="M331.2,282.3c2.2,5.4,3.4,11.2,3.4,17.3c0.2,0,0.2,0.4,0.2,1.2c0,0.3-0.3,2-1,5.1c0.8,3.9,1.2,8.4,1.2,13.5
			v0.5c0,3.4-0.5,7.9-1.4,13.5c0,3.3-1.4,7.1-4.1,11.3c-0.7,3.6-2,5.3-3.9,5.3c-0.8,2.1-2.5,3.1-5.1,3.1c-1,0-3-0.3-6-1
			c-3,0.7-5,1-6,1h-1c-4.2,0-7.1-2.9-8.9-8.7c-1.7-3.2-3.3-8.1-4.6-14.7c0-1.1-0.1-1.7-0.2-1.9l0.5-4.6c-0.2-2.6-0.2-4.9-0.2-7v-1
			c0-7.3,0.4-11.1,1.2-11.3c-0.2-0.3-0.2-0.5-0.2-0.7c0-1.4,0.7-4.9,2.2-10.4c0-2.1,1.6-7.7,4.8-16.9c1.5-1.8,3-2.8,4.3-3.1
			c3.8-1.4,7.7-2.2,11.8-2.2C324.7,270.7,329,274.6,331.2,282.3z M315.6,283c-0.7,2.3-1.4,6.7-2.2,13.2v4.1c0,0.5-0.2,1.1-0.7,1.7v1
			c0,4.2-0.2,6.9-0.5,7.9c0.2,1.1,0.2,2,0.2,2.6v2.4c0,5.7,0.9,13.2,2.6,22.4h0.2c1.4-1.9,2.6-6,3.6-12c0.7-4.8,1-9.6,1-14.5
			c0-2.5-0.3-6.6-1-12.3v-1.2c0-0.7,0.1-1.6,0.2-2.6c-1.3-5.2-2.4-9.5-3.4-12.8h0V283z"/>
		<path class="st0" d="M355.7,264.5c0.8-0.3,1.5-0.5,1.9-0.5c8.7,0,13,1,13,2.9c0.2,0.9,0.2,1.5,0.2,1.9c0,1.7-2.5,3.2-7.5,4.3
			c-2-0.5-3.3-0.7-3.9-0.7l-3.9,1.4c-0.3-0.2-1-0.3-2.2-0.5v1c0.2,6.7,0.5,10.1,1,10.1c3.2,0.1,4.8,0.2,4.8,0.5l0.5-0.2h4.8
			c3.1,0,4.6,1.1,4.6,3.4c0,2.9-0.7,4.3-2.2,4.3c-0.2,0.5-1.4,1.1-3.4,1.9l-3.4-0.2c-1.3,0-3.1,0.2-5.3,0.5c0.5,2.2,0.7,3.4,0.7,3.9
			c0,1.6-0.1,4.5-0.2,8.7c0.8,3.8,1.2,6.3,1.2,7.5l-0.2,1c0.3,0.6,0.5,1.3,0.5,1.9v1.7c0,1.4-0.1,2.8-0.2,4.3c0,0.3,0.4,3,1.2,7.9
			c-0.2,1.7-0.2,3.4-0.2,4.8c1.1,3.3,1.7,7,1.7,11.1c1,2.3,1.4,4.5,1.4,6.5v0.7c0,2.2-4.2,3.8-12.5,4.6h-0.2c-2.3,0-3.8-0.5-4.3-1.7
			c-1.7-4.1-2.6-8.5-2.6-13.2c-0.1-0.1-0.5-3.6-1.2-10.4c-0.3,0-0.5-2.4-0.7-7.2c0-0.8,0.2-2.7,0.5-5.8c-0.7-1.6-1-3.1-1-4.3v-2.9
			c0-2.9,0.2-4.8,0.5-5.5c-0.5-5.3-0.7-10.8-0.7-16.4c0.3-2.8,0.5-4.6,0.5-5.3l-0.7-4.8c0-1.5,0.1-3.6,0.2-6.3
			c-0.2-2.1-0.2-3.9-0.2-5.3c0-3.6,2.8-5.3,8.4-5.3c0-0.1,1.2-0.4,3.6-0.7L355.7,264.5z"/>
		<path class="st0" d="M396.8,267.4c0,2.6-1.7,5.4-5.1,8.4c0,0.3-2.6,0.7-8,1.1c-5.4-0.1-8.4-1.7-9.1-4.9l-0.7-4.2
			c0.4-1.6,1.1-3.2,2.3-4.8c3.6-1.1,7.2-1.7,11.1-1.7C393.7,261.4,396.8,263.4,396.8,267.4z M385,285.7c5,0,7.9,2.1,8.7,6.3
			c0.8,3.3,1.2,5.9,1.2,7.7c0,0.4-0.2,1.3-0.7,2.6c0.5,0.8,0.7,1.8,0.7,3.1v1.2c0,1.7-0.3,3.4-1,5.1l0.2,1.2v1.4
			c0,1.1-0.2,3.9-0.7,8.4c0,1.4,0.2,3.6,0.7,6.5c-0.6,4.6-1,7-1.2,7l1.9,19.3v1.2c0,1.5-1.6,2.5-4.8,2.9c-1.6,0.8-3.9,1.2-6.7,1.2
			h-1.2c-2.7,0-4.3-0.9-4.8-2.6c-1.1-0.8-1.7-3-1.7-6.5l-1.4-19c0-1.1,0.2-3.7,0.5-7.9l-0.5-9.2c0.3-4.4,0.9-9.9,1.7-16.6
			c0.2-2.2,0.2-4.6,0.2-7.2v-2.2c0-1.3,1.4-2.5,4.3-3.6c0.8-0.2,1.8-0.2,2.9-0.2h1.7V285.7z"/>
		<path class="st0" d="M439.5,263.8c2.6,0,3.9,0.9,3.9,2.6c0.2,0,0.5,1.7,0.7,5.3c1,2.1,1.6,3.8,1.9,5.1l-0.5,11.3
			c0.5,2.3,0.7,5.2,0.7,8.7v0.2c0,2-0.2,3.7-0.7,4.8c0.3,1.6,0.5,3.7,0.5,6.5v0.2c0,2.8-0.2,4.9-0.7,6.3c0.2,1.4,0.2,2.3,0.2,2.6
			c0,6.9-0.3,11.6-1,14c0.2,3.2,0.2,5.2,0.2,6.3c0,0.5-0.2,2.2-0.7,5.1l0.2,3.4c0,4.5-4.4,7.6-13.2,9.4c-2.5,0-4.8-1.7-6.7-5.1
			c-0.7-2.6-2.2-7.8-4.8-15.4l-3.6-12.8h-0.2c-0.2,1.6-0.2,2.8-0.2,3.6v1c0.3,8.4,0.5,13.1,0.5,14c-0.4,6.7-0.8,10.4-1.2,11.1
			c-2.2,1.4-4.2,2.2-6,2.2c-5.6,0-8.4-3.1-8.4-9.2c0.5-6.9,0.7-10.9,0.7-11.8c-0.7-4.8-1-7.9-1-9.6c0-0.5,0.2-1.6,0.5-3.4l-0.2-1.4
			c0.2-1.6,0.2-3,0.2-3.9c0-1.5-0.2-3.6-0.5-6.3c0.8-8.9,1.4-17.8,1.9-27c-0.2-3.3-0.2-5.5-0.2-6.7c0-4,0.8-6,2.4-6
			c1-0.5,2.2-0.7,3.6-0.7c6.4,0,9.6,0.7,9.6,2.2c0.2,1,1.3,2.5,3.1,4.6c0.7,1.3,1.4,3.2,2.2,5.5c1.6,1.8,2.4,4.4,2.4,7.7
			c1.9,1.9,2.9,4.8,2.9,8.7c1.3,1.7,2.3,5.8,3.1,12.3c0.5,0.1,0.7,1,0.7,2.6h0.2c0-1.1,0.4-5.7,1.2-13.7c0-4.2,0.1-6.6,0.2-7.2
			c-0.2-0.8-0.2-1.9-0.2-3.1v-1.4c0-0.8,0.1-1.6,0.2-2.2c-0.2-0.8-0.2-1.6-0.2-2.4v-3.3c0.5-3.6,0.7-5.9,0.7-7v-5.1
			c0-1.4,1.4-2.3,4.3-2.6H439.5z M431.5,312.7v0.7h0.2v-0.7H431.5z"/>
		<path class="st0" d="M485.4,261.4c3.7,0,5.8,0.8,6.5,2.4c1.1,1,1.7,4.3,1.7,9.9c1.1,4,1.7,7.3,1.7,9.6c0,0.7-0.2,2.2-0.5,4.8
			c0.3,3.1,0.7,7.9,1,14.7c0.2,0,0.2,0.2,0.2,0.5c-1,5.4-1.4,8.1-1.4,8.2s0.1,0.6,0.2,1.4c0,1-0.1,2.4-0.2,4.1
			c0.2,2,0.2,3.9,0.2,5.8l-1,4.6c0.5,2.4,0.7,4.4,0.7,6v3.4c0,2.6-0.2,4.3-0.7,5.3c0.2,0.9,0.2,1.5,0.2,1.9c0,3.3-0.2,5.8-0.5,7.7
			c0.5,1.3,0.7,2.6,0.7,4.1v0.5c0,1.4-1.7,2.3-5.1,2.6c-0.8,0-2,0.1-3.6,0.2c-3.1,0-5.1-1.1-5.8-3.4c-1.6-4.2-2.4-8.1-2.4-11.8v-0.4
			c0-0.3-0.2-0.5-0.5-0.5c-3.2,0-4.8,0.3-4.8,1v0.2c0,0.9,0.3,3.4,1,7.7c-0.2,4.3-1.1,6.5-2.6,6.5c-0.9,1-1.8,1.4-2.6,1.4h-1.2
			c-0.4,0-0.7-0.1-1-0.2c-0.2,0-1.1,0.7-2.6,1.9c-0.9,0.2-1.6,0.2-2.2,0.2h-1.9c-4.2,0-6.3-2.7-6.3-8.2c-1.1-6.9-1.7-14.4-1.7-22.6
			c0.5-1.6,0.7-9.3,0.7-23.1v-1.7c0-2.6,0.4-7.2,1.2-13.7c0.5-8.1,0.7-12.8,0.7-14.2l-1-8.4c0-1.6,1.9-2.6,5.8-3.1
			c0.5,0,1,0.1,1.7,0.2c0.7-0.2,1.3-0.2,1.9-0.2c2.7,0,4.1,1.3,4.1,3.9c0.7,0,1.3,1.9,1.7,5.8c0,0.1-0.1,1.1-0.2,3.1
			c0.8,4.5,1.2,8.4,1.2,11.6v0.2c0,2.1-0.2,3.6-0.5,4.3c0.2,0.8,0.3,3.2,0.5,7.2c-0.2,3.2-0.2,5-0.2,5.3c0,1.9,0.5,6.7,1.7,14.5
			c0,3.7,0.4,8.1,1.2,13.2h0.2c2.1-0.5,3.4-0.7,4.1-0.7h0.7l0.2-1.2c0-3.7-0.1-7.8-0.2-12.3c0.7-4.5,1-8.2,1.2-11.1
			c-0.3-2.7-0.5-4.8-0.5-6.3c0.5-7.9,0.7-21.4,0.7-40.5c0-1.1,1.9-2,5.8-2.4h1.8V261.4z"/>
		<path class="st0" d="M536.3,282.3c2.2,5.4,3.4,11.2,3.4,17.3c0.2,0,0.2,0.4,0.2,1.2c0,0.3-0.3,2-1,5.1c0.8,3.9,1.2,8.4,1.2,13.5
			v0.5c0,3.4-0.5,7.9-1.4,13.5c0,3.3-1.4,7.1-4.1,11.3c-0.7,3.6-2,5.3-3.9,5.3c-0.8,2.1-2.5,3.1-5.1,3.1c-1,0-3-0.3-6-1
			c-3,0.7-5,1-6,1h-1c-4.2,0-7.1-2.9-8.9-8.7c-1.7-3.2-3.3-8.1-4.6-14.7c0-1.1-0.1-1.7-0.2-1.9l0.5-4.6c-0.2-2.6-0.2-4.9-0.2-7v-1
			c0-7.3,0.4-11.1,1.2-11.3c-0.2-0.3-0.2-0.5-0.2-0.7c0-1.4,0.7-4.9,2.2-10.4c0-2.1,1.6-7.7,4.8-16.9c1.5-1.8,3-2.8,4.3-3.1
			c3.8-1.4,7.7-2.2,11.8-2.2C529.8,270.7,534.1,274.6,536.3,282.3z M520.7,283c-0.7,2.3-1.4,6.7-2.2,13.2v4.1c0,0.5-0.2,1.1-0.7,1.7
			v1c0,4.2-0.2,6.9-0.5,7.9c0.2,1.1,0.2,2,0.2,2.6v2.4c0,5.7,0.9,13.2,2.6,22.4h0.2c1.4-1.9,2.6-6,3.6-12c0.7-4.8,1-9.6,1-14.5
			c0-2.5-0.3-6.6-1-12.3v-1.2c0-0.7,0.1-1.6,0.2-2.6c-1.3-5.2-2.4-9.5-3.4-12.8h0V283z"/>
	</g>
	<g>
		<path class="st0" d="M281.5,381.2c0,0.2,1.1,1.6,3.4,4.2c0.4,1.6,1.3,4.7,2.7,9.2c-0.1,0.8-0.4,1.5-0.7,2.2
			c0.6,3.3,0.9,5.2,0.9,5.8v1.6c0,0.8,0,2-0.2,3.6h0.2c-0.9,6.2-2.2,10.5-4,13c-0.4,1.3-1.7,2.9-4,4.9c-0.5,1.8-2.3,2.7-5.4,2.7
			c-0.3,1.7-0.8,5.4-1.3,11c-0.1,0-0.3,0.4-0.4,1.1l0.2,1.3c0,1.4-2.5,2.4-7.6,3.3h-1.1c-2.5,0-3.8-0.5-3.8-1.6
			c-0.7-1.4-1.3-4.2-1.6-8.7c0-0.4,0.4-2.5,1.1-6.3c0-0.6,0-1.7-0.2-3.1c0.1-2.3,0.2-4.2,0.2-5.8c-0.5-3.2-0.7-6.6-0.7-10.3
			c0-0.3,0-0.5,0.2-0.7c-0.1-0.7-0.2-1.2-0.2-1.6v-2.5c0-0.5,0-0.7,0.2-0.7l-0.2-1.3v-6.1c0-1.6,0.1-6.3,0.4-14.3
			c0.1,0,0.2,0,0.2-0.2h-0.2l0.2-0.4v-2c0-1.3,2.2-2.5,6.5-3.6c2.4-0.1,3.7-0.2,4-0.2C273.8,375.6,277.5,377.5,281.5,381.2z
			 M273.2,385v0.2c0.6,2.1,0.9,3.7,1.1,4.5l-0.2,1.6c0.1,1.4,0.2,2.5,0.2,3.3l-0.2,0.7c0.2,1.1,0.7,3.8,1.3,8.1l-1.1,4.7
			c0,1,0.3,3.6,0.9,7.6v0.2c0,1.1-0.2,2.8-0.5,5.1c0.6,0,1.9-3.5,3.8-10.5c0.3,0,0.5-1.4,0.5-4.2c-0.3-6.3-0.9-10.5-1.8-12.5
			c-1.2-3.3-2.5-6.2-3.8-8.9h-0.2V385z"/>
		<path class="st0" d="M306.9,374.5c2,0,4.3,2.6,6.9,7.8c0,1.2,0.6,2.8,1.8,4.5c0.5,2.6,0.9,4.3,1.3,5.2c0.6,1.8,0.9,3.1,0.9,4
			c0,0.3-0.1,0.7-0.4,1.1c0.5,0,0.9,1.9,1.3,5.6c0.9,2.8,1.4,5.7,1.4,8.5c0.3,0.9,0.6,2.2,0.7,3.8l-0.5,3.3c0.5,1.3,0.7,2.2,0.7,2.5
			c0,0.2-0.1,0.9-0.4,1.8c0.4,0.9,0.5,1.6,0.5,2.3c-0.1,1.2-0.2,1.9-0.2,2.2c0.4,0,0.7,1.1,1.1,3.3l-0.2,0.4v0.2
			c0.4,4.9,0.5,7.5,0.5,7.9v0.9c0,1.8-0.5,2.7-1.4,2.7c-1.1,0.6-2.5,0.9-4.2,0.9c-2.8,0-4.6-0.6-5.1-1.8c-2.6-5.2-4.1-10.8-4.5-16.8
			c-0.1-0.4-1.4-0.6-4-0.7h-1.1c-0.1,0-0.3,0.2-0.5,0.7l0.2,0.4v1.1c0,0.6-0.2,1.6-0.5,2.9c0.3,1.8,0.5,2.7,0.5,2.7
			c-0.2,1-0.8,2.4-1.6,4c0,2.3-0.4,3.6-1.3,4c-0.9,0.7-1.7,1.1-2.2,1.1c-3.4,0-5.4-1.4-6.1-4.2v-2.3c0-3.2,0.4-7.4,1.3-12.5
			c0-0.7,0-2.2-0.2-4.5c0.9-5.2,2.3-13.9,4.2-25.8c1.6-6.6,2.3-10.7,2.3-12.1c0.5-1.2,1.7-2.2,3.4-2.9c0.4-1.4,2.1-2.2,5.1-2.2
			H306.9z M304.9,395.1c-0.6,5.3-1.3,10.2-2.2,14.5v0.4c0,1,0,2.1,0.2,3.3c-0.4,1.8-0.5,3.4-0.5,4.7c1.2,0.1,2.1,0.2,2.7,0.2h1.6
			V418c0-0.6-0.1-1.9-0.4-4c0.4-1.9,0.5-3.5,0.5-4.7v-0.9c0-3.8-0.6-8.3-1.8-13.2h-0.1V395.1z"/>
		<path class="st0" d="M347.5,372.3c2.1,2.1,3.7,6.4,4.7,13c0.1,2.1,0.2,3.4,0.2,3.8c-0.9,9.4-1.8,14.1-2.5,14.1
			c0,0.5-0.9,1.9-2.7,4.3c-2,1.7-3.4,2.9-4,3.6l-0.2,0.4c3.1,3.6,5.1,6.8,5.8,9.6c0,0.8,0.9,2.8,2.7,6.1c0,0.5,1.1,4,3.4,10.7
			c0.2,0.9,0.4,2,0.4,3.1v0.5c0,1.7-0.6,2.7-1.8,3.1c-1.7,0.5-3,0.8-4,0.9c-2.7,0-4.5-1.6-5.6-4.9c-0.7-2-1.9-4.5-3.6-7.4
			c-0.7-2.9-1.4-5.1-2.3-6.7c-0.4-0.9-0.5-1.4-0.5-1.8h-0.2c0,0.5-0.1,1.8-0.4,3.8c0,1.4,0.2,2.2,0.4,2.2c-0.2,0.5-0.4,1.5-0.4,2.9
			v3.4c0,0.4,0,0.9-0.2,1.6c0.5,1.3,0.7,2.5,0.7,3.6c0,1.4-1.5,2.2-4.5,2.5c-2.7,0-4.3-0.5-4.7-1.6c-1.7-5.6-2.5-13.3-2.5-23.1
			l-0.9-10.5l0.4-3.3c-0.2-1.6-0.4-3.2-0.4-4.7v-1.6c0-1.5,0-3.2,0.2-5.1c-0.1-0.5-0.2-0.9-0.2-1.4l0.4-2.2
			c-0.2-1.7-0.4-3.6-0.4-5.6c0.6-5.2,1.5-8.7,2.5-10.5c0.4,0,0.9-0.9,1.4-2.7c2.7-2.4,5.4-3.6,8.1-3.6c0,0,0.9,0,2.3-0.2
			C343.4,368.7,346.2,369.9,347.5,372.3z M335.2,382.4c0,2.4,0.3,5.6,0.9,9.6v0.9c0,0.4,0,0.9-0.2,1.6c0.5,1.6,0.7,3.7,0.7,6.5
			l0.2,0.7c2.8-2.4,4.2-7.2,4.2-14.5c0-6.2-1.3-10.4-3.8-12.6H337c-1,0-1.6,2.3-1.8,6.9L335.2,382.4L335.2,382.4z M337,424.2v0.4
			h0.2v-0.4H337z"/>
		<path class="st0" d="M373.4,374.5c2,0,4.3,2.6,6.9,7.8c0,1.2,0.6,2.8,1.8,4.5c0.5,2.6,0.9,4.3,1.3,5.2c0.6,1.8,0.9,3.1,0.9,4
			c0,0.3-0.1,0.7-0.4,1.1c0.5,0,0.9,1.9,1.3,5.6c0.9,2.8,1.4,5.7,1.4,8.5c0.3,0.9,0.6,2.2,0.7,3.8l-0.5,3.3c0.5,1.3,0.7,2.2,0.7,2.5
			c0,0.2-0.1,0.9-0.4,1.8c0.4,0.9,0.5,1.6,0.5,2.3c-0.1,1.2-0.2,1.9-0.2,2.2c0.4,0,0.7,1.1,1.1,3.3l-0.2,0.4v0.2
			c0.4,4.9,0.5,7.5,0.5,7.9v0.9c0,1.8-0.5,2.7-1.4,2.7c-1.1,0.6-2.5,0.9-4.2,0.9c-2.8,0-4.6-0.6-5.1-1.8c-2.6-5.2-4.1-10.8-4.5-16.8
			c-0.1-0.4-1.4-0.6-4-0.7h-1.1c-0.1,0-0.3,0.2-0.5,0.7l0.2,0.4v1.1c0,0.6-0.2,1.6-0.5,2.9c0.3,1.8,0.5,2.7,0.5,2.7
			c-0.2,1-0.8,2.4-1.6,4c0,2.3-0.4,3.6-1.3,4c-0.9,0.7-1.7,1.1-2.2,1.1c-3.4,0-5.4-1.4-6.1-4.2v-2.3c0-3.2,0.4-7.4,1.3-12.5
			c0-0.7,0-2.2-0.2-4.5c0.9-5.2,2.3-13.9,4.2-25.8c1.6-6.6,2.3-10.7,2.3-12.1c0.5-1.2,1.7-2.2,3.4-2.9c0.4-1.4,2.1-2.2,5.1-2.2
			H373.4z M371.4,395.1c-0.6,5.3-1.3,10.2-2.2,14.5v0.4c0,1,0,2.1,0.2,3.3c-0.4,1.8-0.5,3.4-0.5,4.7c1.2,0.1,2.1,0.2,2.7,0.2h1.6
			V418c0-0.6-0.1-1.9-0.4-4c0.4-1.9,0.5-3.5,0.5-4.7v-0.9c0-3.8-0.6-8.3-1.8-13.2h-0.1V395.1z"/>
		<path class="st0" d="M419.1,374.4c4.3,0,6.5,0.7,6.5,2.2c0.8,2.1,1.8,6.1,2.9,12.1c-0.1,1.6-0.2,2.9-0.2,4c1.1,2.2,2,6.5,2.9,12.8
			c0.1,3.2,0.4,6.1,0.7,8.7h0.2c0.9-5.3,1.4-9.4,1.4-12.5c0.5-2.4,1.3-7.8,2.5-16.3v-1.3c0-6.1,1.6-9.3,4.7-9.6
			c0.1-0.1,0.6-0.2,1.3-0.2h0.4c2.2,0,3.3,0.7,3.3,2v1.6c-0.6,3.1-1.1,4.9-1.4,5.2l0.2,0.9v1.8l-0.2,0.4c0.3,0,0.6,0.6,0.7,1.8v1.4
			c0,2-0.4,5.5-1.1,10.3v4c0,0.8-0.5,3.5-1.6,8.1l0.2,1.1v0.5c-0.5,3.8-0.9,6.1-1.3,6.7v0.4c0.2,1.7,0.4,2.7,0.4,2.9
			c-0.9,3.1-1.6,6.7-1.8,11c-0.7,3-1.5,4.9-2.5,5.6c-1.5,1-4.7,2-9.4,2.9h-0.4c-2,0-3.6-1.6-4.9-4.7c-1.3-1.6-2-3.9-2.3-7
			c-2.7-9.8-4-17.1-4-22c-0.4,0-0.9-5.7-1.4-17.2c-0.2,0-0.3-0.7-0.4-2.2v-3.1c0-0.9-0.2-2.4-0.5-4.5c0.1-1.5,0.2-2.4,0.2-2.7
			c-0.4-1.4-0.5-2.1-0.5-2.3c0-1.4,1-2.4,3.1-2.9h2.3V374.4z"/>
		<path class="st0" d="M474.9,385.9c1.7,4.1,2.5,8.4,2.5,13c0.1,0,0.2,0.3,0.2,0.9c0,0.2-0.2,1.5-0.7,3.8c0.6,2.9,0.9,6.3,0.9,10.1
			v0.4c0,2.6-0.4,5.9-1.1,10.1c0,2.5-1,5.3-3.1,8.5c-0.5,2.7-1.5,4-2.9,4c-0.6,1.6-1.9,2.3-3.8,2.3c-0.8,0-2.3-0.2-4.5-0.7
			c-2.3,0.5-3.7,0.7-4.5,0.7h-0.7c-3.1,0-5.3-2.2-6.7-6.5c-1.3-2.4-2.4-6.1-3.4-11c0-0.9,0-1.3-0.2-1.4l0.4-3.4
			c-0.1-1.9-0.2-3.7-0.2-5.2v-0.7c0-5.5,0.3-8.3,0.9-8.5c-0.1-0.2-0.2-0.4-0.2-0.5c0-1.1,0.5-3.7,1.6-7.8c0-1.6,1.2-5.8,3.6-12.6
			c1.1-1.4,2.2-2.1,3.3-2.3c2.8-1.1,5.8-1.6,8.9-1.6C470,377.2,473.3,380.1,474.9,385.9z M463.1,386.4c-0.5,1.8-1,5.1-1.6,9.9v3.1
			c0,0.4-0.2,0.8-0.5,1.3v0.7c0,3.2-0.1,5.1-0.4,6c0.1,0.8,0.2,1.5,0.2,2v1.8c0,4.3,0.7,9.9,2,16.8h0.2c1-1.4,1.9-4.5,2.7-9
			c0.5-3.6,0.7-7.2,0.7-10.8c0-1.9-0.2-4.9-0.7-9.2v-0.9c0-0.5,0-1.2,0.2-2c-0.9-3.9-1.8-7.1-2.5-9.6h-0.3V386.4z"/>
		<path class="st0" d="M498.1,372c0.1,0,0.2,0,0.2-0.2c1.2,0,2.4,0.5,3.6,1.4c1.4,0,2.4,0.8,2.9,2.3c0.9,0.4,1.7,1.4,2.2,3.1
			c1.1,2.3,1.6,4.1,1.6,5.4v0.7c0,0.4-0.2,1-0.5,2l0.4,0.7c-0.1,1.5-0.2,2.3-0.2,2.5c0.4,3.8,0.6,5.9,0.7,6.3l-0.2,0.4
			c0.1,0.2,0.2,0.5,0.2,0.7l-0.2,0.4c0,0.1,0,0.2,0.2,0.2c0,3-1.7,4.5-5.1,4.5c-0.2,0.1-0.5,0.2-1.1,0.2c-2.9-0.7-4.3-1.7-4.3-2.9
			c-0.6-0.9-0.9-2-0.9-3.4c0.1-0.2,0.2-0.4,0.2-0.5s0-0.2-0.2-0.2l0.2-0.9v-0.2c0-1-0.2-2.8-0.5-5.2c0.1-2.1,0.2-3.9,0.2-5.2
			c-0.2-1.6-0.6-2.3-1.1-2.3l-1.6,6.5l0.4,2.7c-0.9,3.2-1.4,6.2-1.4,9c-0.2,0.7-0.6,2.8-1.1,6.3h0.2c-0.4,1.9-0.5,3.7-0.5,5.8h-0.2
			c0,0.1,0,0.2,0.2,0.2c-0.1,1.5-0.3,2.4-0.4,2.7c0,0.1,0,0.2,0.2,0.2l-0.2,0.9v1.6c0,1.9,0.1,3.2,0.4,3.8h-0.2
			c0.1,0,0.2,0.9,0.4,2.9c-0.1,1.2-0.2,1.9-0.2,2.2c0,0.4,0.4,1.5,1.3,3.4c0,1.8,0.2,2.7,0.5,2.7c1.7-1.9,2.5-3.7,2.5-5.1
			c0.2-1.2,0.4-2.8,0.4-4.7c0-1.8-0.2-3.7-0.7-5.6v-0.2c0-1.7,2.5-2.8,7.6-3.6h1.1l0.4,0.2v-0.2c2,0.6,3.1,1.6,3.1,3.1
			c0,1.1,0.3,2.7,0.9,4.7v1.1c0,0.3,0,0.5-0.2,0.7c0.5,0.9,0.7,1.6,0.7,2v0.2l-0.2,1.1l0.4,0.9L510,428l0.2,2.5c0,2-0.9,4.6-2.9,7.8
			l-3.6,1.8c0,0.5-0.8,1.1-2.3,1.8c-0.2,0.9-2.3,1.5-6.3,1.8c0,0.1-0.7,0.3-2.2,0.5H492c-1.9,0-3.6-1-5.1-3.1
			c-1.4,0-3.2-5.4-5.2-16.3c-0.6-3.7-0.9-8-0.9-12.6V408l0.2-1.3h-0.2c0.1-0.2,0.2-0.4,0.2-0.5c0-2.8,0.5-6.8,1.4-11.9
			c-0.1-0.2-0.2-0.5-0.2-0.7c0-0.1,0-0.2,0.2-0.2c0-0.1,0-0.2-0.2-0.2c1-6.9,2.3-11.8,4-14.6c2.2-3.3,4.2-5.3,6-6
			c1.3-0.5,3.3-0.8,6-0.9L498.1,372z"/>
		<path class="st0" d="M531.5,371.9l1.3-0.2c3.6,0,5.4,0.5,5.4,1.6c0,2-0.8,3.2-2.3,3.6c-1.7,0.7-3.6,1.3-5.8,1.8l-0.4-0.2
			c-0.1,0-0.2,0-0.2,0.2l-1.3-0.2h-3.3v0.2c0.5,1.6,1.4,4,2.7,7.2l-0.2,1.3v0.5c0.1,1.1,0.5,1.6,0.9,1.6c1.2,0,3.3,0,6.5-0.2
			c1.4,0,2.2,0.5,2.2,1.6v0.5c0,2.1-2.7,3.7-7.9,4.7h-0.4v0.4c0.6,3.6,0.9,6.2,0.9,7.9v4.2c0,0.9-0.1,2-0.4,3.3
			c0.1,1.6,0.2,2.8,0.2,3.6c0,0.3,0,0.9-0.2,2c0.7,1.9,1.1,3.1,1.1,3.6c-0.5,5.2-0.7,8.5-0.7,9.8c0.2,3,0.9,4.5,2,4.5
			c6,0.5,9,0.9,9,1.4c0.4,0.7,0.5,1.2,0.5,1.6c0,1.9-3.3,3.8-9.8,5.8c-1.2,0.4-2.7,0.5-4.3,0.5c-3.6,0-7.2-1.2-10.8-3.6
			c-0.7-0.9-1.1-3-1.1-6.1c-0.2,0-0.5-3.6-0.9-10.7c-0.2,0-0.4-0.5-0.4-1.4s0-2.1,0.2-3.4c-0.2-2.4-0.4-6.5-0.5-12.5
			c0.1-0.8,0.2-1.7,0.2-2.7c-0.4-1.6-0.6-3.4-0.7-5.4c0.1-4.8,0.2-8.1,0.2-9.9c-0.1-2.3-0.3-3.6-0.5-4c0.1-1.2,0.2-2.2,0.2-2.9V381
			c0-0.1,0-0.2,0.2-0.2c-0.9-2.5-1.3-4.3-1.3-5.2c0-0.7,1.2-1.4,3.6-2l12.6-1.4c0-0.2,0.6-0.3,1.8-0.4h1.3c0.1,0,0.2,0,0.2-0.2
			C531.4,371.7,531.5,371.8,531.5,371.9z"/>
		<path class="st0" d="M509.1,370.2c0,0,3.7-5.7,4.8-7.3c1.1-1.7,0.6-1.7,2.3-4.3c1.7-2.7,5.9-7,13,1.3c7.1,8.3,2.5,7,1.1,6.7
			c-1.4-0.3-1.1-1-2.8-2.3c-1.7-1.3-5.7-3-5.7-3s-2.8,4.3-4,6c-1.1,1.7-1.7,2.7-3.1,3C513.3,370.5,507.4,372.8,509.1,370.2z"/>
	</g>
	<g>
		<path class="st0" d="M278.5,455.9c0.5,0.6,1.1,2.4,1.7,5.5c1.9,2.7,2.9,7.5,2.9,14.3c1.9,7,2.9,11,2.9,11.9
			c0,1.5,0.5,5.4,1.4,11.6l1.9,8.2v0.2c0,3.7-0.4,5.9-1,6.9c-0.6,0.8-1.7,1.2-3.2,1.4c-0.9,0.7-1.6,1-2.2,1l-1.5-0.2
			c-0.9,0.2-1.4,0.4-1.7,0.4c-1.9,0-3.3-4.7-4.3-14.1c-1.5-0.1-3.6-0.5-6.2-1.2c-0.8,6.7-1.2,11.2-1.2,13.8c0,4.6-0.7,6.9-2.1,6.9
			c-2.1,0.2-3.2,0.4-3.4,0.5v-0.2c-0.1,0-0.2,0-0.2,0.2c-2.9,0-4.4-1.3-4.4-3.9c0.5-4.9,0.7-7.8,0.7-8.6c0-0.1,0-0.3-0.2-0.5
			c0.7-5,1-10.2,1-15.5c0.2,0,0.5-3.1,0.7-9.3c0.5-2.1,1.4-7.9,2.6-17.4c0.3-0.8,0.6-3.3,1-7.4c1-5.4,2-9.1,3.3-11
			c0.8-0.5,2.4-0.9,4.6-1.2C274.4,447.9,276.7,450.6,278.5,455.9z M271.9,475c-0.7,3.1-1,7.6-1,13.6c-0.8,3.2-1.2,5.4-1.2,6.7h0.2
			c1.1-0.2,2.2-0.4,3.1-0.4h1.4v-0.1c0-0.9-0.5-5.1-1.5-12.6c0-1.2-0.2-3.6-0.7-7.2H271.9z"/>
		<path class="st0" d="M297.8,450.5c0.5,0.4,3.6,1.1,9.1,2c2.1,0.9,4.3,2.5,6.5,4.9c4,4.9,6,9,6,12.1v1.3l-0.2,0.9
			c0.6,0,1,2.3,1.1,6.9c0.4,0.6,0.6,2.9,0.7,6.9c0,3.9-0.5,7.9-1.6,12.3c-0.4,2.6-1.1,4.4-2.2,5.4c-0.9,1-1.5,2.6-2,4.9
			c-1.7,1.2-3.4,3.4-5.1,6.5c-3.4,4.6-6.6,6.9-9.6,6.9c-0.3,0-2.3-1.1-6-3.3c-1.7-1.6-2.5-3.9-2.5-6.9v-0.2c0-1,0.2-4,0.5-9.1
			c-0.5-3.1-0.7-5.5-0.7-7.1v-6.7c-0.5-4.3-0.7-6.9-0.7-7.8v-9.1c0-2-0.2-4.6-0.7-7.8v-0.4c0.4-3.3,0.5-5.1,0.5-5.4v-1.2
			c-1-1.2-1.5-2.2-1.5-3.1c0.5-2.3,1.5-3.4,2.9-3.4c0-0.1,0.4-0.3,1.1-0.5C295.3,449.7,296.8,450,297.8,450.5z M303.8,464.5v2.2
			c0,0.5,0.7,5.3,2,14.3v2c0,3.2,0.4,8.1,1.3,14.7h0.2c0-0.2,0.4-1.6,1.3-4.2c0-0.5,0-3.2,0.2-8c-0.6-7.7-1.2-11.6-1.8-11.6
			c0-0.8-1-3.9-2.9-9.4H303.8z"/>
		<path class="st0" d="M339.4,456.1c6.2,0,9.8,2.1,10.9,6.3c0.5,1.5,1.2,3.2,2.4,5.1c0.3,1,0.6,2.9,0.7,5.6c1.3,5.3,2,10.5,2,15.6
			c0,6.3-1,12.1-2.9,17.6c-0.5,1.9-1.6,3.4-3.3,4.5c-0.4,1-1.8,1.9-4.4,2.7c-2.6,0.5-4.4,0.7-5.6,0.7h-0.7c-7.6,0-12.9-8.2-16-24.7
			c-0.1-2.8-0.2-4.6-0.4-5.4c0-1.7,0.6-5.7,1.8-12c0-1.6,1.4-5.4,4.2-11.4c0.9-2.5,2.9-3.8,6.2-3.8h1.6c1.4-0.6,2.2-0.9,2.4-0.9
			L339.4,456.1L339.4,456.1z M336.5,476.1c-0.4,2.2-0.5,4.4-0.5,6.5c0,1.6,0.4,5.2,1.3,10.9v0.4c0,0.1,0,0.2-0.2,0.2
			c1.4,2.1,2.4,4.8,3.3,8c0.5,1.2,1,1.9,1.5,2.2c1.5-2.4,2.2-7,2.2-14l-0.2-0.4c0-0.1,0-0.2,0.2-0.2c-0.5-5.6-1.2-10.2-2.2-14
			c-0.9-2.2-1.7-5.3-2.5-9.4c-0.5-0.7-0.9-1.1-1.3-1.3C337,467.4,336.5,471.1,336.5,476.1z"/>
		<path class="st0" d="M378.9,449.1c1-0.1,1.7-0.2,2-0.2c5.9,0.9,8.9,2,8.9,3.4c0.2,0,0.4,0.5,0.4,1.6c0,1.3-2.9,2.6-8.9,3.8h-2.5
			l-0.9-0.2c-0.1,1.2-0.3,1.9-0.4,2.2c0.1,0.2,0.2,0.5,0.2,0.7c0,0.1,0,0.3-0.2,0.5c0.3,1.6,0.6,6.6,0.7,15c-0.2,0-0.4,1.9-0.5,5.8
			c-0.9,1.9-1.3,3-1.3,3.6v0.9c0,0.1,0,0.2,0.2,0.2c0,0.1,0,0.2-0.2,0.2l0.2,1.3c0,0.9-0.5,2-1.5,3.4l-0.9,8.7c0,0.8,0,2.7,0.2,5.6
			c-0.2,1.2-0.5,4.1-0.7,8.5c0.2,1.4,0.4,2.3,0.4,2.9c0,3.1-0.9,4.7-2.5,4.7c-0.2,0.1-0.5,0.2-0.9,0.2h-1.6
			c-3.9-0.3-5.8-0.8-5.8-1.6c-0.2-0.5-0.4-1.3-0.5-2.4l0.2-2.5c-0.5-5.3-0.7-8.2-0.7-8.7c0.4-5.3,0.7-9.2,0.9-11.4
			c-0.1-1.3-0.2-2-0.4-2c0-0.1,0-0.2,0.2-0.2l-0.2-1.3v-2.4c0-0.1,0-0.2-0.2-0.2c0-0.1,0-0.2,0.2-0.2l-0.4-6.3
			c0.1-4.5,0.3-8.4,0.5-11.6l-0.2-1.6l1.1-14c-4.9-0.7-7.4-1.9-7.4-3.8v-0.4c0-1.1,2.2-2,6.7-2.7c0-0.1,3.1-0.3,9.4-0.5
			C376.3,448.9,378.4,449.1,378.9,449.1z"/>
		<path class="st0" d="M410.3,455.9c0.5,0.6,1.1,2.4,1.7,5.5c1.9,2.7,2.9,7.5,2.9,14.3c1.9,7,2.9,11,2.9,11.9
			c0,1.5,0.5,5.4,1.4,11.6l1.9,8.2v0.2c0,3.7-0.4,5.9-1,6.9c-0.6,0.8-1.7,1.2-3.2,1.4c-0.9,0.7-1.6,1-2.2,1l-1.5-0.2
			c-0.9,0.2-1.4,0.4-1.7,0.4c-1.9,0-3.3-4.7-4.3-14.1c-1.5-0.1-3.6-0.5-6.2-1.2c-0.8,6.7-1.2,11.2-1.2,13.8c0,4.6-0.7,6.9-2.1,6.9
			c-2.1,0.2-3.2,0.4-3.4,0.5v-0.2c-0.1,0-0.2,0-0.2,0.2c-2.9,0-4.4-1.3-4.4-3.9c0.5-4.9,0.7-7.8,0.7-8.6c0-0.1,0-0.3-0.2-0.5
			c0.7-5,1-10.2,1-15.5c0.2,0,0.5-3.1,0.7-9.3c0.5-2.1,1.4-7.9,2.6-17.4c0.3-0.8,0.6-3.3,1-7.4c1-5.4,2-9.1,3.3-11
			c0.8-0.5,2.4-0.9,4.6-1.2C406.2,447.9,408.5,450.6,410.3,455.9z M403.6,475c-0.7,3.1-1,7.6-1,13.6c-0.8,3.2-1.2,5.4-1.2,6.7h0.2
			c1.1-0.2,2.2-0.4,3.1-0.4h1.4v-0.1c0-0.9-0.5-5.1-1.5-12.6c0-1.2-0.2-3.6-0.7-7.2H403.6z"/>
		<path class="st0" d="M439.5,451.8c2.6,2.3,4.5,4.8,5.6,7.4c1.2,3.3,1.8,6.3,1.8,9.1c0.2,0,0.4,1.2,0.4,3.6v1.1
			c0,0.6-0.3,1.6-0.9,2.9l0.2,1.3c0,2.9-1.4,6.1-4.2,9.8c-0.3,0-0.9,0.5-1.6,1.5c3.6,2.6,5.8,5.3,6.7,8.3c0,0.3,1,2.2,2.9,5.8
			c1,4.4,2,6.9,2.9,7.6c0,0.5,0.7,2.5,2,6.2c0.1,0.7,0.2,1.2,0.2,1.6v0.2c0,1.2-1.5,2.7-4.4,4.4c-0.9,0.1-1.3,0.2-1.5,0.2
			c-3.4-0.5-5.1-1.2-5.1-2.2c0-1.7-1.9-6.1-5.6-13.4l-0.5-1.8h-0.2c-0.1,0.6-0.2,1-0.2,1.1c0.6,3.6,0.9,6.6,0.9,8.9v2.9
			c0,1.1-3.1,2-9.4,2.7c-2.1,0-3.5-0.7-4-2.2c-0.9-1.5-1.5-8-2-19.4c-0.9-5.2-1.3-10.7-1.3-16.5c-0.1,0-0.2-0.3-0.2-0.9
			c0.2-14.2,0.4-23.9,0.4-29c0-1.5,1.6-2.5,4.7-3.1C434.3,449.8,438.4,450.4,439.5,451.8z M433.3,456.5c0.2,0.8,0.4,3.2,0.5,7.4
			c-0.1,0.6-0.2,1-0.2,1.1c0.6,1.9,0.9,3.3,0.9,4.2v4.4l1.1,7.6h0.2c1.9-2.5,2.9-5.2,2.9-8v-2.5c0-7.3-1.8-12-5.3-14.1h-0.1V456.5z"
			/>
		<path class="st0" d="M494.6,456.1c6.2,0,9.8,2.1,10.9,6.3c0.5,1.5,1.2,3.2,2.4,5.1c0.3,1,0.6,2.9,0.7,5.6c1.3,5.3,2,10.5,2,15.6
			c0,6.3-1,12.1-2.9,17.6c-0.5,1.9-1.6,3.4-3.3,4.5c-0.4,1-1.8,1.9-4.4,2.7c-2.6,0.5-4.4,0.7-5.6,0.7h-0.7c-7.6,0-12.9-8.2-16-24.7
			c-0.1-2.8-0.2-4.6-0.4-5.4c0-1.7,0.6-5.7,1.8-12c0-1.6,1.4-5.4,4.2-11.4c0.9-2.5,2.9-3.8,6.2-3.8h1.6c1.4-0.6,2.2-0.9,2.4-0.9
			L494.6,456.1L494.6,456.1z M491.7,476.1c-0.4,2.2-0.5,4.4-0.5,6.5c0,1.6,0.4,5.2,1.3,10.9v0.4c0,0.1,0,0.2-0.2,0.2
			c1.4,2.1,2.4,4.8,3.3,8c0.5,1.2,1,1.9,1.5,2.2c1.5-2.4,2.2-7,2.2-14l-0.2-0.4c0-0.1,0-0.2,0.2-0.2c-0.5-5.6-1.2-10.2-2.2-14
			c-0.9-2.2-1.7-5.3-2.5-9.4c-0.5-0.7-0.9-1.1-1.3-1.3C492.2,467.4,491.7,471.1,491.7,476.1z"/>
		<path class="st0" d="M535.8,453v0.4c0,0.9-0.7,1.7-2.2,2.5c-3.1,2.6-4.7,5.9-4.7,10.2c0,3,2.8,7.7,8.3,14
			c1.8,2.4,3.3,6.9,4.5,13.8l0.5,3.6v0.4l-0.9,4.7c0,1.7-0.3,3-0.9,4.2c0,2.6-0.7,4.6-2,5.8c-1,1.4-1.7,2.6-2,3.6
			c-1.5,0.5-2.7,1.2-3.4,2c-0.6,0.5-1.2,0.7-1.6,0.7H530c-1.4,1.6-3.3,2.4-5.8,2.4h-0.9c-2,0-4.4-1.3-7.3-4
			c-2.9-3.6-4.4-7.3-4.4-11.2v-0.7c1-2.7,2.6-4,4.9-4h1.3c1.6,0,2.7,1.6,3.1,4.9c1.1,3.9,2,5.8,2.9,5.8c1.9-2.7,2.9-4.6,2.9-5.6
			v-7.1c-0.4-5.5-1-9-1.8-10.5c-0.6-1-1-2.4-1.3-4.2c-1.5-1.5-3.4-4.8-5.6-10.2c-0.9-2.1-1.5-5.7-1.8-10.5c0-3.1,1.2-5.8,3.6-8.2
			c0.8-1.4,1.4-2.4,1.8-2.9c0.7-0.8,3.1-1.5,7.4-2.2C533.6,450.6,535.8,451.4,535.8,453z"/>
	</g>
	<g>
		<path class="st0" d="M267.3,528.4c4.7,0,9.9,2,15.5,5.9c1.2,1.4,2.3,4.2,3.1,8.3c0.4,2.1,0.6,4.3,0.7,6.7c0,1.2-0.5,2.8-1.5,4.6
			c-0.2,3.5-0.8,5.2-1.9,5.2c-2,4.7-3.7,7.6-5,8.9c-0.7,1-1.1,1.7-1.1,2.2c2.4,0.5,4.4,1.7,6.1,3.5c2.5,3.5,3.7,7,3.7,10.5
			c0.2,1.6,0.4,3.2,0.4,4.8c0,2.9-0.6,5.1-1.7,6.7c0,2.6-2.3,5.5-6.8,8.7c-1,1.7-2.8,2.6-5.6,2.6h-0.9c-0.6,0-1.3-0.6-2.2-1.7h-2
			c-2.6,0-3.9-0.6-3.9-1.7c-0.7-0.5-1.2-2.1-1.7-4.8c-0.2-1-0.4-1.6-0.4-1.9v-2.2c-1.3-9.2-2-15.6-2-19.2l-0.7-14.1
			c0-0.2,0.2-0.9,0.6-1.8l-0.2-1.7c0-0.2,0.1-2.1,0.4-5.6c-0.1-2.1-0.3-3.7-0.6-5c0.1-1.4,0.2-2.2,0.4-2.4l-0.2-0.7
			c0-3.7,0.4-7.3,1.1-10.9v-0.6c-0.5-0.6-0.7-1.2-0.7-1.7v-0.6c0.7-1.5,2.8-2.2,6.3-2.2h0.8V528.4z M271.6,537.1v5.2l1.5,11.3
			c-0.1,2.2-0.2,3.7-0.2,4.4l0.2,1.7h0.2c2-4.3,3-8,3-11.3v-1.9c0-4.6-1.6-7.9-4.8-9.8L271.6,537.1z M274,575.6
			c0.7,5,1.1,7.6,1.1,8.1c0.5,0,0.8,2.4,1.1,7.2c0.5,1.7,0.8,2.6,0.9,2.6c0.6-2.6,1-3.9,1.3-3.9l-0.2-1.8v-3.1c0-1.9-1-4.7-3-8.3
			c-0.7-0.6-1.2-0.9-1.3-0.9v0.1H274z"/>
		<path class="st0" d="M308.1,535.5c0,2-1.3,4.2-3.9,6.5c0,0.2-2,0.5-6.2,0.9c-4.2-0.1-6.5-1.3-7-3.8l-0.5-3.2
			c0.3-1.2,0.9-2.5,1.8-3.7c2.7-0.9,5.6-1.3,8.5-1.3C305.7,530.9,308.1,532.4,308.1,535.5z M299,549.6c3.8,0,6.1,1.6,6.7,4.8
			c0.6,2.5,0.9,4.5,0.9,5.9c0,0.3-0.2,1-0.6,2c0.4,0.6,0.6,1.4,0.6,2.4v0.9c0,1.3-0.2,2.6-0.7,3.9l0.2,0.9v1.1c0,0.9-0.2,3-0.6,6.5
			c0,1.1,0.2,2.7,0.6,5c-0.5,3.6-0.8,5.4-0.9,5.4l1.5,14.8v0.9c0,1.2-1.2,1.9-3.7,2.2c-1.2,0.6-3,0.9-5.2,0.9h-0.9
			c-2.1,0-3.3-0.7-3.7-2c-0.9-0.6-1.3-2.3-1.3-5l-1.1-14.6c0-0.8,0.1-2.9,0.4-6.1l-0.4-7c0.2-3.4,0.7-7.6,1.3-12.8
			c0.1-1.7,0.2-3.6,0.2-5.6v-1.6c0-1,1.1-1.9,3.3-2.8c0.6-0.1,1.4-0.2,2.2-0.2L299,549.6L299,549.6z"/>
		<path class="st0" d="M328.6,532.7c0.1,0,0.2,0,0.2-0.2c1.2,0,2.5,0.5,3.7,1.5c1.4,0,2.5,0.8,3,2.4c1,0.4,1.7,1.4,2.2,3.1
			c1.1,2.3,1.7,4.2,1.7,5.6v0.7c0,0.4-0.2,1.1-0.6,2l0.4,0.7c-0.1,1.5-0.2,2.4-0.2,2.6c0.4,3.9,0.6,6.1,0.7,6.5l-0.2,0.4
			c0.1,0.2,0.2,0.5,0.2,0.7l-0.2,0.4c0,0.1,0,0.2,0.2,0.2c0,3.1-1.7,4.6-5.2,4.6c-0.2,0.1-0.6,0.2-1.1,0.2c-3-0.7-4.4-1.7-4.4-3
			c-0.6-0.9-0.9-2.1-0.9-3.5c0.1-0.2,0.2-0.4,0.2-0.6c0-0.1,0-0.2-0.2-0.2l0.2-0.9v-0.2c0-1-0.2-2.8-0.6-5.4c0.1-2.2,0.2-4,0.2-5.4
			c-0.2-1.6-0.6-2.4-1.1-2.4l-1.7,6.7l0.4,2.8c-1,3.2-1.5,6.3-1.5,9.3c-0.2,0.7-0.6,2.9-1.1,6.5h0.2c-0.4,1.9-0.6,3.8-0.6,5.9h-0.2
			c0,0.1,0,0.2,0.2,0.2c-0.1,1.5-0.3,2.5-0.4,2.8c0,0.1,0,0.2,0.2,0.2l-0.2,0.9v1.7c0,1.9,0.1,3.2,0.4,3.9h-0.2c0.1,0,0.2,1,0.4,3
			c-0.1,1.2-0.2,2-0.2,2.2c0,0.4,0.4,1.6,1.3,3.5c0,1.9,0.2,2.8,0.6,2.8c1.7-2,2.6-3.7,2.6-5.2c0.2-1.2,0.4-2.8,0.4-4.8
			c0-1.9-0.2-3.7-0.7-5.7V579c0-1.7,2.6-2.9,7.8-3.7h1.1l0.4,0.2v-0.2c2.1,0.6,3.1,1.7,3.1,3.1c0,1.1,0.3,2.7,0.9,4.8v1.1
			c0,0.3,0,0.5-0.2,0.7c0.5,1,0.7,1.7,0.7,2v0.2l-0.2,1.1l0.4,0.9l-0.2,0.7l0.2,2.6c0,2.1-1,4.7-3,8l-3.7,1.9c0,0.5-0.8,1.1-2.4,1.9
			c-0.2,0.9-2.4,1.5-6.5,1.9c0,0.1-0.7,0.3-2.2,0.6h-0.9c-2,0-3.7-1.1-5.2-3.1c-1.5,0-3.3-5.6-5.4-16.7c-0.6-3.8-0.9-8.2-0.9-13
			v-4.3l0.2-1.3h-0.2c0.1-0.2,0.2-0.4,0.2-0.6c0-2.9,0.5-6.9,1.5-12.2c-0.1-0.2-0.2-0.5-0.2-0.7c0-0.1,0-0.2,0.2-0.2
			c0-0.1,0-0.2-0.2-0.2c1-7.1,2.4-12.1,4.1-15c2.3-3.4,4.3-5.5,6.1-6.1c1.3-0.5,3.3-0.8,6.1-0.9L328.6,532.7z"/>
		<path class="st0" d="M370.3,530.8c2.8,0,4.5,0.6,5,1.8c0.9,0.8,1.3,3.3,1.3,7.6c0.9,3.1,1.3,5.6,1.3,7.4c0,0.5-0.1,1.7-0.4,3.7
			c0.2,2.4,0.5,6.1,0.7,11.3c0.1,0,0.2,0.1,0.2,0.4c-0.7,4.1-1.1,6.2-1.1,6.3c0,0.1,0,0.5,0.2,1.1c0,0.8,0,1.9-0.2,3.1
			c0.1,1.5,0.2,3,0.2,4.4l-0.7,3.5c0.4,1.9,0.6,3.4,0.6,4.6v2.6c0,2-0.2,3.3-0.6,4.1c0.1,0.7,0.2,1.2,0.2,1.5c0,2.5-0.1,4.5-0.4,5.9
			c0.4,1,0.6,2,0.6,3.1v0.4c0,1.1-1.3,1.8-3.9,2c-0.6,0-1.5,0-2.8,0.2c-2.4,0-3.9-0.9-4.4-2.6c-1.2-3.2-1.9-6.2-1.9-9.1v-0.4
			c0-0.2-0.1-0.4-0.4-0.4c-2.5,0-3.7,0.2-3.7,0.7v0.2c0,0.7,0.2,2.6,0.7,5.9c-0.2,3.3-0.9,5-2,5c-0.7,0.7-1.4,1.1-2,1.1h-0.9
			c-0.3,0-0.5,0-0.7-0.2c-0.2,0-0.9,0.5-2,1.5c-0.7,0.1-1.2,0.2-1.7,0.2H350c-3.2,0-4.8-2.1-4.8-6.3c-0.9-5.3-1.3-11.1-1.3-17.4
			c0.4-1.2,0.6-7.2,0.6-17.8v-1.3c0-2,0.3-5.6,0.9-10.5c0.4-6.2,0.6-9.9,0.6-10.9l-0.7-6.5c0-1.2,1.5-2,4.4-2.4c0.4,0,0.8,0,1.3,0.2
			c0.5-0.1,1-0.2,1.5-0.2c2.1,0,3.1,1,3.1,3c0.6,0,1,1.5,1.3,4.4c0,0,0,0.9-0.2,2.4c0.6,3.5,0.9,6.4,0.9,8.9v0.2
			c0,1.6-0.1,2.7-0.4,3.3c0.1,0.6,0.2,2.5,0.4,5.6c-0.1,2.5-0.2,3.8-0.2,4.1c0,1.5,0.4,5.2,1.3,11.1c0,2.8,0.3,6.2,0.9,10.2h0.2
			c1.6-0.4,2.6-0.6,3.1-0.6h0.6l0.2-0.9c0-2.9,0-6-0.2-9.4c0.5-3.5,0.8-6.3,0.9-8.5c-0.2-2.1-0.4-3.7-0.4-4.8
			c0.4-6.1,0.6-16.5,0.6-31.1c0-0.9,1.5-1.5,4.4-1.8L370.3,530.8L370.3,530.8z"/>
		<path class="st0" d="M399.8,535.5c0,2-1.3,4.2-3.9,6.5c0,0.2-2,0.5-6.2,0.9c-4.2-0.1-6.5-1.3-7-3.8l-0.5-3.2
			c0.3-1.2,0.9-2.5,1.8-3.7c2.7-0.9,5.6-1.3,8.5-1.3C397.4,530.9,399.8,532.4,399.8,535.5z M390.8,549.6c3.8,0,6.1,1.6,6.7,4.8
			c0.6,2.5,0.9,4.5,0.9,5.9c0,0.3-0.2,1-0.6,2c0.4,0.6,0.6,1.4,0.6,2.4v0.9c0,1.3-0.2,2.6-0.7,3.9l0.2,0.9v1.1c0,0.9-0.2,3-0.6,6.5
			c0,1.1,0.2,2.7,0.6,5c-0.5,3.6-0.8,5.4-0.9,5.4l1.5,14.8v0.9c0,1.2-1.2,1.9-3.7,2.2c-1.2,0.6-3,0.9-5.2,0.9h-0.9
			c-2.1,0-3.3-0.7-3.7-2c-0.9-0.6-1.3-2.3-1.3-5l-1.1-14.6c0-0.8,0.1-2.9,0.4-6.1l-0.4-7c0.2-3.4,0.7-7.6,1.3-12.8
			c0.1-1.7,0.2-3.6,0.2-5.6v-1.6c0-1,1.1-1.9,3.3-2.8c0.6-0.1,1.4-0.2,2.2-0.2L390.8,549.6L390.8,549.6z"/>
		<path class="st0" d="M432.6,532.7c2,0,3,0.7,3,2c0.2,0,0.4,1.3,0.6,4.1c0.7,1.6,1.2,2.9,1.5,3.9l-0.4,8.7c0.4,1.8,0.6,4,0.6,6.7
			v0.2c0,1.6-0.2,2.8-0.6,3.7c0.2,1.2,0.4,2.9,0.4,5v0.2c0,2.2-0.2,3.7-0.6,4.8c0.1,1.1,0.2,1.8,0.2,2c0,5.3-0.2,8.9-0.7,10.7
			c0.1,2.5,0.2,4,0.2,4.8c0,0.4-0.2,1.7-0.6,3.9l0.2,2.6c0,3.4-3.4,5.8-10.2,7.2c-1.9,0-3.7-1.3-5.2-3.9c-0.5-2-1.7-6-3.7-11.8
			l-2.8-9.8h-0.2c-0.1,1.2-0.2,2.2-0.2,2.8v0.7c0.2,6.5,0.4,10,0.4,10.7c-0.3,5.2-0.6,8-0.9,8.5c-1.7,1.1-3.2,1.7-4.6,1.7
			c-4.3,0-6.5-2.4-6.5-7c0.4-5.3,0.6-8.4,0.6-9.1c-0.5-3.7-0.7-6.1-0.7-7.4c0-0.4,0.1-1.2,0.4-2.6l-0.2-1.1c0.1-1.2,0.2-2.3,0.2-3
			c0-1.2-0.1-2.7-0.4-4.8c0.6-6.8,1.1-13.7,1.5-20.7c-0.1-2.5-0.2-4.2-0.2-5.2c0-3.1,0.6-4.6,1.9-4.6c0.7-0.4,1.7-0.6,2.8-0.6
			c5,0,7.4,0.6,7.4,1.7c0.2,0.8,1,1.9,2.4,3.5c0.6,1,1.1,2.5,1.7,4.3c1.2,1.4,1.9,3.4,1.9,5.9c1.5,1.4,2.2,3.7,2.2,6.7
			c1,1.3,1.8,4.5,2.4,9.4c0.4,0.1,0.6,0.8,0.6,2h0.2c0-0.9,0.3-4.4,0.9-10.5c0-3.2,0-5,0.2-5.6c-0.1-0.6-0.2-1.4-0.2-2.4v-1.1
			c0-0.6,0-1.2,0.2-1.7c-0.1-0.6-0.2-1.2-0.2-1.8V544c0.4-2.7,0.6-4.5,0.6-5.4v-3.9c0-1.1,1.1-1.8,3.3-2L432.6,532.7L432.6,532.7z
			 M426.5,570.2v0.6h0.2v-0.6H426.5z"/>
		<path class="st0" d="M467.9,530.8c2.8,0,4.5,0.6,5,1.8c0.9,0.8,1.3,3.3,1.3,7.6c0.9,3.1,1.3,5.6,1.3,7.4c0,0.5-0.1,1.7-0.4,3.7
			c0.2,2.4,0.5,6.1,0.7,11.3c0.1,0,0.2,0.1,0.2,0.4c-0.7,4.1-1.1,6.2-1.1,6.3c0,0.1,0,0.5,0.2,1.1c0,0.8,0,1.9-0.2,3.1
			c0.1,1.5,0.2,3,0.2,4.4l-0.7,3.5c0.4,1.9,0.6,3.4,0.6,4.6v2.6c0,2-0.2,3.3-0.6,4.1c0.1,0.7,0.2,1.2,0.2,1.5c0,2.5-0.1,4.5-0.4,5.9
			c0.4,1,0.6,2,0.6,3.1v0.4c0,1.1-1.3,1.8-3.9,2c-0.6,0-1.5,0-2.8,0.2c-2.4,0-3.9-0.9-4.4-2.6c-1.2-3.2-1.9-6.2-1.9-9.1v-0.4
			c0-0.2-0.1-0.4-0.4-0.4c-2.5,0-3.7,0.2-3.7,0.7v0.2c0,0.7,0.2,2.6,0.7,5.9c-0.2,3.3-0.9,5-2,5c-0.7,0.7-1.4,1.1-2,1.1h-0.9
			c-0.3,0-0.5,0-0.7-0.2c-0.2,0-0.9,0.5-2,1.5c-0.7,0.1-1.2,0.2-1.7,0.2h-1.5c-3.2,0-4.8-2.1-4.8-6.3c-0.9-5.3-1.3-11.1-1.3-17.4
			c0.4-1.2,0.6-7.2,0.6-17.8v-1.3c0-2,0.3-5.6,0.9-10.5c0.4-6.2,0.6-9.9,0.6-10.9l-0.7-6.5c0-1.2,1.5-2,4.4-2.4c0.4,0,0.8,0,1.3,0.2
			c0.5-0.1,1-0.2,1.5-0.2c2.1,0,3.1,1,3.1,3c0.6,0,1,1.5,1.3,4.4c0,0,0,0.9-0.2,2.4c0.6,3.5,0.9,6.4,0.9,8.9v0.2
			c0,1.6-0.1,2.7-0.4,3.3c0.1,0.6,0.2,2.5,0.4,5.6c-0.1,2.5-0.2,3.8-0.2,4.1c0,1.5,0.4,5.2,1.3,11.1c0,2.8,0.3,6.2,0.9,10.2h0.2
			c1.6-0.4,2.6-0.6,3.1-0.6h0.6l0.2-0.9c0-2.9,0-6-0.2-9.4c0.5-3.5,0.8-6.3,0.9-8.5c-0.2-2.1-0.4-3.7-0.4-4.8
			c0.4-6.1,0.6-16.5,0.6-31.1c0-0.9,1.5-1.5,4.4-1.8L467.9,530.8L467.9,530.8z"/>
		<path class="st0" d="M507,546.9c1.7,4.2,2.6,8.6,2.6,13.3c0.1,0,0.2,0.3,0.2,0.9c0,0.2-0.2,1.5-0.7,3.9c0.6,3,0.9,6.5,0.9,10.4
			v0.4c0,2.6-0.4,6.1-1.1,10.4c0,2.5-1.1,5.5-3.1,8.7c-0.6,2.7-1.5,4.1-3,4.1c-0.6,1.6-1.9,2.4-3.9,2.4c-0.8,0-2.3-0.2-4.6-0.7
			c-2.3,0.5-3.8,0.7-4.6,0.7H489c-3.2,0-5.5-2.2-6.8-6.7c-1.3-2.5-2.5-6.2-3.5-11.3c0-0.9,0-1.3-0.2-1.5l0.4-3.5
			c-0.1-2-0.2-3.8-0.2-5.4v-0.7c0-5.6,0.3-8.5,0.9-8.7c-0.1-0.2-0.2-0.4-0.2-0.6c0-1.1,0.6-3.7,1.7-8c0-1.6,1.2-5.9,3.7-13
			c1.2-1.4,2.3-2.2,3.3-2.4c2.9-1.1,5.9-1.7,9.1-1.7C502,538,505.4,541,507,546.9z M495,547.5c-0.5,1.8-1.1,5.2-1.7,10.2v3.1
			c0,0.4-0.2,0.8-0.6,1.3v0.7c0,3.2-0.1,5.3-0.4,6.1c0.1,0.8,0.2,1.5,0.2,2v1.9c0,4.4,0.7,10.1,2,17.2h0.2c1.1-1.5,2-4.6,2.8-9.3
			c0.5-3.7,0.7-7.4,0.7-11.1c0-1.9-0.2-5-0.7-9.4v-0.9c0-0.5,0-1.2,0.2-2c-1-4-1.9-7.3-2.6-9.8L495,547.5L495,547.5z"/>
		<path class="st0" d="M539.6,544.1c0.5,1.5,0.9,4.5,1.1,8.9c0,1.3-1.9,2-5.6,2c-2.5-0.5-4.1-1.2-4.8-2.2c-0.5-0.8-1.1-2.7-1.9-5.6
			c-2.4-3.1-4.1-4.6-5.2-4.6v1.3c0,1.8,0.7,4.5,2,8.1c4,6.9,6.8,12.7,8.5,17.4c0.4,2.1,1.1,4.9,2.2,8.3c0.6,3.3,0.9,5,0.9,5.2v1.3
			c0,1.6,0.1,3.7,0.4,6.3c-0.4,1.2-0.6,3.1-0.7,5.7c-1.2,3-2.9,5.8-5.2,8.3c-0.8,1.5-2.5,2.2-5.2,2.2c-0.7,0-1.2,0-1.3,0.2
			c-4.6,0-7.6-1.8-9.1-5.4c-1.5-1.9-2.5-4-3-6.3c-0.9-1.2-1.3-2.6-1.3-4.1v-1.3c0-2.4,1.2-3.5,3.7-3.5c0-0.2,0.4-0.3,1.3-0.4
			c2.8,0,5,2.4,6.5,7c0.8,3.1,1.6,5,2.4,5.6h0.2c0.4-2.1,0.6-4,0.7-5.6c-0.3-4.6-1-8.1-1.9-10.5v-2.2c-0.7-0.4-1.4-2.2-2-5.4
			c-1.6-2.7-2.6-5-3-6.8c-3.4-5.5-5.4-10.1-5.9-13.7c-0.7-3.6-1.1-5.6-1.1-6.1v-2c0-0.3,0-0.5,0.2-0.7c-0.1-0.2-0.2-1.2-0.4-2.8
			c0.8-2.9,2.2-5,4.1-6.1c3-2.4,6.2-3.5,9.8-3.5C531.6,533.1,536,536.8,539.6,544.1z"/>
	</g>
</g>
</svg>
