<?xml version="1.0" encoding="utf-8"?>
<!-- Generator: Adobe Illustrator 19.1.0, SVG Export Plug-In . SVG Version: 6.00 Build 0)  -->
<svg version="1.1" id="Camada_1" xmlns="http://www.w3.org/2000/svg" xmlns:xlink="http://www.w3.org/1999/xlink" x="0px" y="0px"
	 viewBox="0 0 411.2 411.2" style="enable-background:new 0 0 411.2 411.2;" xml:space="preserve">
<style type="text/css">
	.st0{fill:#0074FF;}
</style>
<g>
	<g>
		<path class="st0" d="M42.5,26.9c1.4,3.4,2.1,7,2.1,10.8c0.1,0,0.2,0.3,0.2,0.8c0,0.2-0.2,1.2-0.6,3.2c0.5,2.4,0.8,5.3,0.8,8.4v0.3
			c0,2.1-0.3,4.9-0.9,8.4c0,2.1-0.9,4.4-2.6,7.1c-0.5,2.2-1.2,3.3-2.4,3.3c-0.5,1.3-1.5,2-3.2,2c-0.6,0-1.9-0.2-3.8-0.6
			c-1.9,0.4-3.1,0.6-3.8,0.6h-0.6c-2.6,0-4.4-1.8-5.6-5.4c-1.1-2-2-5.1-2.9-9.2c0-0.7,0-1.1-0.1-1.2l0.3-2.9
			c-0.1-1.6-0.2-3.1-0.2-4.4v-0.6c0-4.5,0.3-6.9,0.8-7.1C20,40.2,20,40,20,39.9c0-0.9,0.5-3,1.4-6.5c0-1.3,1-4.8,3-10.5
			c0.9-1.1,1.8-1.8,2.7-2c2.4-0.9,4.8-1.4,7.4-1.4C38.5,19.7,41.2,22.1,42.5,26.9z M32.8,27.3c-0.4,1.5-0.9,4.2-1.4,8.3v2.6
			c0,0.3-0.1,0.7-0.5,1.1v0.6c0,2.6-0.1,4.3-0.3,5c0.1,0.7,0.1,1.2,0.1,1.7v1.5c0,3.6,0.6,8.2,1.7,14h0.1c0.9-1.2,1.6-3.7,2.3-7.5
			c0.4-3,0.6-6,0.6-9c0-1.5-0.2-4.1-0.6-7.7v-0.8c0-0.4,0-1,0.1-1.7c-0.8-3.2-1.5-5.9-2.1-8H32.8z"/>
		<path class="st0" d="M89.8,23.2c2.3,7.8,3.5,13.3,3.5,16.5c-0.1,1.8-0.1,2.9-0.1,3.3c0.4,0.7,0.6,1.3,0.6,1.8v1.1l-0.2,0.9
			c0.3,1.4,0.5,2.8,0.5,4.4c-0.1,2.3-0.3,3.6-0.5,3.9c0.1,0.7,0.2,1.2,0.2,1.7v0.2c-0.4,6.6-0.9,10.3-1.7,11.1
			c0,1.8-1.2,2.7-3.8,2.7c-4.1,3-7.2,4.5-9.3,4.5h-0.6c-4,0-7.5-2.6-10.5-7.7c-1-1.4-1.8-5.5-2.4-12.3c0.4-4.7,0.7-7.6,0.9-8.7
			c0.8-1.6,2.2-2.4,4.2-2.4h0.2c4.2,0,6.5,1.7,7.1,5c0,2.4,0.5,5.8,1.5,10.4v1.4c1.6,2.3,2.4,3.8,2.4,4.4h0.1
			c0.2-1.8,0.3-3.4,0.3-4.7v-3.9c0-1.1,0.1-2.5,0.3-4.2c0-0.5,0-1.2-0.1-2.3c0.1-1.4,0.1-2.5,0.1-3.5c0-0.5-0.1-2-0.5-4.5
			c0-0.6,0-1.1,0.2-1.7C82,39.1,82,37.7,82,36.4V34c-0.3-2.7-0.6-6-0.8-10.1v-0.8c-0.5-2.8-0.8-4.5-0.8-5.1c0-0.8,1.1-1.4,3.3-1.8
			C86.8,16.3,88.8,18.6,89.8,23.2z"/>
		<path class="st0" d="M106.9,18.7c0.4-0.2,1.1-0.3,1.9-0.3c2.6,0.3,5,0.5,7.3,0.6c1.5,0.8,2.2,1.8,2.2,3c-1.3,2.7-3.9,4-7.8,4h-1.8
			l-0.7,0.2v-0.2l-0.3,0.2c-0.2-0.1-0.4-0.2-0.6-0.2c-0.3,0.8-0.5,1.5-0.5,2.1v0.3c0,0.8,0,1.7,0.2,3l-0.7,2
			c0.1,1.4,0.3,2.1,0.6,2.1s0.9,0,2.2-0.1c3.8,0.9,5.7,1.5,5.7,1.8c0.6,0.5,0.9,1.1,0.9,1.7c-0.6,1.5-1.8,2.3-3.6,2.3
			c-0.3,0-1.8,0.5-4.4,1.4h-0.6l0.1,0.3c0,0.3,0,0.4-0.1,0.4c0.1,1.1,0.1,1.9,0.1,2.4v2.1c0,0.6-0.1,2.1-0.3,4.4
			c0.1,0.8,0.3,1.4,0.6,2l-0.1,1.7v1.4c0,3.5,0.2,6,0.6,7.4c-0.1,1-0.2,1.7-0.2,2.3v0.3c0,0.6,0.3,0.9,1,0.9c1.8,0,3.6-0.1,5.4-0.3
			c2.3,0,3.5,0.6,3.5,1.7c-1,2.8-4.3,4.1-9.9,4c-4.4,0.3-7.5-0.1-9.4-1.3c-1.1-5-1.7-9.9-1.7-14.8c0-1.5,0.1-3.3,0.3-5.5
			c-0.2-0.7-0.4-2.2-0.6-4.7l0.3-3.3c-0.1-0.2-0.2-1.8-0.3-4.8l0.7-9.2c-0.2-0.6-0.3-1-0.3-1.3V28c0-0.5,0-0.9,0.2-1.4
			c-0.1-0.6-0.2-1.1-0.3-1.3c0.1-0.8,0.1-1.5,0.1-2v-3c0-0.8,1.1-1.6,3.2-2.4c1.1,0,1.6,0,1.6-0.2C104.3,18.1,106.1,18.4,106.9,18.7
			z"/>
		<path class="st0" d="M135,17.6c0,1.6-1.1,3.4-3.2,5.3c0,0.2-1.7,0.4-5,0.7c-3.4-0.1-5.3-1.1-5.7-3.1l-0.4-2.6c0.2-1,0.7-2,1.5-3
			c2.2-0.7,4.5-1.1,6.9-1.1C133,13.8,135,15.1,135,17.6z M127.6,29c3.1,0,4.9,1.3,5.4,3.9c0.5,2.1,0.8,3.7,0.8,4.8
			c0,0.3-0.1,0.8-0.5,1.7c0.3,0.5,0.5,1.1,0.5,2v0.8c0,1.1-0.2,2.1-0.6,3.2l0.2,0.8v0.9c0,0.7-0.2,2.4-0.5,5.3
			c0,0.9,0.2,2.2,0.5,4.1c-0.4,2.9-0.6,4.4-0.8,4.4l1.2,12v0.8c0,0.9-1,1.5-3,1.8c-1,0.5-2.4,0.8-4.2,0.8h-0.8c-1.7,0-2.7-0.6-3-1.7
			c-0.7-0.5-1.1-1.8-1.1-4.1l-0.9-11.9c0-0.7,0.1-2.3,0.3-5l-0.3-5.7c0.2-2.7,0.6-6.2,1.1-10.4c0.1-1.4,0.1-2.9,0.1-4.5v-1.4
			c0-0.8,0.9-1.5,2.7-2.3c0.5-0.1,1.1-0.2,1.8-0.2H127.6z"/>
		<path class="st0" d="M153.9,14.9c3.2,0.5,5.8,0.9,7.8,1.1c1,1.2,1.5,2,1.5,2.6c0,2-1.2,3.4-3.5,4.2c-1.3,0.4-2.6,0.6-3.8,0.6h-4.2
			c-0.1,0.6-0.1,0.9-0.1,1.2c0.7,3,1.1,4.8,1.1,5.4c-0.1,0.8-0.3,1.4-0.5,1.8c0.4,0.7,0.7,1.5,0.9,2.3l-0.3,2.3l0.6,6.8
			c-0.2,1-0.3,1.7-0.3,2c0.3,1.7,0.5,2.7,0.5,3.2c-0.2,1.5-0.3,2.6-0.3,3.3v0.6c0.2,3.9,0.3,6,0.3,6.3l-0.1,1.4
			c0.5,1.6,0.8,3,0.8,4.4v0.3c-0.3,2.2-0.5,3.6-0.5,4.1c0.6,2.6,0.9,4.2,0.9,4.8c0,1.3-2.4,2.2-7.1,2.7c-1.8,0-3-0.4-3.5-1.2
			c-1.3-2-2-7.2-2-15.5c-0.1,0-0.1-0.4-0.1-1.2c0.1-1.2,0.2-1.8,0.3-1.8l-0.2-1.5v-2.9c0-1.9-0.1-3.6-0.5-5l0.3-2.6
			c-0.5-3.6-0.9-10.8-1.2-21.6c-0.9-0.2-3-0.5-6.2-0.9c-0.6-0.5-0.9-0.9-0.9-1.5c0.2-2.4,1.4-3.7,3.6-3.8c4-0.7,7.7-1.2,11-1.3
			c0-0.1,0.2-0.2,0.5-0.2c0.2,0,0.4,0,0.6,0.2c0.9-0.1,1.5-0.2,2.1-0.2h1.5L153.9,14.9z"/>
		<path class="st0" d="M177.3,17.6c0,1.6-1.1,3.4-3.2,5.3c0,0.2-1.7,0.4-5,0.7c-3.4-0.1-5.3-1.1-5.7-3.1l-0.4-2.6c0.2-1,0.7-2,1.5-3
			c2.2-0.7,4.5-1.1,6.9-1.1C175.3,13.8,177.3,15.1,177.3,17.6z M169.9,29c3.1,0,4.9,1.3,5.4,3.9c0.5,2.1,0.8,3.7,0.8,4.8
			c0,0.3-0.1,0.8-0.5,1.7c0.3,0.5,0.5,1.1,0.5,2v0.8c0,1.1-0.2,2.1-0.6,3.2l0.2,0.8v0.9c0,0.7-0.2,2.4-0.5,5.3
			c0,0.9,0.2,2.2,0.5,4.1c-0.4,2.9-0.6,4.4-0.8,4.4l1.2,12v0.8c0,0.9-1,1.5-3,1.8c-1,0.5-2.4,0.8-4.2,0.8h-0.8c-1.7,0-2.7-0.6-3-1.7
			c-0.7-0.5-1.1-1.8-1.1-4.1l-0.9-11.9c0-0.7,0.1-2.3,0.3-5l-0.3-5.7c0.2-2.7,0.6-6.2,1.1-10.4c0.1-1.4,0.1-2.9,0.1-4.5v-1.4
			c0-0.8,0.9-1.5,2.7-2.3c0.5-0.1,1.1-0.2,1.8-0.2H169.9z"/>
		<path class="st0" d="M203.9,15.3c1.6,0,2.4,0.6,2.4,1.7c0.2,0,0.3,1.1,0.5,3.3c0.6,1.3,1,2.4,1.2,3.2l-0.3,7.1
			c0.3,1.4,0.5,3.2,0.5,5.4V36c0,1.3-0.2,2.3-0.5,3c0.2,1,0.3,2.3,0.3,4.1v0.2c0,1.8-0.1,3-0.5,3.9c0.1,0.9,0.2,1.4,0.2,1.7
			c0,4.3-0.2,7.2-0.6,8.7c0.1,2,0.1,3.3,0.1,3.9c0,0.3-0.1,1.4-0.5,3.2l0.2,2.1c0,2.8-2.7,4.7-8.3,5.9c-1.6,0-3-1.1-4.2-3.2
			c-0.4-1.6-1.4-4.8-3-9.6l-2.3-8H189c-0.1,1-0.2,1.8-0.2,2.3v0.6c0.2,5.3,0.3,8.1,0.3,8.7c-0.2,4.2-0.5,6.5-0.8,6.9
			c-1.4,0.9-2.6,1.4-3.8,1.4c-3.5,0-5.3-1.9-5.3-5.7c0.3-4.3,0.5-6.8,0.5-7.4c-0.4-3-0.6-5-0.6-6c0-0.3,0.1-1,0.3-2.1l-0.1-0.9
			c0.1-1,0.1-1.8,0.1-2.4c0-0.9-0.1-2.2-0.3-3.9c0.5-5.5,0.9-11.1,1.2-16.8c-0.1-2-0.2-3.4-0.2-4.2c0-2.5,0.5-3.8,1.5-3.8
			c0.6-0.3,1.4-0.5,2.3-0.5c4,0,6,0.5,6,1.4c0.2,0.6,0.8,1.6,2,2.9c0.5,0.8,0.9,2,1.4,3.5c1,1.1,1.5,2.7,1.5,4.8
			c1.2,1.2,1.8,3,1.8,5.4c0.8,1.1,1.5,3.6,2,7.7c0.3,0.1,0.5,0.6,0.5,1.7h0.2c0-0.7,0.3-3.6,0.8-8.6c0-2.6,0-4.1,0.1-4.5
			c-0.1-0.5-0.1-1.2-0.1-2v-0.9c0-0.5,0-1,0.1-1.4c-0.1-0.5-0.1-1-0.1-1.5v-2c0.3-2.2,0.5-3.7,0.5-4.4V17c0-0.9,0.9-1.4,2.7-1.7
			H203.9z M199,45.8v0.5h0.2v-0.5H199z"/>
		<path class="st0" d="M232.5,13.8c2.3,0,3.6,0.5,4.1,1.5c0.7,0.6,1.1,2.7,1.1,6.2c0.7,2.5,1.1,4.5,1.1,6c0,0.4-0.1,1.4-0.3,3
			c0.2,1.9,0.4,5,0.6,9.2c0.1,0,0.1,0.1,0.1,0.3c-0.6,3.3-0.9,5-0.9,5.1s0,0.4,0.2,0.9c0,0.6,0,1.5-0.2,2.6c0.1,1.2,0.2,2.4,0.2,3.6
			l-0.6,2.9c0.3,1.5,0.5,2.7,0.5,3.8v2.1c0,1.6-0.1,2.7-0.5,3.3c0.1,0.6,0.1,0.9,0.1,1.2c0,2-0.1,3.6-0.3,4.8
			c0.3,0.8,0.5,1.7,0.5,2.6V73c0,0.9-1.1,1.4-3.2,1.7c-0.5,0-1.2,0-2.3,0.2c-2,0-3.2-0.7-3.6-2.1c-1-2.6-1.5-5.1-1.5-7.4V65
			c0-0.2-0.1-0.3-0.3-0.3c-2,0-3,0.2-3,0.6v0.2c0,0.6,0.2,2.1,0.6,4.8c-0.2,2.7-0.7,4.1-1.7,4.1c-0.6,0.6-1.1,0.9-1.7,0.9h-0.8
			c-0.2,0-0.4,0-0.6-0.2c-0.1,0-0.7,0.4-1.7,1.2c-0.6,0.1-1,0.2-1.4,0.2H216c-2.6,0-3.9-1.7-3.9-5.1c-0.7-4.3-1.1-9-1.1-14.1
			c0.3-1,0.5-5.8,0.5-14.4v-1.1c0-1.7,0.3-4.5,0.8-8.6c0.3-5.1,0.5-8,0.5-8.9l-0.6-5.3c0-1,1.2-1.6,3.6-2c0.3,0,0.6,0,1.1,0.2
			c0.4-0.1,0.8-0.2,1.2-0.2c1.7,0,2.6,0.8,2.6,2.4c0.5,0,0.8,1.2,1.1,3.6c0,0,0,0.7-0.2,2c0.5,2.8,0.8,5.2,0.8,7.2v0.2
			c0,1.3-0.1,2.2-0.3,2.7c0.1,0.5,0.2,2,0.3,4.5c-0.1,2-0.2,3.1-0.2,3.3c0,1.2,0.3,4.2,1.1,9c0,2.3,0.3,5.1,0.8,8.3h0.2
			c1.3-0.3,2.1-0.5,2.6-0.5h0.5l0.1-0.8c0-2.3,0-4.9-0.1-7.7c0.4-2.8,0.6-5.1,0.8-6.9c-0.2-1.7-0.3-3-0.3-3.9
			c0.3-5,0.5-13.4,0.5-25.2c0-0.7,1.2-1.2,3.6-1.5H232.5z"/>
		<path class="st0" d="M264.3,26.9c1.4,3.4,2.1,7,2.1,10.8c0.1,0,0.1,0.3,0.1,0.8c0,0.2-0.2,1.2-0.6,3.2c0.5,2.4,0.8,5.3,0.8,8.4
			v0.3c0,2.1-0.3,4.9-0.9,8.4c0,2.1-0.9,4.4-2.6,7.1c-0.5,2.2-1.2,3.3-2.4,3.3c-0.5,1.3-1.5,2-3.2,2c-0.6,0-1.9-0.2-3.8-0.6
			c-1.9,0.4-3.1,0.6-3.8,0.6h-0.6c-2.6,0-4.4-1.8-5.6-5.4c-1.1-2-2-5.1-2.9-9.2c0-0.7,0-1.1-0.1-1.2l0.3-2.9
			c-0.1-1.6-0.2-3.1-0.2-4.4v-0.6c0-4.5,0.3-6.9,0.8-7.1c-0.1-0.2-0.2-0.3-0.2-0.5c0-0.9,0.5-3,1.4-6.5c0-1.3,1-4.8,3-10.5
			c0.9-1.1,1.8-1.8,2.7-2c2.4-0.9,4.8-1.4,7.4-1.4C260.2,19.7,262.9,22.1,264.3,26.9z M254.5,27.3c-0.4,1.5-0.9,4.2-1.4,8.3v2.6
			c0,0.3-0.1,0.7-0.5,1.1v0.6c0,2.6-0.1,4.3-0.3,5c0.1,0.7,0.1,1.2,0.1,1.7v1.5c0,3.6,0.6,8.2,1.7,14h0.1c0.9-1.2,1.6-3.7,2.3-7.5
			c0.4-3,0.6-6,0.6-9c0-1.5-0.2-4.1-0.6-7.7v-0.8c0-0.4,0-1,0.1-1.7c-0.8-3.2-1.5-5.9-2.1-8H254.5z"/>
		<path class="st0" d="M302.3,24.3c1,2,2.1,4.9,3.3,8.9h0.1c3.3-7.8,5.3-12,6.2-12.8c1.3-1.1,3.4-1.7,6.2-1.7h0.6
			c0.8,0,1.2,0.6,1.2,2c0,0.3,0.2,1.6,0.5,3.9c0,0.6-0.1,1.7-0.3,3l1.2,14.7v2.3c0,0.4,0,1-0.2,1.7c0.3,0.6,0.5,1.3,0.6,2
			c-0.4,1.3-0.6,2.3-0.6,3v0.6c0.6,3.9,0.9,6.9,0.9,9.2c0,7.4-0.3,11.1-0.8,11.1c-1,1-1.9,1.5-2.7,1.5c-2.2,0-4.2-1.2-5.9-3.6v-5.4
			c0-0.6,0-1.3,0.2-2l-0.3-4.2c0.1-0.8,0.2-1.6,0.2-2.4l-0.6-7.7l0.3-3v-0.2h-0.1c-0.8,4.2-1.5,6.6-2.3,7.5
			c-0.6,0.5-1.4,0.9-2.4,1.2c-3.3,0-5-0.4-5-1.2c-0.4-0.9-0.9-2.9-1.4-6h-0.2V47c0.1,1.7,0.2,2.7,0.2,3c0,2.7-0.3,6.5-0.8,11.4
			c0.3,1.2,0.5,2.1,0.5,2.6c0,0.4-0.1,1.6-0.5,3.6l0.2,0.3c0,1.6-2,2.6-6,2.9h-3.3c-1.9,0-2.9-3.1-2.9-9.3c-0.1,0-0.2-0.3-0.2-1.1
			c0.1-4.8,0.3-8.4,0.5-10.8c0-4.1-0.1-8.1-0.3-12c0-0.6,0.2-2.7,0.6-6.6v-2c0-0.3,0-0.6,0.2-0.8l-0.2-0.8c0-6.4,0.5-9.6,1.5-9.6
			c1.4-0.3,2.4-0.5,3.2-0.5C296.5,17.4,299.4,19.7,302.3,24.3z M301,46.1v0.5h0.2v-0.5H301z"/>
		<path class="st0" d="M337.8,17.4c1.7,0,3.6,2.1,5.7,6.5c0,1,0.5,2.3,1.5,3.8c0.4,2.1,0.8,3.6,1.1,4.4c0.5,1.5,0.8,2.6,0.8,3.3
			c0,0.3-0.1,0.6-0.3,0.9c0.4,0,0.8,1.5,1.1,4.7c0.8,2.4,1.2,4.7,1.2,7.1c0.3,0.8,0.5,1.8,0.6,3.2l-0.5,2.7c0.4,1.1,0.6,1.8,0.6,2.1
			c0,0.2-0.1,0.7-0.3,1.5c0.3,0.7,0.5,1.4,0.5,2c-0.1,1-0.2,1.6-0.2,1.8c0.3,0,0.6,0.9,0.9,2.7l-0.2,0.3v0.1
			c0.3,4.1,0.5,6.3,0.5,6.6v0.8c0,1.5-0.4,2.3-1.2,2.3c-0.9,0.5-2.1,0.8-3.5,0.8c-2.4,0-3.8-0.5-4.2-1.5c-2.2-4.3-3.4-9-3.8-14
			c-0.1-0.3-1.2-0.5-3.3-0.6h-0.9c-0.1,0-0.3,0.2-0.5,0.6l0.2,0.3v0.9c0,0.5-0.2,1.3-0.5,2.4c0.2,1.5,0.4,2.3,0.5,2.3
			c-0.2,0.9-0.6,2-1.4,3.3c0,1.9-0.3,3-1.1,3.3c-0.8,0.6-1.4,0.9-1.8,0.9c-2.8,0-4.5-1.2-5.1-3.5v-1.8c0-2.7,0.3-6.1,1.1-10.4
			c0-0.6,0-1.8-0.2-3.8c0.8-4.4,2-11.5,3.5-21.5c1.3-5.5,2-8.9,2-10.1c0.4-1,1.4-1.8,2.9-2.4c0.3-1.2,1.8-1.8,4.2-1.8H337.8z
			 M336.1,34.5c-0.5,4.4-1.1,8.4-1.8,12v0.3c0,0.9,0,1.8,0.2,2.7c-0.3,1.5-0.5,2.8-0.5,3.9c1,0.1,1.8,0.2,2.3,0.2h1.4v-0.2
			c0-0.5-0.1-1.6-0.3-3.3c0.3-1.6,0.5-2.9,0.5-3.9v-0.8c0-3.2-0.5-6.9-1.5-11H336.1z"/>
		<path class="st0" d="M367.5,17.6c0,1.6-1.1,3.4-3.2,5.3c0,0.2-1.7,0.4-5,0.7c-3.4-0.1-5.3-1.1-5.7-3.1l-0.4-2.6c0.2-1,0.7-2,1.5-3
			c2.2-0.7,4.5-1.1,6.9-1.1C365.6,13.8,367.5,15.1,367.5,17.6z M360.2,29c3.1,0,4.9,1.3,5.4,3.9c0.5,2.1,0.8,3.7,0.8,4.8
			c0,0.3-0.2,0.8-0.5,1.7c0.3,0.5,0.5,1.1,0.5,2v0.8c0,1.1-0.2,2.1-0.6,3.2l0.2,0.8v0.9c0,0.7-0.2,2.4-0.5,5.3
			c0,0.9,0.1,2.2,0.5,4.1c-0.4,2.9-0.6,4.4-0.8,4.4l1.2,12v0.8c0,0.9-1,1.5-3,1.8c-1,0.5-2.4,0.8-4.2,0.8h-0.8c-1.7,0-2.7-0.6-3-1.7
			c-0.7-0.5-1.1-1.8-1.1-4.1l-0.9-11.9c0-0.7,0.1-2.3,0.3-5l-0.3-5.7c0.2-2.7,0.6-6.2,1.1-10.4c0.1-1.4,0.2-2.9,0.2-4.5v-1.4
			c0-0.8,0.9-1.5,2.7-2.3c0.5-0.1,1.1-0.2,1.8-0.2H360.2z"/>
		<path class="st0" d="M391.2,24.5c0.4,1.2,0.7,3.6,0.9,7.2c0,1.1-1.5,1.7-4.5,1.7c-2-0.4-3.3-1-3.9-1.8c-0.4-0.7-0.9-2.2-1.5-4.5
			c-1.9-2.5-3.3-3.8-4.2-3.8v1.1c0,1.4,0.6,3.6,1.7,6.6c3.2,5.6,5.5,10.3,6.9,14.1c0.3,1.7,0.9,3.9,1.8,6.8c0.5,2.7,0.8,4.1,0.8,4.2
			v1.1c0,1.3,0.1,3,0.3,5.1c-0.3,1-0.5,2.5-0.6,4.7c-0.9,2.4-2.3,4.7-4.2,6.8c-0.6,1.2-2,1.8-4.2,1.8c-0.6,0-0.9,0-1.1,0.2
			c-3.8,0-6.2-1.5-7.4-4.4c-1.2-1.5-2.1-3.3-2.4-5.1c-0.7-1-1.1-2.1-1.1-3.3v-1.1c0-1.9,1-2.9,3-2.9c0-0.2,0.3-0.3,1.1-0.3
			c2.3,0,4,1.9,5.3,5.7c0.7,2.5,1.3,4,2,4.5h0.2c0.3-1.7,0.5-3.2,0.6-4.5c-0.3-3.8-0.8-6.6-1.5-8.6V54c-0.6-0.3-1.1-1.8-1.7-4.4
			c-1.3-2.2-2.1-4.1-2.4-5.6c-2.8-4.5-4.4-8.2-4.8-11.1c-0.6-2.9-0.9-4.6-0.9-5v-1.7c0-0.2,0-0.4,0.2-0.6c-0.1-0.2-0.2-0.9-0.3-2.3
			c0.6-2.4,1.8-4,3.3-5c2.4-1.9,5.1-2.9,8-2.9C384.8,15.7,388.4,18.6,391.2,24.5z"/>
	</g>
	<g>
		<path class="st0" d="M44.9,82.6c1.1-0.4,2-0.6,2.5-0.6c11.4,0,17,1.3,17,3.8c0.2,1.2,0.3,2,0.3,2.5c0,2.3-3.2,4.2-9.8,5.7
			c-2.6-0.6-4.3-0.9-5.1-0.9l-5.1,1.9c-0.4-0.2-1.3-0.4-2.8-0.6v1.3c0.2,8.8,0.6,13.2,1.3,13.3c4.2,0.1,6.3,0.2,6.3,0.6l0.6-0.3h6.3
			c4,0,6,1.5,6,4.4c0,3.8-0.9,5.7-2.8,5.7c-0.3,0.7-1.8,1.5-4.4,2.5l-4.4-0.3c-1.7,0-4,0.2-6.9,0.6c0.6,2.8,0.9,4.5,0.9,5.1
			c0,2.1-0.1,5.8-0.3,11.4c1,5,1.6,8.3,1.6,9.8l-0.3,1.3c0.4,0.8,0.6,1.7,0.6,2.5v2.2c0,1.8-0.1,3.7-0.3,5.7c0,0.4,0.6,3.9,1.6,10.4
			c-0.2,2.3-0.3,4.4-0.3,6.3c1.5,4.3,2.2,9.2,2.2,14.5c1.3,3.1,1.9,5.9,1.9,8.5v0.9c0,2.9-5.4,5-16.4,6h-0.3c-3.1,0-5-0.7-5.7-2.2
			c-2.3-5.4-3.5-11.1-3.5-17.4c-0.1-0.1-0.6-4.7-1.6-13.6c-0.4,0-0.7-3.2-0.9-9.5c0-1,0.2-3.6,0.6-7.6c-0.9-2.1-1.3-4-1.3-5.7V147
			c0-3.8,0.2-6.2,0.6-7.3c-0.6-6.9-0.9-14.1-0.9-21.5c0.4-3.7,0.6-6.1,0.6-6.9l-0.9-6.3c0-2,0.1-4.7,0.3-8.2
			c-0.2-2.8-0.3-5.1-0.3-6.9c0-4.7,3.7-6.9,11.1-6.9c0-0.2,1.6-0.5,4.7-0.9L44.9,82.6z"/>
		<path class="st0" d="M115.1,106c2.9,7.1,4.4,14.7,4.4,22.7c0.2,0,0.3,0.6,0.3,1.6c0,0.4-0.4,2.6-1.3,6.6c1,5.1,1.6,11.1,1.6,17.7
			v0.6c0,4.5-0.6,10.3-1.9,17.7c0,4.3-1.8,9.3-5.4,14.8c-0.9,4.7-2.6,6.9-5.1,6.9c-1,2.8-3.2,4.1-6.6,4.1c-1.3,0-3.9-0.4-7.9-1.3
			c-3.9,0.9-6.6,1.3-7.9,1.3h-1.3c-5.4,0-9.3-3.8-11.7-11.4c-2.3-4.2-4.3-10.7-6-19.3c0-1.5-0.1-2.3-0.3-2.5l0.6-6
			c-0.2-3.4-0.3-6.5-0.3-9.2v-1.3c0-9.6,0.6-14.5,1.6-14.8c-0.2-0.4-0.3-0.7-0.3-0.9c0-1.9,0.9-6.4,2.8-13.6
			c0-2.8,2.1-10.1,6.3-22.1c2-2.4,3.9-3.7,5.7-4.1c5-1.9,10.1-2.8,15.5-2.8C106.6,90.8,112.3,95.9,115.1,106z M94.6,106.9
			c-0.9,3.1-1.8,8.8-2.8,17.4v5.4c0,0.7-0.3,1.4-0.9,2.2v1.3c0,5.5-0.2,9-0.6,10.4c0.2,1.4,0.3,2.6,0.3,3.5v3.2
			c0,7.5,1.2,17.3,3.5,29.4h0.3c1.8-2.5,3.4-7.8,4.7-15.8c0.9-6.2,1.3-12.6,1.3-18.9c0-3.2-0.4-8.6-1.3-16.1v-1.6
			c0-0.9,0.1-2.1,0.3-3.5c-1.7-6.8-3.2-12.4-4.4-16.7H94.6z"/>
		<path class="st0" d="M147.1,82.6c1.1-0.4,2-0.6,2.5-0.6c11.4,0,17,1.3,17,3.8c0.2,1.2,0.3,2,0.3,2.5c0,2.3-3.2,4.2-9.8,5.7
			c-2.6-0.6-4.3-0.9-5.1-0.9l-5.1,1.9c-0.4-0.2-1.3-0.4-2.8-0.6v1.3c0.2,8.8,0.6,13.2,1.3,13.3c4.2,0.1,6.3,0.2,6.3,0.6l0.6-0.3h6.3
			c4,0,6,1.5,6,4.4c0,3.8-0.9,5.7-2.8,5.7c-0.3,0.7-1.8,1.5-4.4,2.5l-4.4-0.3c-1.7,0-4,0.2-6.9,0.6c0.6,2.8,0.9,4.5,0.9,5.1
			c0,2.1-0.1,5.8-0.3,11.4c1,5,1.6,8.3,1.6,9.8l-0.3,1.3c0.4,0.8,0.6,1.7,0.6,2.5v2.2c0,1.8-0.1,3.7-0.3,5.7c0,0.4,0.6,3.9,1.6,10.4
			c-0.2,2.3-0.3,4.4-0.3,6.3c1.5,4.3,2.2,9.2,2.2,14.5c1.3,3.1,1.9,5.9,1.9,8.5v0.9c0,2.9-5.4,5-16.4,6H137c-3.1,0-5-0.7-5.7-2.2
			c-2.3-5.4-3.5-11.1-3.5-17.4c-0.1-0.1-0.6-4.7-1.6-13.6c-0.4,0-0.7-3.2-0.9-9.5c0-1,0.2-3.6,0.6-7.6c-0.9-2.1-1.3-4-1.3-5.7V147
			c0-3.8,0.2-6.2,0.6-7.3c-0.6-6.9-0.9-14.1-0.9-21.5c0.4-3.7,0.6-6.1,0.6-6.9l-0.9-6.3c0-2,0.1-4.7,0.3-8.2
			c-0.2-2.8-0.3-5.1-0.3-6.9c0-4.7,3.7-6.9,11.1-6.9c0-0.2,1.6-0.5,4.7-0.9L147.1,82.6z"/>
		<path class="st0" d="M201.1,86.5c0,3.4-2.2,7.1-6.6,11.1c0,0.4-3.5,0.9-10.5,1.5c-7.1-0.2-11.1-2.3-11.9-6.5l-0.9-5.4
			c0.5-2.1,1.5-4.2,3.1-6.3c4.7-1.5,9.5-2.2,14.5-2.2C197,78.6,201.1,81.2,201.1,86.5z M185.6,110.5c6.6,0,10.3,2.8,11.4,8.2
			c1,4.3,1.6,7.7,1.6,10.1c0,0.6-0.3,1.7-0.9,3.5c0.6,1,0.9,2.4,0.9,4.1v1.6c0,2.2-0.4,4.4-1.3,6.6l0.3,1.6v1.9
			c0,1.5-0.3,5.1-0.9,11.1c0,1.8,0.3,4.7,0.9,8.5c-0.8,6.1-1.3,9.2-1.6,9.2l2.5,25.3v1.6c0,2-2.1,3.2-6.3,3.8
			c-2.1,1-5.1,1.6-8.8,1.6h-1.6c-3.6,0-5.6-1.2-6.3-3.5c-1.5-1-2.2-3.9-2.2-8.5l-1.9-24.9c0-1.4,0.2-4.9,0.6-10.4l-0.6-12
			c0.4-5.8,1.2-13,2.2-21.8c0.2-2.9,0.3-6.1,0.3-9.5v-2.8c0-1.7,1.9-3.2,5.7-4.7c1.1-0.2,2.4-0.3,3.8-0.3H185.6z"/>
		<path class="st0" d="M257,81.7c3.4,0,5.1,1.2,5.1,3.5c0.3,0,0.6,2.3,0.9,6.9c1.3,2.8,2.1,5,2.5,6.6l-0.6,14.8
			c0.6,3,0.9,6.8,0.9,11.4v0.3c0,2.7-0.3,4.8-0.9,6.3c0.4,2.1,0.6,4.9,0.6,8.5v0.3c0,3.7-0.3,6.4-0.9,8.2c0.2,1.8,0.3,3,0.3,3.5
			c0,9.1-0.4,15.2-1.3,18.3c0.2,4.2,0.3,6.9,0.3,8.2c0,0.7-0.3,2.9-0.9,6.6l0.3,4.4c0,5.8-5.8,9.9-17.4,12.3c-3.3,0-6.2-2.2-8.8-6.6
			c-0.9-3.4-2.9-10.2-6.3-20.2l-4.7-16.7h-0.3c-0.2,2.1-0.3,3.7-0.3,4.7v1.3c0.4,11.1,0.6,17.1,0.6,18.3c-0.5,8.8-1,13.7-1.6,14.5
			c-2.8,1.9-5.4,2.8-7.9,2.8c-7.3,0-11.1-4-11.1-12c0.6-9.1,0.9-14.3,0.9-15.5c-0.9-6.2-1.3-10.4-1.3-12.6c0-0.7,0.2-2.1,0.6-4.4
			l-0.3-1.9c0.2-2.1,0.3-3.9,0.3-5.1c0-2-0.2-4.7-0.6-8.2c1-11.6,1.9-23.4,2.5-35.4c-0.2-4.3-0.3-7.2-0.3-8.8c0-5.3,1-7.9,3.2-7.9
			c1.3-0.6,2.8-0.9,4.7-0.9c8.4,0,12.6,0.9,12.6,2.8c0.3,1.3,1.7,3.3,4.1,6c0.9,1.7,1.9,4.2,2.8,7.3c2.1,2.4,3.2,5.8,3.2,10.1
			c2.5,2.4,3.8,6.2,3.8,11.4c1.7,2.3,3.1,7.7,4.1,16.1c0.6,0.2,0.9,1.3,0.9,3.5h0.3c0-1.5,0.6-7.5,1.6-18c0-5.4,0.1-8.6,0.3-9.5
			c-0.2-1-0.3-2.4-0.3-4.1V111c0-1.1,0.1-2.1,0.3-2.8c-0.2-1.1-0.3-2.1-0.3-3.2v-4.1c0.6-4.7,0.9-7.7,0.9-9.2v-6.6
			c0-1.8,1.9-3,5.7-3.5H257z M246.6,145.8v0.9h0.3v-0.9H246.6z"/>
		<path class="st0" d="M317.2,78.5c4.8,0,7.7,1,8.5,3.2c1.5,1.3,2.2,5.7,2.2,12.9c1.5,5.3,2.2,9.6,2.2,12.6c0,0.9-0.2,2.9-0.6,6.3
			c0.4,4,0.9,10.4,1.3,19.3c0.2,0,0.3,0.2,0.3,0.6c-1.3,7-1.9,10.6-1.9,10.7c0,0.2,0.1,0.8,0.3,1.9c0,1.3-0.1,3.2-0.3,5.4
			c0.2,2.6,0.3,5.1,0.3,7.6l-1.3,6c0.6,3.2,0.9,5.8,0.9,7.9v4.4c0,3.4-0.3,5.7-0.9,6.9c0.2,1.2,0.3,2,0.3,2.5
			c0,4.3-0.2,7.7-0.6,10.1c0.6,1.7,0.9,3.5,0.9,5.4v0.6c0,1.8-2.2,3-6.6,3.5c-1,0-2.6,0.1-4.7,0.3c-4.1,0-6.6-1.5-7.6-4.4
			c-2.1-5.5-3.2-10.7-3.2-15.5v-0.6c0-0.4-0.2-0.6-0.6-0.6c-4.2,0-6.3,0.4-6.3,1.3v0.3c0,1.2,0.4,4.5,1.3,10.1
			c-0.3,5.7-1.5,8.5-3.5,8.5c-1.2,1.3-2.4,1.9-3.5,1.9h-1.6c-0.5,0-0.9-0.1-1.3-0.3c-0.3,0-1.5,0.9-3.5,2.5
			c-1.2,0.2-2.1,0.3-2.8,0.3h-2.5c-5.4,0-8.2-3.6-8.2-10.7c-1.5-9-2.2-18.9-2.2-29.7c0.6-2.1,0.9-12.2,0.9-30.3v-2.2
			c0-3.5,0.6-9.5,1.6-18c0.6-10.7,0.9-16.8,0.9-18.6l-1.3-11.1c0-2.1,2.5-3.4,7.6-4.1c0.6,0,1.3,0.1,2.2,0.3
			c0.9-0.2,1.7-0.3,2.5-0.3c3.6,0,5.4,1.7,5.4,5.1c0.9,0,1.7,2.5,2.2,7.6c0,0.1-0.1,1.5-0.3,4.1c1,5.9,1.6,11,1.6,15.2v0.3
			c0,2.8-0.2,4.7-0.6,5.7c0.2,1,0.4,4.2,0.6,9.5c-0.2,4.2-0.3,6.6-0.3,6.9c0,2.5,0.7,8.8,2.2,18.9c0,4.8,0.6,10.7,1.6,17.4h0.3
			c2.8-0.6,4.5-0.9,5.4-0.9h0.9l0.3-1.6c0-4.9-0.1-10.3-0.3-16.1c0.9-5.9,1.3-10.8,1.6-14.5c-0.4-3.6-0.6-6.2-0.6-8.2
			c0.6-10.4,0.9-28.1,0.9-53c0-1.5,2.5-2.6,7.6-3.2H317.2z"/>
		<path class="st0" d="M383.9,106c2.9,7.1,4.4,14.7,4.4,22.7c0.2,0,0.3,0.6,0.3,1.6c0,0.4-0.4,2.6-1.3,6.6c1,5.1,1.6,11.1,1.6,17.7
			v0.6c0,4.5-0.6,10.3-1.9,17.7c0,4.3-1.8,9.3-5.4,14.8c-0.9,4.7-2.6,6.9-5.1,6.9c-1,2.8-3.2,4.1-6.6,4.1c-1.3,0-3.9-0.4-7.9-1.3
			c-3.9,0.9-6.6,1.3-7.9,1.3H353c-5.4,0-9.3-3.8-11.7-11.4c-2.3-4.2-4.3-10.7-6-19.3c0-1.5-0.1-2.3-0.3-2.5l0.6-6
			c-0.2-3.4-0.3-6.5-0.3-9.2v-1.3c0-9.6,0.6-14.5,1.6-14.8c-0.2-0.4-0.3-0.7-0.3-0.9c0-1.9,0.9-6.4,2.8-13.6
			c0-2.8,2.1-10.1,6.3-22.1c2-2.4,3.9-3.7,5.7-4.1c5-1.9,10.1-2.8,15.5-2.8C375.4,90.8,381.1,95.9,383.9,106z M363.4,106.9
			c-0.9,3.1-1.8,8.8-2.8,17.4v5.4c0,0.7-0.3,1.4-0.9,2.2v1.3c0,5.5-0.2,9-0.6,10.4c0.2,1.4,0.3,2.6,0.3,3.5v3.2
			c0,7.5,1.2,17.3,3.5,29.4h0.3c1.8-2.5,3.4-7.8,4.7-15.8c0.9-6.2,1.3-12.6,1.3-18.9c0-3.2-0.4-8.6-1.3-16.1v-1.6
			c0-0.9,0.1-2.1,0.3-3.5c-1.7-6.8-3.2-12.4-4.4-16.7H363.4z"/>
	</g>
	<g>
		<path class="st0" d="M28.9,213.3c5.7,0,9.7,2,12,6c2.4,3,4.7,7.3,6.9,12.9c1.3,4.1,1.9,7,1.9,8.7c0,0.7,0,1.5-0.2,2.5
			c0.4,2.3,0.5,3.9,0.5,4.8c0,1.3-0.2,3.1-0.5,5.7c0.1,1,0.2,1.8,0.2,2.3c-0.7,2.4-1.2,4.8-1.4,7.3c-1.4,3.2-2.3,5.8-2.8,7.6
			c-1.5,1.2-2.5,2.6-3,4.2l-2.5,1.6c-3.3,5.8-6.5,8.7-9.6,8.7c-1.5,0-2.6-0.7-3.4-1.9c-2.3,0-3.9-0.7-4.8-2.1
			c-1.1-3.4-1.6-7.2-1.8-11.5c-0.2-1.2-0.4-3.4-0.4-6.6v-2.1c-0.4-3.5-0.5-6.4-0.5-8.7c0-0.1,0.1-0.5,0.4-1.2
			c-0.2-1.1-0.4-2.9-0.5-5.5c0.1-3,0.2-4.7,0.4-5.1l-0.4-2.3l0.4-6c-0.1-3.9-0.2-7.7-0.2-11.2v-2.3c-0.5-1.5-0.7-2.3-0.7-2.7
			c0-1.8,3.2-2.8,9.6-3H28.9z M30.5,219.8l2.8,12v3.5c1.2,0.8,1.8,2.6,1.8,5.3c0,0.2-0.1,0.7-0.4,1.4c0.4,0,0.6,0.8,0.7,2.5v0.4
			c0,0.8,0,1.5-0.2,2.1l0.2,1.2c-0.1,1.5-0.2,2.3-0.2,2.3c0.2,1.5,0.4,2.7,0.4,3.7v11.2c0,0.5-0.1,1-0.4,1.4v0.2h0.2
			c2-3.6,3-6.6,3-9c0.7-2.5,1.1-5.8,1.1-9.7v-1.2c0-10.2-1.9-18.4-5.8-24.6L30.5,219.8z M34.6,268.8v0.4h0.2v-0.4H34.6z M35.1,267.3
			v0.4h0.2v-0.4H35.1z"/>
		<path class="st0" d="M65.4,218c0.5-0.2,1.2-0.4,2.2-0.4c3.1,0.3,5.9,0.5,8.6,0.7c1.7,0.9,2.6,2.1,2.6,3.5
			c-1.5,3.1-4.6,4.7-9.3,4.7h-2.1l-0.8,0.2v-0.2l-0.4,0.2c-0.2-0.1-0.4-0.2-0.7-0.2c-0.4,0.9-0.5,1.7-0.5,2.5v0.4c0,0.9,0,2,0.2,3.5
			l-0.8,2.3c0.2,1.6,0.4,2.5,0.7,2.5s1.1,0,2.6-0.2c4.5,1,6.7,1.8,6.7,2.2c0.7,0.6,1.1,1.3,1.1,2c-0.8,1.8-2.2,2.7-4.3,2.7
			c-0.4,0-2.1,0.6-5.2,1.7h-0.7l0.2,0.3c0,0.3,0,0.5-0.2,0.5c0.1,1.3,0.2,2.3,0.2,2.8v2.5c0,0.8-0.1,2.5-0.4,5.2
			c0.1,0.9,0.4,1.7,0.7,2.3l-0.2,2v1.6c0,4.2,0.2,7,0.7,8.7c-0.1,1.2-0.2,2-0.2,2.7v0.3c0,0.7,0.4,1,1.2,1c2.1,0,4.2-0.1,6.4-0.4
			c2.7,0,4.1,0.7,4.1,2c-1.2,3.3-5.1,4.9-11.7,4.7c-5.2,0.4-8.9-0.1-11.1-1.5c-1.3-5.9-1.9-11.7-1.9-17.4c0-1.8,0.1-3.9,0.4-6.5
			c-0.2-0.8-0.5-2.6-0.7-5.5l0.4-3.9c-0.1-0.3-0.2-2.2-0.4-5.7l0.8-10.8c-0.2-0.7-0.3-1.2-0.3-1.5V229c0-0.5,0-1.1,0.2-1.6
			c-0.1-0.8-0.2-1.3-0.4-1.5c0.1-0.9,0.2-1.7,0.2-2.3V220c0-0.9,1.2-1.9,3.8-2.8c1.3,0,1.9,0,1.9-0.2
			C62.3,217.3,64.5,217.7,65.4,218z"/>
		<path class="st0" d="M119.3,216.4c2,0,4.2,2.5,6.7,7.6c0,1.2,0.6,2.7,1.8,4.4c0.5,2.5,0.9,4.2,1.2,5.1c0.6,1.8,0.9,3.1,0.9,3.9
			c0,0.3-0.1,0.7-0.4,1.1c0.5,0,0.9,1.8,1.2,5.5c0.9,2.8,1.4,5.6,1.4,8.3c0.3,0.9,0.6,2.2,0.7,3.7l-0.5,3.2c0.5,1.3,0.7,2.1,0.7,2.5
			c0,0.2-0.1,0.8-0.4,1.8c0.4,0.8,0.5,1.6,0.5,2.3c-0.1,1.2-0.2,1.9-0.2,2.1c0.4,0,0.7,1.1,1.1,3.2l-0.2,0.4v0.2
			c0.4,4.8,0.5,7.4,0.5,7.8v0.9c0,1.8-0.5,2.7-1.4,2.7c-1.1,0.6-2.4,0.9-4.1,0.9c-2.8,0-4.5-0.6-5-1.8c-2.6-5.1-4-10.6-4.4-16.5
			c-0.1-0.4-1.4-0.6-3.9-0.7h-1.1c-0.1,0-0.3,0.2-0.5,0.7l0.2,0.4v1.1c0,0.6-0.2,1.5-0.5,2.8c0.3,1.8,0.4,2.7,0.5,2.7
			c-0.2,1-0.8,2.3-1.6,3.9c0,2.2-0.4,3.5-1.2,3.9c-0.9,0.7-1.6,1.1-2.1,1.1c-3.3,0-5.3-1.4-6-4.1v-2.1c0-3.1,0.4-7.2,1.2-12.2
			c0-0.7,0-2.2-0.2-4.4c0.9-5.1,2.3-13.6,4.1-25.3c1.5-6.5,2.3-10.5,2.3-11.9c0.5-1.2,1.6-2.1,3.4-2.8c0.4-1.4,2.1-2.1,5-2.1H119.3z
			 M117.3,236.6c-0.6,5.2-1.3,10-2.1,14.2v0.4c0,1,0,2.1,0.2,3.2c-0.4,1.8-0.5,3.3-0.5,4.6c1.2,0.1,2.1,0.2,2.7,0.2h1.6v-0.2
			c0-0.6-0.1-1.9-0.4-3.9c0.4-1.9,0.5-3.4,0.5-4.6v-0.9c0-3.8-0.6-8.1-1.8-12.9H117.3z"/>
		<path class="st0" d="M165.2,223.3c2.7,9.2,4.1,15.6,4.1,19.5c-0.1,2.1-0.2,3.4-0.2,3.9c0.5,0.8,0.7,1.5,0.7,2.1v1.2l-0.2,1.1
			c0.4,1.6,0.5,3.3,0.5,5.1c-0.1,2.7-0.3,4.3-0.5,4.6c0.1,0.8,0.2,1.5,0.2,1.9v0.2c-0.4,7.7-1.1,12.1-1.9,13.1
			c0,2.1-1.5,3.2-4.4,3.2c-4.9,3.5-8.5,5.3-11,5.3h-0.7c-4.7,0-8.9-3-12.4-9c-1.2-1.6-2.1-6.5-2.8-14.5c0.5-5.6,0.8-9,1.1-10.3
			c0.9-1.9,2.6-2.8,5-2.8h0.2c4.9,0,7.7,1.9,8.3,5.8c0,2.8,0.6,6.9,1.8,12.2v1.6c1.9,2.7,2.8,4.5,2.8,5.1h0.2c0.2-2.2,0.4-4,0.4-5.5
			v-4.6c0-1.3,0.1-2.9,0.4-5c0-0.6,0-1.5-0.2-2.7c0.1-1.6,0.2-3,0.2-4.1c0-0.6-0.2-2.3-0.5-5.3c0-0.7,0-1.3,0.2-1.9
			c-0.1-1.6-0.2-3.2-0.2-4.8V236c-0.4-3.1-0.7-7.1-0.9-11.9v-0.9c-0.6-3.3-0.9-5.4-0.9-6c0-0.9,1.3-1.6,3.9-2.1
			C161.7,215.2,164,217.9,165.2,223.3z"/>
		<path class="st0" d="M199.2,215.9c2.4,0,3.9,0.9,4.4,2.8c1.3,2.9,2.6,7.5,3.9,13.6l1.1,6.6l-0.2,2.5c0.1,3.1,0.2,5.2,0.2,6.4
			c0,2.7-0.6,6.2-1.8,10.4c-0.4,7.8-0.9,11.7-1.4,11.7c-1.5,4.3-4.6,7.7-9.2,10.3c-3.8,1.6-6.9,2.5-9.6,2.5h-0.2l-0.4,0.2v-0.2
			l-0.4,0.2c-1.7,0-3.7-1.2-5.8-3.5c-1.9-2.4-3.6-5.7-5.3-9.7c-1.5-4.7-2.3-10.3-2.3-16.6c0-1.9,0.4-11.1,1.2-27.6v-2.8
			c0-2.1,0.8-3.2,2.5-3.2c1.3-0.6,2.7-0.9,4.1-0.9h1.1l0.4-0.2v0.2c0.1,0,0.2,0,0.2-0.2c2.3,0,4.1,1.1,5.5,3.4
			c0.5,1.7,0.7,3,0.7,3.9c-0.2,2.7-0.4,4.5-0.4,5.3c0,0.7,0.4,2.9,1.1,6.7c-0.1,2.8-0.3,5.1-0.5,6.7l0.4,4.4l-0.2,0.4
			c0,0.3,0,0.5,0.2,0.7c-0.1,1.5-0.2,2.8-0.2,3.7v2.7c0,1.8,0.2,4.3,0.7,7.6h-0.2c0.2,1.4,0.5,2.7,0.9,3.9c0.7-0.6,1.6-4.1,2.8-10.4
			c0-0.8,0.5-3.9,1.6-9.2c0.5-2.3,0.8-7.6,0.9-15.6c0.1,0,0.2-0.7,0.4-2.1c-0.1-1.5-0.3-2.3-0.4-2.5h0.2c-0.2-0.6-0.4-2-0.4-4.1
			v-4.4c0-1.6,1.2-2.7,3.7-3.4H199.2z"/>
		<path class="st0" d="M221.1,213.3c5.7,0,9.7,2,12,6c2.4,3,4.7,7.3,6.9,12.9c1.3,4.1,1.9,7,1.9,8.7c0,0.7,0,1.5-0.2,2.5
			c0.4,2.3,0.5,3.9,0.5,4.8c0,1.3-0.2,3.1-0.5,5.7c0.1,1,0.2,1.8,0.2,2.3c-0.7,2.4-1.2,4.8-1.4,7.3c-1.4,3.2-2.3,5.8-2.8,7.6
			c-1.5,1.2-2.5,2.6-3,4.2l-2.5,1.6c-3.3,5.8-6.5,8.7-9.6,8.7c-1.5,0-2.6-0.7-3.4-1.9c-2.3,0-3.9-0.7-4.8-2.1
			c-1.1-3.4-1.6-7.2-1.8-11.5c-0.2-1.2-0.4-3.4-0.4-6.6v-2.1c-0.4-3.5-0.5-6.4-0.5-8.7c0-0.1,0.1-0.5,0.4-1.2
			c-0.2-1.1-0.4-2.9-0.5-5.5c0.1-3,0.2-4.7,0.4-5.1l-0.4-2.3l0.4-6c-0.1-3.9-0.2-7.7-0.2-11.2v-2.3c-0.5-1.5-0.7-2.3-0.7-2.7
			c0-1.8,3.2-2.8,9.6-3H221.1z M222.7,219.8l2.8,12v3.5c1.2,0.8,1.8,2.6,1.8,5.3c0,0.2-0.1,0.7-0.4,1.4c0.4,0,0.6,0.8,0.7,2.5v0.4
			c0,0.8,0,1.5-0.2,2.1l0.2,1.2c-0.1,1.5-0.2,2.3-0.2,2.3c0.2,1.5,0.4,2.7,0.4,3.7v11.2c0,0.5-0.1,1-0.4,1.4v0.2h0.2
			c2-3.6,3-6.6,3-9c0.7-2.5,1.1-5.8,1.1-9.7v-1.2c0-10.2-1.9-18.4-5.8-24.6L222.7,219.8z M226.8,268.8v0.4h0.2v-0.4H226.8z
			 M227.3,267.3v0.4h0.2v-0.4H227.3z"/>
		<path class="st0" d="M260.1,216.4c2,0,4.2,2.5,6.7,7.6c0,1.2,0.6,2.7,1.8,4.4c0.5,2.5,0.9,4.2,1.2,5.1c0.6,1.8,0.9,3.1,0.9,3.9
			c0,0.3-0.1,0.7-0.4,1.1c0.5,0,0.9,1.8,1.2,5.5c0.9,2.8,1.4,5.6,1.4,8.3c0.3,0.9,0.6,2.2,0.7,3.7l-0.5,3.2c0.5,1.3,0.7,2.1,0.7,2.5
			c0,0.2-0.1,0.8-0.4,1.8c0.4,0.8,0.5,1.6,0.5,2.3c-0.1,1.2-0.2,1.9-0.2,2.1c0.4,0,0.7,1.1,1.1,3.2l-0.2,0.4v0.2
			c0.4,4.8,0.5,7.4,0.5,7.8v0.9c0,1.8-0.5,2.7-1.4,2.7c-1.1,0.6-2.4,0.9-4.1,0.9c-2.8,0-4.5-0.6-5-1.8c-2.6-5.1-4-10.6-4.4-16.5
			c-0.1-0.4-1.4-0.6-3.9-0.7h-1.1c-0.1,0-0.3,0.2-0.5,0.7l0.2,0.4v1.1c0,0.6-0.2,1.5-0.5,2.8c0.3,1.8,0.4,2.7,0.5,2.7
			c-0.2,1-0.8,2.3-1.6,3.9c0,2.2-0.4,3.5-1.2,3.9c-0.9,0.7-1.6,1.1-2.1,1.1c-3.3,0-5.3-1.4-6-4.1v-2.1c0-3.1,0.4-7.2,1.2-12.2
			c0-0.7,0-2.2-0.2-4.4c0.9-5.1,2.3-13.6,4.1-25.3c1.5-6.5,2.3-10.5,2.3-11.9c0.5-1.2,1.6-2.1,3.4-2.8c0.4-1.4,2.1-2.1,5-2.1H260.1z
			 M258.2,236.6c-0.6,5.2-1.3,10-2.1,14.2v0.4c0,1,0,2.1,0.2,3.2c-0.4,1.8-0.5,3.3-0.5,4.6c1.2,0.1,2.1,0.2,2.7,0.2h1.6v-0.2
			c0-0.6-0.1-1.9-0.4-3.9c0.4-1.9,0.5-3.4,0.5-4.6v-0.9c0-3.8-0.6-8.1-1.8-12.9H258.2z"/>
		<path class="st0" d="M299.9,214.3c2.1,2,3.6,6.3,4.6,12.7c0.1,2.1,0.2,3.3,0.2,3.7c-0.9,9.2-1.8,13.8-2.5,13.8
			c0,0.4-0.9,1.9-2.7,4.2c-2,1.6-3.3,2.8-3.9,3.5l-0.2,0.4c3.1,3.5,5,6.6,5.7,9.4c0,0.8,0.9,2.8,2.7,6c0,0.4,1.1,3.9,3.4,10.4
			c0.2,0.9,0.4,1.9,0.4,3v0.5c0,1.6-0.6,2.6-1.8,3c-1.6,0.5-2.9,0.8-3.9,0.9c-2.6,0-4.4-1.6-5.5-4.8c-0.7-2-1.9-4.4-3.5-7.3
			c-0.7-2.9-1.4-5-2.3-6.6c-0.4-0.8-0.5-1.4-0.5-1.8h-0.2c0,0.5-0.1,1.7-0.4,3.7c0,1.4,0.2,2.1,0.4,2.1c-0.2,0.5-0.4,1.5-0.4,2.8
			v3.4c0,0.4,0,0.9-0.2,1.6c0.5,1.3,0.7,2.4,0.7,3.5c0,1.3-1.5,2.2-4.4,2.5c-2.7,0-4.2-0.5-4.6-1.6c-1.6-5.5-2.5-13.1-2.5-22.7
			l-0.9-10.3l0.4-3.2c-0.2-1.5-0.4-3.1-0.4-4.6v-1.6c0-1.5,0-3.1,0.2-5c-0.1-0.5-0.2-0.9-0.2-1.4l0.4-2.1c-0.2-1.7-0.4-3.5-0.4-5.5
			c0.6-5.1,1.5-8.5,2.5-10.3c0.4,0,0.8-0.9,1.4-2.7c2.6-2.3,5.3-3.5,8-3.5c0,0,0.8,0,2.3-0.2C295.9,210.8,298.6,212,299.9,214.3z
			 M287.9,224.2c0,2.3,0.3,5.4,0.9,9.4v0.9c0,0.4,0,0.9-0.2,1.6c0.5,1.5,0.7,3.7,0.7,6.4l0.2,0.7c2.7-2.3,4.1-7.1,4.1-14.2
			c0-6.1-1.2-10.2-3.7-12.4h-0.2c-1,0-1.6,2.3-1.8,6.7V224.2z M289.6,265.1v0.4h0.2v-0.4H289.6z"/>
		<path class="st0" d="M358.6,227.6c1.6,4,2.5,8.2,2.5,12.7c0.1,0,0.2,0.3,0.2,0.9c0,0.2-0.2,1.5-0.7,3.7c0.6,2.9,0.9,6.2,0.9,9.9
			v0.4c0,2.5-0.4,5.8-1.1,9.9c0,2.4-1,5.2-3,8.3c-0.5,2.6-1.5,3.9-2.8,3.9c-0.6,1.5-1.8,2.3-3.7,2.3c-0.8,0-2.2-0.2-4.4-0.7
			c-2.2,0.5-3.7,0.7-4.4,0.7h-0.7c-3.1,0-5.2-2.1-6.6-6.4c-1.3-2.3-2.4-6-3.4-10.8c0-0.8,0-1.3-0.2-1.4l0.4-3.4
			c-0.1-1.9-0.2-3.6-0.2-5.1v-0.7c0-5.4,0.3-8.1,0.9-8.3c-0.1-0.2-0.2-0.4-0.2-0.5c0-1.1,0.5-3.6,1.6-7.6c0-1.5,1.2-5.7,3.5-12.4
			c1.1-1.3,2.2-2.1,3.2-2.3c2.8-1.1,5.7-1.6,8.7-1.6C353.9,219.1,357,222,358.6,227.6z M347.1,228.2c-0.5,1.7-1,5-1.6,9.7v3
			c0,0.4-0.2,0.8-0.5,1.2v0.7c0,3.1-0.1,5-0.4,5.8c0.1,0.8,0.2,1.5,0.2,1.9v1.8c0,4.2,0.7,9.7,1.9,16.5h0.2c1-1.4,1.9-4.4,2.7-8.9
			c0.5-3.5,0.7-7,0.7-10.6c0-1.8-0.2-4.8-0.7-9v-0.9c0-0.5,0-1.2,0.2-1.9c-0.9-3.8-1.8-6.9-2.5-9.4H347.1z"/>
		<path class="st0" d="M389.8,224.9c0.5,1.5,0.8,4.3,1.1,8.5c0,1.3-1.8,1.9-5.3,1.9c-2.3-0.5-3.9-1.2-4.6-2.1
			c-0.5-0.8-1.1-2.6-1.8-5.3c-2.3-3-3.9-4.4-5-4.4v1.2c0,1.7,0.7,4.3,1.9,7.8c3.8,6.6,6.5,12.1,8.1,16.6c0.4,2,1.1,4.6,2.1,8
			c0.6,3.1,0.9,4.8,0.9,5v1.2c0,1.5,0.1,3.5,0.4,6c-0.4,1.2-0.6,3-0.7,5.5c-1.1,2.9-2.7,5.5-5,8c-0.8,1.4-2.4,2.1-5,2.1
			c-0.7,0-1.1,0-1.2,0.2c-4.4,0-7.3-1.7-8.7-5.1c-1.5-1.8-2.4-3.9-2.8-6c-0.8-1.2-1.2-2.5-1.2-3.9v-1.2c0-2.3,1.2-3.4,3.5-3.4
			c0-0.2,0.4-0.3,1.2-0.4c2.7,0,4.7,2.3,6.2,6.7c0.8,3,1.5,4.7,2.3,5.3h0.2c0.4-2,0.6-3.8,0.7-5.3c-0.3-4.4-0.9-7.8-1.8-10.1v-2.1
			c-0.7-0.4-1.3-2.1-1.9-5.1c-1.5-2.6-2.5-4.8-2.8-6.6c-3.3-5.3-5.2-9.6-5.7-13.1c-0.7-3.5-1.1-5.4-1.1-5.8V227c0-0.3,0-0.5,0.2-0.7
			c-0.1-0.2-0.2-1.1-0.4-2.7c0.8-2.8,2.1-4.7,3.9-5.8c2.9-2.3,6-3.4,9.4-3.4C382.1,214.4,386.4,217.9,389.8,224.9z"/>
	</g>
	<g>
		<path class="st0" d="M30.7,292.6c6.2,0,13,2.6,20.5,7.8c1.6,1.9,3,5.5,4.1,11c0.5,2.7,0.8,5.7,1,8.8c0,1.6-0.7,3.7-1.9,6.1
			c-0.2,4.6-1,6.8-2.4,6.8c-2.6,6.2-4.8,10.1-6.6,11.7c-1,1.3-1.5,2.3-1.5,2.9c3.2,0.7,5.8,2.3,8,4.6c3.2,4.6,4.9,9.3,4.9,13.9
			c0.3,2.1,0.5,4.3,0.5,6.3c0,3.8-0.7,6.8-2.2,8.8c0,3.4-3,7.2-9,11.5c-1.3,2.3-3.7,3.4-7.3,3.4h-1.2c-0.8,0-1.8-0.7-2.9-2.2H32
			c-3.4,0-5.1-0.7-5.1-2.2c-0.9-0.6-1.6-2.7-2.2-6.3c-0.3-1.3-0.5-2.1-0.5-2.4v-2.9c-1.8-12.1-2.7-20.5-2.7-25.3l-1-18.5
			c0-0.3,0.2-1.2,0.7-2.4l-0.2-2.2c0-0.3,0.2-2.7,0.5-7.3c-0.2-2.7-0.4-4.9-0.7-6.6c0.2-1.9,0.3-2.9,0.5-3.2l-0.2-1
			c0-4.8,0.5-9.6,1.5-14.4v-0.7c-0.7-0.9-1-1.6-1-2.2v-0.7c0.9-1.9,3.7-2.9,8.3-2.9H30.7z M36.3,304v6.8l1.9,14.9
			c-0.2,2.9-0.2,4.9-0.2,5.8l0.2,2.2h0.2c2.6-5.6,3.9-10.5,3.9-14.9v-2.4c0-6-2.1-10.4-6.3-12.9L36.3,304z M39.5,354.7
			c1,6.5,1.5,10.1,1.5,10.7c0.6,0,1.1,3.2,1.5,9.5c0.6,2.3,1,3.4,1.2,3.4c0.7-3.4,1.3-5.1,1.7-5.1l-0.2-2.4v-4.1
			c0-2.6-1.3-6.2-3.9-11c-1-0.8-1.5-1.2-1.7-1.2V354.7z"/>
		<path class="st0" d="M84.4,301.9c0,2.6-1.7,5.5-5.1,8.5c0,0.3-2.7,0.7-8.1,1.2c-5.5-0.1-8.5-1.8-9.2-5l-0.7-4.2
			c0.4-1.6,1.2-3.2,2.4-4.9c3.6-1.2,7.3-1.7,11.2-1.7C81.3,295.8,84.4,297.8,84.4,301.9z M72.5,320.4c5.1,0,8,2.1,8.8,6.3
			c0.8,3.4,1.2,6,1.2,7.8c0,0.4-0.2,1.3-0.7,2.7c0.5,0.8,0.7,1.8,0.7,3.2v1.2c0,1.7-0.3,3.4-1,5.1l0.2,1.2v1.5c0,1.2-0.2,4-0.7,8.5
			c0,1.4,0.2,3.6,0.7,6.6c-0.6,4.7-1,7.1-1.2,7.1l1.9,19.5v1.2c0,1.5-1.6,2.5-4.9,2.9c-1.6,0.8-3.9,1.2-6.8,1.2h-1.2
			c-2.7,0-4.3-0.9-4.9-2.7c-1.2-0.8-1.7-3-1.7-6.6l-1.5-19.3c0-1.1,0.2-3.8,0.5-8l-0.5-9.3c0.3-4.4,0.9-10.1,1.7-16.8
			c0.2-2.3,0.2-4.7,0.2-7.3v-2.2c0-1.3,1.5-2.5,4.4-3.7c0.9-0.2,1.8-0.2,2.9-0.2H72.5z"/>
		<path class="st0" d="M111.4,298.2c0.2,0,0.2-0.1,0.2-0.2c1.6,0,3.3,0.7,4.9,1.9c1.9,0,3.2,1,3.9,3.2c1.3,0.5,2.3,1.9,2.9,4.1
			c1.5,3,2.2,5.5,2.2,7.3v1c0,0.5-0.2,1.4-0.7,2.7l0.5,1c-0.2,2-0.2,3.2-0.2,3.4c0.5,5.2,0.8,8,1,8.5l-0.2,0.5
			c0.2,0.3,0.2,0.6,0.2,1l-0.2,0.5c0,0.2,0.1,0.2,0.2,0.2c0,4.1-2.3,6.1-6.8,6.1c-0.2,0.2-0.7,0.2-1.5,0.2c-3.9-0.9-5.8-2.3-5.8-3.9
			c-0.8-1.2-1.2-2.7-1.2-4.6c0.2-0.3,0.2-0.5,0.2-0.7s-0.1-0.2-0.2-0.2l0.2-1.2v-0.2c0-1.3-0.2-3.7-0.7-7.1c0.2-2.9,0.2-5.2,0.2-7.1
			c-0.3-2.1-0.8-3.2-1.5-3.2l-2.2,8.8l0.5,3.7c-1.3,4.3-1.9,8.3-1.9,12.2c-0.3,0.9-0.8,3.8-1.5,8.5h0.2c-0.5,2.5-0.7,5.1-0.7,7.8
			h-0.2c0,0.2,0.1,0.2,0.2,0.2c-0.2,2-0.4,3.2-0.5,3.7c0,0.2,0.1,0.2,0.2,0.2l-0.2,1.2v2.2c0,2.6,0.2,4.3,0.5,5.1h-0.2
			c0.2,0,0.3,1.3,0.5,3.9c-0.2,1.6-0.2,2.6-0.2,2.9c0,0.5,0.5,2.1,1.7,4.6c0,2.4,0.2,3.7,0.7,3.7c2.3-2.6,3.4-4.9,3.4-6.8
			c0.3-1.6,0.5-3.7,0.5-6.3c0-2.4-0.3-4.9-1-7.6v-0.2c0-2.3,3.4-3.8,10.2-4.9h1.5l0.5,0.2v-0.2c2.7,0.8,4.1,2.2,4.1,4.1
			c0,1.5,0.4,3.6,1.2,6.3v1.5c0,0.4-0.1,0.7-0.2,1c0.7,1.3,1,2.2,1,2.7v0.2l-0.2,1.5l0.5,1.2l-0.2,1l0.2,3.4c0,2.7-1.3,6.2-3.9,10.5
			l-4.9,2.4c0,0.7-1,1.5-3.2,2.4c-0.3,1.2-3.1,2-8.5,2.4c0,0.2-1,0.4-2.9,0.7h-1.2c-2.6,0-4.9-1.4-6.8-4.1c-1.9,0-4.3-7.3-7.1-21.9
			c-0.8-5.1-1.2-10.8-1.2-17.1v-5.6l0.2-1.7h-0.2c0.2-0.3,0.2-0.5,0.2-0.7c0-3.8,0.7-9.1,1.9-16.1c-0.2-0.3-0.2-0.6-0.2-1
			c0-0.2,0.1-0.2,0.2-0.2c0-0.2-0.1-0.2-0.2-0.2c1.3-9.3,3.1-15.9,5.4-19.7c3-4.5,5.7-7.2,8-8c1.7-0.6,4.4-1,8-1.2L111.4,298.2z"/>
		<path class="st0" d="M166.4,295.7c3.7,0,5.9,0.8,6.6,2.4c1.2,1,1.7,4.4,1.7,10c1.2,4.1,1.7,7.4,1.7,9.7c0,0.7-0.2,2.3-0.5,4.9
			c0.3,3.1,0.7,8,1,14.9c0.2,0,0.2,0.2,0.2,0.5c-1,5.4-1.5,8.2-1.5,8.3c0,0.1,0.1,0.6,0.2,1.5c0,1-0.1,2.4-0.2,4.1
			c0.2,2,0.2,4,0.2,5.8l-1,4.6c0.5,2.4,0.7,4.4,0.7,6.1v3.4c0,2.6-0.2,4.4-0.7,5.4c0.2,0.9,0.2,1.5,0.2,2c0,3.3-0.2,5.9-0.5,7.8
			c0.5,1.3,0.7,2.7,0.7,4.1v0.5c0,1.4-1.7,2.3-5.1,2.7c-0.8,0-2,0.1-3.7,0.2c-3.2,0-5.1-1.2-5.8-3.4c-1.6-4.3-2.4-8.2-2.4-11.9v-0.5
			c0-0.3-0.2-0.5-0.5-0.5c-3.2,0-4.9,0.3-4.9,1v0.2c0,0.9,0.3,3.5,1,7.8c-0.2,4.4-1.2,6.6-2.7,6.6c-0.9,1-1.8,1.5-2.7,1.5h-1.2
			c-0.4,0-0.7-0.1-1-0.2c-0.2,0-1.2,0.7-2.7,1.9c-0.9,0.2-1.6,0.2-2.2,0.2h-1.9c-4.2,0-6.3-2.7-6.3-8.3c-1.2-6.9-1.7-14.6-1.7-22.9
			c0.5-1.6,0.7-9.4,0.7-23.4v-1.7c0-2.7,0.4-7.3,1.2-13.9c0.5-8.2,0.7-13,0.7-14.4l-1-8.5c0-1.6,1.9-2.6,5.8-3.2
			c0.5,0,1,0.1,1.7,0.2c0.7-0.2,1.3-0.2,1.9-0.2c2.7,0,4.1,1.3,4.1,3.9c0.7,0,1.3,1.9,1.7,5.8c0,0.1-0.1,1.2-0.2,3.2
			c0.8,4.6,1.2,8.5,1.2,11.7v0.2c0,2.1-0.2,3.6-0.5,4.4c0.2,0.8,0.3,3.2,0.5,7.3c-0.2,3.2-0.2,5.1-0.2,5.4c0,1.9,0.5,6.8,1.7,14.6
			c0,3.7,0.4,8.2,1.2,13.4h0.2c2.1-0.5,3.5-0.7,4.1-0.7h0.7l0.2-1.2c0-3.8-0.1-7.9-0.2-12.4c0.7-4.6,1-8.3,1.2-11.2
			c-0.3-2.7-0.5-4.8-0.5-6.3c0.5-8,0.7-21.7,0.7-40.9c0-1.2,1.9-2,5.8-2.4H166.4z"/>
		<path class="st0" d="M205.3,301.9c0,2.6-1.7,5.5-5.1,8.5c0,0.3-2.7,0.7-8.1,1.2c-5.5-0.1-8.5-1.8-9.2-5l-0.7-4.2
			c0.4-1.6,1.2-3.2,2.4-4.9c3.6-1.2,7.3-1.7,11.2-1.7C202.1,295.8,205.3,297.8,205.3,301.9z M193.4,320.4c5.1,0,8,2.1,8.8,6.3
			c0.8,3.4,1.2,6,1.2,7.8c0,0.4-0.2,1.3-0.7,2.7c0.5,0.8,0.7,1.8,0.7,3.2v1.2c0,1.7-0.3,3.4-1,5.1l0.2,1.2v1.5c0,1.2-0.2,4-0.7,8.5
			c0,1.4,0.2,3.6,0.7,6.6c-0.6,4.7-1,7.1-1.2,7.1l1.9,19.5v1.2c0,1.5-1.6,2.5-4.9,2.9c-1.6,0.8-3.9,1.2-6.8,1.2h-1.2
			c-2.7,0-4.3-0.9-4.9-2.7c-1.2-0.8-1.7-3-1.7-6.6l-1.5-19.3c0-1.1,0.2-3.8,0.5-8l-0.5-9.3c0.3-4.4,0.9-10.1,1.7-16.8
			c0.2-2.3,0.2-4.7,0.2-7.3v-2.2c0-1.3,1.5-2.5,4.4-3.7c0.9-0.2,1.8-0.2,2.9-0.2H193.4z"/>
		<path class="st0" d="M248.5,298.2c2.6,0,3.9,0.9,3.9,2.7c0.2,0,0.5,1.8,0.7,5.4c1,2.1,1.6,3.8,1.9,5.1l-0.5,11.5
			c0.5,2.3,0.7,5.2,0.7,8.8v0.2c0,2.1-0.2,3.7-0.7,4.9c0.3,1.6,0.5,3.8,0.5,6.6v0.2c0,2.9-0.2,4.9-0.7,6.3c0.2,1.4,0.2,2.3,0.2,2.7
			c0,7-0.3,11.7-1,14.1c0.2,3.2,0.2,5.3,0.2,6.3c0,0.5-0.2,2.3-0.7,5.1l0.2,3.4c0,4.5-4.4,7.7-13.4,9.5c-2.6,0-4.8-1.7-6.8-5.1
			c-0.7-2.6-2.3-7.9-4.9-15.6l-3.7-12.9h-0.2c-0.2,1.6-0.2,2.9-0.2,3.7v1c0.3,8.5,0.5,13.2,0.5,14.1c-0.4,6.8-0.8,10.5-1.2,11.2
			c-2.2,1.5-4.2,2.2-6.1,2.2c-5.7,0-8.5-3.1-8.5-9.3c0.5-7,0.7-11,0.7-11.9c-0.7-4.8-1-8-1-9.7c0-0.5,0.2-1.6,0.5-3.4l-0.2-1.5
			c0.2-1.6,0.2-3,0.2-3.9c0-1.5-0.2-3.6-0.5-6.3c0.8-9,1.5-18,1.9-27.3c-0.2-3.3-0.2-5.5-0.2-6.8c0-4.1,0.8-6.1,2.4-6.1
			c1-0.5,2.2-0.7,3.7-0.7c6.5,0,9.7,0.7,9.7,2.2c0.2,1,1.3,2.6,3.2,4.6c0.7,1.3,1.5,3.2,2.2,5.6c1.6,1.8,2.4,4.4,2.4,7.8
			c1.9,1.9,2.9,4.8,2.9,8.8c1.3,1.8,2.4,5.9,3.2,12.4c0.5,0.1,0.7,1,0.7,2.7h0.2c0-1.2,0.4-5.8,1.2-13.9c0-4.2,0.1-6.6,0.2-7.3
			c-0.2-0.8-0.2-1.9-0.2-3.2v-1.5c0-0.9,0.1-1.6,0.2-2.2c-0.2-0.9-0.2-1.6-0.2-2.4V313c0.5-3.6,0.7-6,0.7-7.1v-5.1
			c0-1.4,1.5-2.3,4.4-2.7H248.5z M240.5,347.6v0.7h0.2v-0.7H240.5z"/>
		<path class="st0" d="M295,295.7c3.7,0,5.9,0.8,6.6,2.4c1.2,1,1.7,4.4,1.7,10c1.2,4.1,1.7,7.4,1.7,9.7c0,0.7-0.2,2.3-0.5,4.9
			c0.3,3.1,0.7,8,1,14.9c0.2,0,0.2,0.2,0.2,0.5c-1,5.4-1.5,8.2-1.5,8.3c0,0.1,0.1,0.6,0.2,1.5c0,1-0.1,2.4-0.2,4.1
			c0.2,2,0.2,4,0.2,5.8l-1,4.6c0.5,2.4,0.7,4.4,0.7,6.1v3.4c0,2.6-0.2,4.4-0.7,5.4c0.2,0.9,0.2,1.5,0.2,2c0,3.3-0.2,5.9-0.5,7.8
			c0.5,1.3,0.7,2.7,0.7,4.1v0.5c0,1.4-1.7,2.3-5.1,2.7c-0.8,0-2,0.1-3.7,0.2c-3.2,0-5.1-1.2-5.8-3.4c-1.6-4.3-2.4-8.2-2.4-11.9v-0.5
			c0-0.3-0.2-0.5-0.5-0.5c-3.2,0-4.9,0.3-4.9,1v0.2c0,0.9,0.3,3.5,1,7.8c-0.2,4.4-1.2,6.6-2.7,6.6c-0.9,1-1.8,1.5-2.7,1.5H276
			c-0.4,0-0.7-0.1-1-0.2c-0.2,0-1.2,0.7-2.7,1.9c-0.9,0.2-1.6,0.2-2.2,0.2h-1.9c-4.2,0-6.3-2.7-6.3-8.3c-1.2-6.9-1.7-14.6-1.7-22.9
			c0.5-1.6,0.7-9.4,0.7-23.4v-1.7c0-2.7,0.4-7.3,1.2-13.9c0.5-8.2,0.7-13,0.7-14.4l-1-8.5c0-1.6,1.9-2.6,5.8-3.2
			c0.5,0,1,0.1,1.7,0.2c0.7-0.2,1.3-0.2,1.9-0.2c2.7,0,4.1,1.3,4.1,3.9c0.7,0,1.3,1.9,1.7,5.8c0,0.1-0.1,1.2-0.2,3.2
			c0.8,4.6,1.2,8.5,1.2,11.7v0.2c0,2.1-0.2,3.6-0.5,4.4c0.2,0.8,0.3,3.2,0.5,7.3c-0.2,3.2-0.2,5.1-0.2,5.4c0,1.9,0.5,6.8,1.7,14.6
			c0,3.7,0.4,8.2,1.2,13.4h0.2c2.1-0.5,3.5-0.7,4.1-0.7h0.7l0.2-1.2c0-3.8-0.1-7.9-0.2-12.4c0.7-4.6,1-8.3,1.2-11.2
			c-0.3-2.7-0.5-4.8-0.5-6.3c0.5-8,0.7-21.7,0.7-40.9c0-1.2,1.9-2,5.8-2.4H295z"/>
		<path class="st0" d="M346.5,316.9c2.3,5.5,3.4,11.3,3.4,17.5c0.2,0,0.2,0.4,0.2,1.2c0,0.3-0.3,2-1,5.1c0.8,4,1.2,8.5,1.2,13.6v0.5
			c0,3.5-0.5,8-1.5,13.6c0,3.4-1.4,7.2-4.1,11.5c-0.7,3.6-2,5.4-3.9,5.4c-0.8,2.1-2.5,3.2-5.1,3.2c-1,0-3-0.3-6.1-1
			c-3,0.7-5.1,1-6.1,1h-1c-4.2,0-7.2-2.9-9-8.8c-1.8-3.2-3.3-8.2-4.6-14.9c0-1.2-0.1-1.8-0.2-1.9l0.5-4.6c-0.2-2.6-0.2-5-0.2-7.1v-1
			c0-7.4,0.4-11.2,1.2-11.5c-0.2-0.3-0.2-0.5-0.2-0.7c0-1.5,0.7-4.9,2.2-10.5c0-2.1,1.6-7.8,4.9-17.1c1.5-1.8,3-2.9,4.4-3.2
			c3.8-1.5,7.8-2.2,11.9-2.2C339.9,305.2,344.3,309.1,346.5,316.9z M330.6,317.7c-0.7,2.4-1.4,6.8-2.2,13.4v4.1
			c0,0.5-0.2,1.1-0.7,1.7v1c0,4.3-0.2,6.9-0.5,8c0.2,1.1,0.2,2,0.2,2.7v2.4c0,5.8,0.9,13.3,2.7,22.7h0.2c1.4-1.9,2.6-6,3.7-12.2
			c0.7-4.8,1-9.7,1-14.6c0-2.5-0.3-6.6-1-12.4v-1.2c0-0.7,0.1-1.6,0.2-2.7c-1.3-5.2-2.4-9.6-3.4-12.9H330.6z"/>
		<path class="st0" d="M389.3,313.2c0.7,2,1.2,5.9,1.5,11.7c0,1.8-2.4,2.7-7.3,2.7c-3.2-0.7-5.4-1.6-6.3-2.9
			c-0.7-1.1-1.5-3.5-2.4-7.3c-3.1-4.1-5.4-6.1-6.8-6.1v1.7c0,2.3,0.9,5.9,2.7,10.7c5.2,9.1,9,16.7,11.2,22.9c0.5,2.7,1.5,6.4,2.9,11
			c0.8,4.3,1.2,6.6,1.2,6.8v1.7c0,2.1,0.2,4.9,0.5,8.3c-0.5,1.6-0.8,4.1-1,7.6c-1.5,4-3.8,7.6-6.8,11c-1,1.9-3.3,2.9-6.8,2.9
			c-0.9,0-1.5,0.1-1.7,0.2c-6.1,0-10.1-2.4-11.9-7.1c-2-2.5-3.4-5.3-3.9-8.3c-1.2-1.6-1.7-3.5-1.7-5.4v-1.7c0-3.1,1.6-4.6,4.9-4.6
			c0-0.3,0.5-0.4,1.7-0.5c3.7,0,6.5,3.1,8.5,9.3c1.1,4.1,2.1,6.5,3.2,7.3h0.2c0.5-2.8,0.8-5.2,1-7.3c-0.4-6.1-1.3-10.7-2.4-13.9
			v-2.9c-0.9-0.5-1.8-2.9-2.7-7.1c-2.1-3.6-3.4-6.6-3.9-9c-4.5-7.3-7.1-13.3-7.8-18c-1-4.8-1.5-7.4-1.5-8v-2.7c0-0.4,0.1-0.7,0.2-1
			c-0.1-0.3-0.3-1.5-0.5-3.7c1-3.8,2.9-6.5,5.4-8c4-3.1,8.2-4.6,12.9-4.6C378.8,298.8,384.6,303.6,389.3,313.2z"/>
	</g>
</g>
</svg>
