<?xml version="1.0" encoding="utf-8"?>
<!-- Generator: Adobe Illustrator 19.1.0, SVG Export Plug-In . SVG Version: 6.00 Build 0)  -->
<svg version="1.1" id="Camada_1" xmlns="http://www.w3.org/2000/svg" xmlns:xlink="http://www.w3.org/1999/xlink" x="0px" y="0px"
	 viewBox="0 0 575 501.6" style="enable-background:new 0 0 575 501.6;" xml:space="preserve">
<style type="text/css">
	.st0{display:none;fill:#FFFFFF;stroke:#211915;stroke-miterlimit:10;}
	.st1{display:none;}
	.st2{display:inline;}
	.st3{fill:#0074FF;}
	.st4{fill:none;stroke:#0074FF;stroke-width:15;stroke-miterlimit:10;}
	.st5{fill:none;stroke:#0074FF;stroke-width:15;stroke-linecap:round;stroke-linejoin:round;stroke-miterlimit:10;}
	.st6{display:none;fill:#0074FF;}
	.st7{font-family:'DumentoRoundedFREE';}
	.st8{font-size:155.09px;}
	.st9{letter-spacing:-4;}
	.st10{display:none;fill:#0074FF;}
	.st11{display:inline;fill:#0074FF;}
</style>
<rect x="-650.5" y="-567.5" class="st0" width="1876" height="1636.7"/>
<g>
	<g class="st1">
		<g class="st2">
			<g>
				<path class="st3" d="M95.5,437.6c-3.6,4.8-7.9,8.5-12.9,11.2c-5.1,2.6-10.7,3.9-16.7,3.9c-3.2,0-6.1-0.3-8.7-1
					c-2.6-0.7-5.6-1.9-9-3.7c-1.5-1.4-2.1-2.3-1.7-3s0.6-1.1,0.4-1.4l-0.1,6.2c-1,4.8-3.9,7-9,6.6c-5-0.4-7.6-2.6-7.9-6.6v-99.9
					c1.1-5.5,4-8.1,8.8-7.9s7.4,2.9,8,7.9v41c8.3-3.3,15.2-4.8,20.9-4.8c8.7,0,15.6,2.2,20.5,6.5c5,4.4,8.3,8.7,9.9,12.8
					c1.7,4.3,2.5,8.5,2.5,13.2C100.6,425,98.8,431.4,95.5,437.6z M80.2,429.2c1.4-2.5,2.2-5.5,2.2-9.1c0-5-1.5-9.4-4.4-12.9
					c-3-3.7-7-5.5-12-5.5c-7,0.1-11.8,1.9-14.7,5.4c-2.9,3.4-4.3,7.7-4.3,12.7c0,4.3,1.1,8,3.4,11.3c2.3,3.3,5,5.4,8,6.2
					c3,0.8,5.2,1.2,6.5,1.2c3.3,0,6.1-0.8,8.5-2.5C75.7,434.3,78,432.1,80.2,429.2z"/>
				<g>
					<path class="st3" d="M122.3,450c-0.8,4.8-3.9,7-9.1,6.7c-5.4-0.3-8.3-2.7-8.7-7v-63.8c1-5.4,3.9-8.1,8.8-7.9
						c4.8,0.1,7.9,2.5,9.1,7.3V450H122.3z"/>
					<circle class="st3" cx="112.6" cy="366.7" r="9.3"/>
				</g>
				<path class="st3" d="M189.3,449.7c-4.4,3.3-8.3,5.1-11.8,5.7c-3.6,0.6-8.7,0.9-15.3,0.9c-7.4,0-14-1.7-19.8-5s-10.3-8.7-13.3-16
					c-2-6.3-3-12.3-3-18c0-5.7,0.9-11,2.7-16.3c1.7-5.1,4.6-9.6,8.6-13.3c3.9-3.7,8.3-6.3,13.3-7.7c5-1.4,10-2.3,15.4-2.3
					c6.3,0,13.4,2.3,21.1,6.7c6,4.1,7.6,8.6,4.7,13.3c-2.7,4.7-6.7,5.6-11.8,2.4c-4.9-2.1-7.9-3.4-9.1-3.7c-1.1-0.3-3.1-0.4-6-0.4
					c-3.1,0-6,0.4-8.6,1.4s-4.7,2.4-6.4,4.3c-4,5-6,10.4-6,16c0,4.4,0.9,8.1,2.4,11.1c1.6,2.9,3.6,5,6.1,6.3c3.7,2.7,7.9,4,12,4
					c3,0,6-0.6,8.9-1.7c3.1-1.3,5.7-2.4,7.9-3.4c5.4-2.6,9.4-1.7,11.7,2.6C195.2,440.8,194.2,445.4,189.3,449.7z"/>
				<path class="st3" d="M255.2,449.2c-1.1,4.2-4.1,6.4-8.7,6.6c-4.6,0.1-7.5-2-8.7-6.6v-36.7c-0.5-3.4-1.8-6.1-3.5-8.3
					s-4.4-3.1-7.8-3c-4.2,0.7-7.2,2-9,4.2c-1.9,2.2-3,4.8-3.5,8.1v35.8c-1.1,4.4-4.1,6.4-8.9,6.3s-7.5-2.3-8.1-6.3v-99.4
					c0.4-5.5,3.3-8.2,8.3-8.3s7.9,2.6,8.3,8.3v43c0-1.1,1.6-2.5,4.8-4.1c3.3-1.6,7-2.5,11.3-2.5c7.1,0,13.7,2.5,19.7,7.5
					c3.7,4.8,5.6,10.5,5.6,16.9v38.5H255.2z"/>
				<g>
					<path class="st3" d="M276.5,450c-0.8,4.8-3.9,7-9.1,6.7c-5.4-0.3-8.3-2.7-8.7-7v-63.8c1-5.4,3.9-8.1,8.8-7.9
						c4.8,0.1,7.9,2.5,9.1,7.3V450H276.5z"/>
					<circle class="st3" cx="267.2" cy="366.7" r="9.3"/>
				</g>
				<path class="st3" d="M347.1,449.3c-1,4.4-4.3,6.5-9.6,6.4c-5.3-0.1-8.2-2.3-8.5-6.5v-42.5c-1.2-2.1-3.1-3.9-5.9-5.5
					c-2.7-1.6-5.7-2.3-9-2.3c-2,0-3.9,0.3-5.7,0.8c-2.5,1-4.8,2.5-6.9,4s-3.5,3.3-4.4,4.8V449c-2,5.2-5.1,7.4-9.4,6.9
					s-6.8-2.9-7.3-6.9v-62.2c0.4-6.1,3.4-9.1,8.9-9.3c5.5-0.1,7.9,3,7.6,9.3v5c-1.4,1.2,0.3,0.1,5.3-3.3c5-3.4,10.6-5.1,16.5-5.1
					c7.8,0,14.3,2.1,19.4,6.1c5.1,4.2,8.2,9.6,9.1,16.8v42.9H347.1z"/>
				<path class="st3" d="M409.3,449.3c-1.1,4.2-4.1,6.4-8.7,6.6c-4.6,0.1-7.5-2-8.7-6.6v-36.7c-0.5-3.4-1.8-6.1-3.5-8.3
					s-4.4-3.1-7.8-3c-4.2,0.7-7.2,2-9,4.2c-1.9,2.2-3,4.8-3.5,8.1v35.8c-1.1,4.4-4.1,6.4-8.9,6.3s-7.5-2.3-8.1-6.3v-99.4
					c0.4-5.5,3.3-8.2,8.3-8.3s7.9,2.6,8.3,8.3v43c0-1.1,1.6-2.5,4.8-4.1c3.3-1.6,7-2.5,11.3-2.5c7.1,0,13.7,2.5,19.7,7.5
					c3.7,4.8,5.6,10.5,5.6,16.9v38.5H409.3z"/>
				<path class="st3" d="M543.7,391.4c0.4,0.5,0.6,1.1,0.8,1.7c1.2,5,0,8.6-3.5,10.4c-3.6,1.8-7.5,1.4-11.7-1.4
					c-0.4-0.3-0.7-0.6-1-0.9c-2.1-2.5-4.3-4.4-6.7-5.7c-2.6-1.4-5.5-2.1-8.8-2.1c-2.2,0-4,0.4-5.5,1.1c-1.4,0.7-2.3,1.7-2.6,2.8
					c-0.3,1.1-0.6,1.9-0.6,2.6c0,1.2,0.8,2.5,2.5,3.7c0.4,0.3,0.8,0.5,1.2,0.6l23.3,8.2c4.3,1.7,7.4,4.1,9.8,7.7
					c2.3,3.4,3.6,7.3,3.6,11.6c0,4.8-1.5,9.6-4.7,14.2c-3.1,4.4-7.2,7.4-12.5,8.7c-0.3,0.1-0.5,0.1-0.8,0.1c-1.9,0.1-4,0.4-5.9,0.7
					c-2.2,0.3-4.3,0.4-6.2,0.4c-6.5,0-12.5-1.1-18-3.2c-5.3-2-10.2-5.9-14.7-11.7c-0.3-0.4-0.6-0.9-0.8-1.5c-1.4-4.7-0.5-8.6,3-11.5
					c3.5-3,7.9-2.2,13.2,1.9c0.3,0.2,0.5,0.4,0.7,0.7c2.6,3.1,5.3,5.5,7.7,7.1c2.6,1.7,4.9,2.4,7.5,2.3c4.3,0,7.1-0.8,8.5-1.8
					c0.9-0.6,1.6-1.4,2.2-2.5c0.9-1.7,0.7-3.8-0.5-5.2c0,0,0,0,0,0c-1-1.2-2.2-2.1-4.1-2.8c-4.8-1.2-9.9-3.2-15.2-5.6
					c-5.1-2.4-9.6-4.8-13.5-7.3c-0.4-0.3-0.8-0.6-1.1-0.9c-3.4-4-5.2-8.4-5.2-13.2c0-7.6,2.6-13.1,7.9-16.7
					c5.2-3.6,9.6-5.6,13.4-6.3c3.6-0.7,7.8-1,12.5-1c0.2,0,0.4,0,0.6,0c6.1,0.6,10.9,2.1,14.7,4.4
					C536.8,383.3,540.3,386.7,543.7,391.4z"/>
				<path class="st3" d="M469.2,390.2c-6.9-8-15.1-12-24.5-12c-9.2,0-16.9,3.9-23.3,12.1c-6.4,8.2-9.7,17.5-9.7,28
					c0,11.3,3.4,20.4,9.9,27.5c6.5,6.9,14.6,10.4,23.8,10.4c9.2,0,17.1-3.4,23.8-10.4c6.8-6.9,10.2-16.1,10.2-27.3
					C479.5,407.6,476,398.2,469.2,390.2z M445.9,437c-8.5,0-15.3-9-15.3-20s6.9-20,15.3-20c8.5,0,15.3,9,15.3,20
					S454.4,437,445.9,437z"/>
			</g>
		</g>
	</g>
	<g>
		<path class="st3" d="M27.2,349.3v28.8c3.5-3.7,7.2-6.5,10.8-8.5c3.7-2,8.2-2.9,13.7-2.9c6.3,0,11.7,1.5,16.5,4.5
			c4.7,3,8.4,7.3,11,12.9c2.6,5.6,3.9,12.3,3.9,20c0,5.7-0.7,10.9-2.2,15.7c-1.4,4.8-3.6,8.9-6.3,12.4c-2.8,3.5-6.1,6.2-10,8.1
			c-3.9,1.9-8.3,2.9-13,2.9c-2.9,0-5.6-0.3-8.2-1c-2.6-0.7-4.7-1.6-6.5-2.7c-1.8-1.1-3.3-2.3-4.6-3.5c-1.3-1.2-2.9-3-5-5.4v1.9
			c0,3.5-0.9,6.2-2.6,8c-1.7,1.8-3.9,2.7-6.5,2.7c-2.7,0-4.8-0.9-6.4-2.7c-1.6-1.8-2.4-4.5-2.4-8v-82.3c0-3.8,0.8-6.7,2.3-8.7
			c1.5-2,3.7-2.9,6.5-2.9c2.9,0,5.1,0.9,6.7,2.8C26.5,343.2,27.2,345.8,27.2,349.3z M28.1,405.2c0,7.5,1.7,13.3,5.1,17.3
			c3.4,4,7.9,6,13.5,6c4.7,0,8.8-2.1,12.2-6.2c3.4-4.1,5.1-10,5.1-17.7c0-5-0.7-9.2-2.1-12.8c-1.4-3.6-3.4-6.4-6.1-8.3
			c-2.6-2-5.7-2.9-9.2-2.9c-3.6,0-6.8,1-9.6,2.9c-2.8,2-5,4.8-6.6,8.5C28.9,395.7,28.1,400.1,28.1,405.2z"/>
		<path class="st3" d="M96.9,357.8c-2.6,0-4.9-0.8-6.7-2.4c-1.9-1.6-2.8-3.9-2.8-6.8c0-2.7,1-4.9,2.9-6.6c1.9-1.7,4.1-2.6,6.7-2.6
			c2.4,0,4.6,0.8,6.5,2.3c1.9,1.6,2.8,3.8,2.8,6.8c0,2.9-0.9,5.2-2.8,6.8C101.6,357,99.4,357.8,96.9,357.8z M106.2,377.2v54.4
			c0,3.8-0.9,6.6-2.7,8.6c-1.8,1.9-4.1,2.9-6.8,2.9s-5-1-6.7-3s-2.6-4.8-2.6-8.5v-53.9c0-3.7,0.9-6.5,2.6-8.4c1.7-1.9,4-2.8,6.7-2.8
			s5,0.9,6.8,2.8C105.3,371.2,106.2,373.9,106.2,377.2z"/>
		<path class="st3" d="M181.6,419.8c0,2.3-0.7,4.9-2.1,7.5c-1.4,2.7-3.5,5.2-6.4,7.6c-2.9,2.4-6.5,4.4-10.9,5.8
			c-4.4,1.5-9.3,2.2-14.8,2.2c-11.6,0-20.7-3.4-27.3-10.2c-6.5-6.8-9.8-15.9-9.8-27.3c0-7.7,1.5-14.6,4.5-20.5
			c3-5.9,7.3-10.5,13-13.8c5.7-3.2,12.4-4.9,20.3-4.9c4.9,0,9.4,0.7,13.4,2.1c4.1,1.4,7.5,3.3,10.4,5.5c2.8,2.3,5,4.7,6.5,7.2
			c1.5,2.6,2.2,4.9,2.2,7.1c0,2.3-0.8,4.2-2.5,5.7c-1.7,1.6-3.7,2.3-6.1,2.3c-1.6,0-2.9-0.4-3.9-1.2c-1-0.8-2.2-2.1-3.5-3.9
			c-2.3-3.5-4.7-6.1-7.2-7.9c-2.5-1.7-5.7-2.6-9.6-2.6c-5.6,0-10.1,2.2-13.5,6.5c-3.4,4.3-5.1,10.3-5.1,17.8c0,3.5,0.4,6.8,1.3,9.8
			c0.9,3,2.1,5.5,3.8,7.6c1.7,2.1,3.7,3.7,6,4.8c2.3,1.1,4.9,1.6,7.7,1.6c3.8,0,7-0.9,9.7-2.6c2.7-1.7,5.1-4.4,7.1-8
			c1.1-2.1,2.4-3.8,3.7-5c1.3-1.2,3-1.8,4.9-1.8c2.3,0,4.2,0.9,5.7,2.6C180.8,416,181.6,417.8,181.6,419.8z"/>
		<path class="st3" d="M204.6,350v27.9c2.4-2.8,4.7-4.9,7-6.6c2.3-1.6,4.8-2.8,7.6-3.6c2.8-0.8,5.7-1.2,8.9-1.2c4.8,0,9,1,12.7,3
			c3.7,2,6.6,5,8.7,8.8c1.3,2.3,2.2,4.8,2.7,7.6c0.5,2.8,0.7,6,0.7,9.6v36.1c0,3.8-0.9,6.6-2.6,8.6c-1.7,1.9-4,2.9-6.9,2.9
			c-6.2,0-9.3-3.8-9.3-11.5v-31.8c0-6-0.9-10.7-2.7-13.9c-1.8-3.2-5.2-4.9-10.2-4.9c-3.4,0-6.4,1-9.1,2.9c-2.7,1.9-4.7,4.5-6,7.8
			c-1,2.8-1.5,7.8-1.5,15v24.9c0,3.7-0.8,6.6-2.5,8.5c-1.7,2-4,2.9-7,2.9c-6.2,0-9.3-3.8-9.3-11.5V350c0-3.8,0.8-6.7,2.5-8.6
			c1.6-1.9,3.9-2.9,6.9-2.9c3,0,5.3,1,7,2.9C203.7,343.3,204.6,346.2,204.6,350z"/>
		<path class="st3" d="M266.6,357.8c-2.6,0-4.9-0.8-6.7-2.4c-1.9-1.6-2.8-3.9-2.8-6.8c0-2.7,1-4.9,2.9-6.6c1.9-1.7,4.1-2.6,6.7-2.6
			c2.4,0,4.6,0.8,6.5,2.3c1.9,1.6,2.8,3.8,2.8,6.8c0,2.9-0.9,5.2-2.8,6.8C271.3,357,269.1,357.8,266.6,357.8z M275.9,377.2v54.4
			c0,3.8-0.9,6.6-2.7,8.6c-1.8,1.9-4.1,2.9-6.8,2.9c-2.8,0-5-1-6.7-3s-2.6-4.8-2.6-8.5v-53.9c0-3.7,0.9-6.5,2.6-8.4
			c1.7-1.9,4-2.8,6.7-2.8c2.8,0,5,0.9,6.8,2.8C275,371.2,275.9,373.9,275.9,377.2z"/>
		<path class="st3" d="M297.8,377v2.3c3.3-4.4,6.9-7.6,10.9-9.6c3.9-2,8.5-3.1,13.6-3.1c5,0,9.4,1.1,13.3,3.2
			c3.9,2.2,6.8,5.2,8.8,9.2c1.2,2.3,2,4.8,2.4,7.5c0.4,2.7,0.6,6.1,0.6,10.2v35.1c0,3.8-0.9,6.6-2.6,8.6c-1.7,1.9-4,2.9-6.7,2.9
			c-2.8,0-5.1-1-6.8-3c-1.7-2-2.6-4.8-2.6-8.5v-31.4c0-6.2-0.9-11-2.6-14.3c-1.7-3.3-5.2-4.9-10.3-4.9c-3.4,0-6.4,1-9.2,3
			c-2.8,2-4.8,4.8-6.1,8.2c-0.9,2.8-1.4,8.1-1.4,15.7v23.6c0,3.8-0.9,6.7-2.7,8.6c-1.8,1.9-4.1,2.9-6.9,2.9c-2.7,0-4.9-1-6.7-3
			c-1.7-2-2.6-4.8-2.6-8.5v-54.4c0-3.6,0.8-6.3,2.3-8c1.6-1.8,3.7-2.7,6.4-2.7c1.7,0,3.2,0.4,4.5,1.2c1.3,0.8,2.4,2,3.2,3.5
			C297.4,372.8,297.8,374.7,297.8,377z"/>
		<path class="st3" d="M370.3,350v27.9c2.4-2.8,4.7-4.9,7-6.6c2.3-1.6,4.8-2.8,7.6-3.6c2.8-0.8,5.7-1.2,8.9-1.2c4.8,0,9,1,12.7,3
			c3.7,2,6.6,5,8.7,8.8c1.3,2.3,2.2,4.8,2.7,7.6c0.5,2.8,0.7,6,0.7,9.6v36.1c0,3.8-0.9,6.6-2.6,8.6c-1.7,1.9-4,2.9-6.9,2.9
			c-6.2,0-9.3-3.8-9.3-11.5v-31.8c0-6-0.9-10.7-2.7-13.9c-1.8-3.2-5.2-4.9-10.2-4.9c-3.4,0-6.4,1-9.1,2.9c-2.7,1.9-4.7,4.5-6,7.8
			c-1,2.8-1.5,7.8-1.5,15v24.9c0,3.7-0.8,6.6-2.5,8.5c-1.7,2-4,2.9-7,2.9c-6.2,0-9.3-3.8-9.3-11.5V350c0-3.8,0.8-6.7,2.5-8.6
			c1.6-1.9,3.9-2.9,6.9-2.9c3,0,5.3,1,7,2.9C369.5,343.3,370.3,346.2,370.3,350z"/>
		<path class="st3" d="M497.8,404.8c0,5.6-0.9,10.8-2.6,15.5c-1.7,4.7-4.3,8.8-7.6,12.2c-3.3,3.4-7.3,6-11.9,7.8
			c-4.6,1.8-9.8,2.7-15.5,2.7c-5.7,0-10.8-0.9-15.4-2.8c-4.6-1.8-8.5-4.5-11.8-7.9c-3.3-3.4-5.9-7.5-7.6-12.1
			c-1.7-4.7-2.6-9.8-2.6-15.5c0-5.7,0.9-10.9,2.6-15.7c1.7-4.7,4.3-8.8,7.5-12.1c3.3-3.4,7.2-5.9,11.9-7.8c4.6-1.8,9.8-2.7,15.4-2.7
			c5.7,0,10.9,0.9,15.5,2.8c4.6,1.8,8.6,4.5,11.9,7.9c3.3,3.4,5.8,7.5,7.6,12.1C496.9,394,497.8,399.2,497.8,404.8z M478.9,404.8
			c0-7.7-1.7-13.7-5.1-17.9c-3.4-4.3-7.9-6.4-13.6-6.4c-3.7,0-6.9,1-9.7,2.9c-2.8,1.9-5,4.7-6.5,8.5c-1.5,3.7-2.3,8.1-2.3,13
			c0,4.9,0.7,9.2,2.2,12.9c1.5,3.7,3.6,6.5,6.4,8.5c2.8,2,6.1,2.9,9.8,2.9c5.7,0,10.2-2.1,13.6-6.5
			C477.2,418.4,478.9,412.4,478.9,404.8z"/>
		<path class="st3" d="M565.6,418.5c0,5.2-1.3,9.7-3.8,13.4c-2.5,3.7-6.3,6.5-11.2,8.4c-4.9,1.9-11,2.9-18,2.9
			c-6.8,0-12.6-1-17.4-3.1c-4.8-2.1-8.4-4.7-10.7-7.8c-2.3-3.1-3.4-6.2-3.4-9.4c0-2.1,0.7-3.8,2.2-5.3c1.5-1.5,3.3-2.2,5.6-2.2
			c2,0,3.5,0.5,4.6,1.4c1.1,1,2.1,2.3,3,4.1c1.9,3.4,4.2,5.9,6.9,7.5c2.7,1.7,6.4,2.5,11,2.5c3.8,0,6.9-0.8,9.3-2.5
			c2.4-1.7,3.6-3.6,3.6-5.8c0-3.3-1.3-5.7-3.8-7.2c-2.5-1.5-6.6-3-12.4-4.3c-6.5-1.6-11.8-3.3-15.8-5.1c-4.1-1.8-7.3-4.1-9.8-7
			c-2.4-2.9-3.7-6.5-3.7-10.7c0-3.8,1.1-7.3,3.4-10.7c2.3-3.4,5.6-6,10-8c4.4-2,9.7-3,15.9-3c4.9,0,9.3,0.5,13.1,1.5
			c3.9,1,7.1,2.4,9.7,4.1c2.6,1.7,4.6,3.6,5.9,5.7s2,4.1,2,6.1c0,2.2-0.7,3.9-2.2,5.3c-1.4,1.4-3.5,2.1-6.2,2.1
			c-1.9,0-3.6-0.6-4.9-1.7c-1.4-1.1-2.9-2.8-4.7-5c-1.4-1.8-3.1-3.3-5-4.4c-1.9-1.1-4.6-1.7-7.9-1.7c-3.4,0-6.2,0.7-8.5,2.2
			c-2.3,1.4-3.4,3.3-3.4,5.4c0,2,0.8,3.6,2.5,4.9c1.7,1.3,3.9,2.3,6.7,3.1c2.8,0.8,6.7,1.8,11.6,3c5.8,1.4,10.6,3.1,14.3,5.1
			c3.7,2,6.5,4.3,8.4,7C564.6,412,565.6,415,565.6,418.5z"/>
	</g>
	<g>
		<g>
			<g>
				<path class="st4" d="M467.9,175.2c-8.9-26.8-7.9-66.6-15.9-89.7c-24.5-19.8-57.8-34.1-91.3-34.1c-19.5,0-39.9,4.2-57.7,12.2
					c0.1,0.2-20.7,11.9-28.9,17.9c-9.7,22.3-8,65.4-17.5,93.8c-3.1,9.4-6.9,17.5-11.3,23.9c28.9,74.2,67.4,126.8,115.2,108.7
					c48.6,18.4,86.9-36.5,115.9-113C473.3,189.1,470.4,182.5,467.9,175.2z"/>
				<path class="st4" d="M303.3,62.7c-11.5-25-79.6-31.4-112,33.5c-18,36,1.9,121.1,31.5,119c14-1,26.2-16.6,34-40
					c9.6-28.9,7.7-73.1,18-95C282.4,63.9,304.1,64.4,303.3,62.7z"/>
				<path class="st4" d="M420.4,64.7c11.5-25,80.6-33.4,113,31.5c18,36-1.9,121.1-31.5,119c-14-1-26.2-16.6-34-40
					c-9.6-28.9-7.7-73.1-18-95C442.3,63.9,419.6,66.4,420.4,64.7z"/>
				<line class="st4" x1="360.8" y1="304.3" x2="360.8" y2="236.7"/>
			</g>
			<g>
				<path class="st3" d="M391.1,241c-0.5-3.5-15.4-12.8-30.3-12.8c-15.1,0-30.2,9.3-30.7,12.8c-1,7,21,34,30,34c0.2,0,0.3,0,0.5-0.1
					c0.2,0,0.3,0.1,0.5,0.1C370.1,275,392.1,248,391.1,241z"/>
				<circle class="st3" cx="304.9" cy="174.5" r="18.8"/>
				<circle class="st3" cx="416.7" cy="174.6" r="18.8"/>
			</g>
		</g>
		<g>
			<g>
				<path class="st5" d="M213.5,248.3c0,0-13.4,34.9-48.3,12.8"/>
				<path class="st5" d="M213.2,248.3c0,0,13.4,34.9,48.3,12.8"/>
				<g>
					<path class="st4" d="M251.5,188.4"/>
					<path class="st4" d="M254.4,181.8"/>
					<path class="st4" d="M253,185.2"/>
					<path class="st4" d="M245.5,199c-6.5,9.7-14.3,15.5-22.7,16.1c-25.3,1.8-43.5-60-37-100.5h-13c0,0-36.8-64-43.2-69
						S95.3,90.2,95.3,204.2c0,83.5,58.9,107.3,118,107.5c31.7,0.1,63.4,1.7,86.2-20.2C278.9,271.6,260.8,238.4,245.5,199z"/>
				</g>
				<g>
					<line class="st5" x1="34.7" y1="220" x2="122.4" y2="214.3"/>
					<line class="st5" x1="49.4" y1="263.2" x2="122.3" y2="239.7"/>
				</g>
			</g>
			<g>
				<circle class="st3" cx="159.3" cy="184.5" r="16.3"/>
				<g>
					<path class="st3" d="M233.5,232.5c-0.4-10.4-39.7-10.4-40.1,0c-0.4,10.2,12.8,20.1,19.9,20.4c0,0,0.1,0,0.1,0c0,0,0.1,0,0.1,0
						c0,0,0.1,0,0.1,0c0,0,0.1,0,0.1,0C220.7,252.6,233.8,242.8,233.5,232.5z"/>
				</g>
				<path class="st3" d="M213.3,284.9C213.4,284.9,213.4,284.9,213.3,284.9L213.3,284.9c14.3-0.1,17.4-13.2,17.4-13.2l-17.4-19.5
					V252l-0.1,0.1l-0.1-0.1v0.1l-17.4,19.5C195.9,271.7,199,284.8,213.3,284.9"/>
			</g>
		</g>
	</g>
</g>
<text transform="matrix(1 0 0 1 24.3232 454.933)" class="st6 st7 st8 st9">bichinhos</text>
<circle class="st10" cx="591.5" cy="417.2" r="5.2"/>
<g class="st1">
	<circle class="st11" cx="57.3" cy="454.4" r="2.6"/>
	<circle class="st11" cx="84.8" cy="454.5" r="2.6"/>
	<circle class="st11" cx="174.7" cy="454.6" r="2.6"/>
	<circle class="st11" cx="259.5" cy="454.6" r="2.6"/>
	<circle class="st11" cx="287" cy="454.6" r="2.6"/>
	<circle class="st11" cx="372.1" cy="454.6" r="2.6"/>
	<circle class="st11" cx="457" cy="454.6" r="2.6"/>
	<circle class="st11" cx="551.1" cy="454.6" r="2.6"/>
</g>
</svg>
