<?xml version="1.0" encoding="iso-8859-1"?>
<!-- Generator: Adobe Illustrator 19.0.0, SVG Export Plug-In . SVG Version: 6.00 Build 0)  -->
<svg version="1.1" id="Layer_1" xmlns="http://www.w3.org/2000/svg" xmlns:xlink="http://www.w3.org/1999/xlink" x="0px" y="0px"
	 viewBox="0 0 512.011 512.011" style="enable-background:new 0 0 512.011 512.011; fill: #fff" xml:space="preserve">
<g>
	<g>
		<path d="M454.892,397.749v-0.021L372.844,200.8c-0.363-0.853-0.768-1.707-1.259-2.517c-12.779-21.973-40.299-31.36-74.709-27.669
			L431.084,36.405c8.341-8.32,8.341-21.824,0-30.165c-8.32-8.32-21.824-8.32-30.165,0L245.335,161.824L89.751,6.24
			c-8.32-8.32-21.824-8.32-30.165,0c-8.32,8.341-8.32,21.845,0,30.165L194.22,171.04c-58.944,2.005-98.219,26.923-98.219,63.616
			v213.333c0,12.672,5.163,36.203,39.765,51.435c18.411,8.107,42.517,12.565,67.904,12.565c27.307,0,50.389-5.013,68.181-13.568
			c11.435,9.429,27.136,13.589,44.757,13.589c20.629,0,43.755-5.547,65.365-14.549C440.321,473.163,469.633,433.099,454.892,397.749
			z M224.001,426.656h-42.667c-11.797,0-21.333-9.536-21.333-21.333c0-11.776,9.536-21.333,21.333-21.333h42.667
			c11.797,0,21.333,9.557,21.333,21.333C245.335,417.12,235.799,426.656,224.001,426.656z M224.001,362.656h-42.667
			c-11.797,0-21.333-9.536-21.333-21.333c0-11.776,9.536-21.333,21.333-21.333h42.667c11.797,0,21.333,9.557,21.333,21.333
			C245.335,353.12,235.799,362.656,224.001,362.656z M224.001,298.656h-42.667c-11.797,0-21.333-9.536-21.333-21.333
			c0-11.776,9.536-21.333,21.333-21.333h42.667c11.797,0,21.333,9.557,21.333,21.333
			C245.335,289.12,235.799,298.656,224.001,298.656z M365.548,458.08c-26.261,10.923-48.661,12.864-60.48,9.493
			c0.405-0.896,0.491-1.685,0.832-2.581c0.704-1.856,1.365-3.733,1.835-5.675c1.024-4.139,1.6-8.021,1.6-11.328V234.656
			c0-1.856-0.171-4.011-0.491-6.251c-0.128-1.173-0.32-2.325-0.533-3.435c-0.085-0.341-0.171-0.683-0.256-1.024
			c-0.875-3.989-2.133-7.808-3.947-11.328c15.061-1.28,26.197,1.195,30.059,6.336l81.365,195.179
			C418.945,422.368,401.58,443.061,365.548,458.08z"/>
	</g>
</g>
<g>
</g>
<g>
</g>
<g>
</g>
<g>
</g>
<g>
</g>
<g>
</g>
<g>
</g>
<g>
</g>
<g>
</g>
<g>
</g>
<g>
</g>
<g>
</g>
<g>
</g>
<g>
</g>
<g>
</g>
</svg>
